<?xml version="1.0" encoding="utf-8"?>
<!-- Generator: Adobe Illustrator 18.0.0, SVG Export Plug-In . SVG Version: 6.00 Build 0)  -->
<!DOCTYPE svg PUBLIC "-//W3C//DTD SVG 1.1//EN" "http://www.w3.org/Graphics/SVG/1.1/DTD/svg11.dtd">
<svg version="1.1" id="Socialmedia_Icons_and_cartoons"
	 xmlns="http://www.w3.org/2000/svg" xmlns:xlink="http://www.w3.org/1999/xlink" x="0px" y="0px" viewBox="0 0 252.7 244"
	 enable-background="new 0 0 252.7 244" xml:space="preserve">
<g>
	<g>
		<path fill="#D7E2F2" d="M149.6,79c-3.1,2.8-5.3,7.6-5.7,11.6c0,0,0,0,0,0c0,0.2,0,0.2,0.1,0.7c0.2,1.3,1.3,3.8,0.6,5.1
			c-0.4,0.8-1.9,1.4-2.4,2.3c-1,1.6-1.2,3.5-0.7,5.3c0.1,0.6,0.8,1,1.4,0.6c4.3-3.5,9.7-6.8,9.1-13.1c-0.1-0.6-1-0.5-1,0.1
			c-0.4,5-4.3,7.8-7.9,10.7c0-1.1,0.3-2.2,1.1-3.1c0.7-0.9,2-1.2,2.6-2.2c1.6-2.4-1.5-4.7-1.9-6.8c1.3-3.6,6.4-16.1,10.3-10.3
			c0,0,0.1,0,0.1,0C154.8,76.8,151.3,77.5,149.6,79z"/>
		<path fill="#D7E2F2" d="M70,85.4c-0.1-0.4-0.2-0.9-0.3-1.3c0.1-2.5-0.3-5.1-1.2-7.5c-0.5-1.3-2.1-0.8-2.2,0.4c0,0.6,0,1.3,0,1.9
			c-0.6,2.4,0.2,5.4,0.9,7.6c0.3,0.9,1.7,1,2.1,0.2C69.8,86.5,70.2,86,70,85.4z"/>
		<path fill="#D7E2F2" d="M102.5,86.2c-0.1-1.7-0.5-3.3-1.1-4.9c-0.2-1.5-0.5-3.1-0.8-4.5c-0.3-1.5-2.6-1.5-2.7,0.1
			c-0.2,1.9-0.1,3.8,0.3,5.7c0.1,1.2,0.4,2.3,0.5,3.4c0.1,0.7,0.6,1,1.1,1c0,0,0,0.1,0.1,0.1C100.7,88.5,102.7,87.7,102.5,86.2z"/>
		<path fill="#D7E2F2" d="M161.3,77.3c-0.8-5.1-6.9-6.5-11.4-6c-0.7,0.1-1.4,0.2-2,0.4c-0.6-0.1-1.2-0.1-1.8-0.2
			c0.1,0,0.2,0,0.3-0.1c0.7-0.6,1.3-1.2,2-1.9c0.4-0.4-0.2-1.2-0.6-0.8c-0.7,0.6-1.3,1.2-2,1.9c-0.2,0.3,0,0.7,0.3,0.8
			c-0.7-0.1-1.3-0.2-2-0.2c0,0,0.1,0,0.1,0c0.8-0.6,1.4-1.4,2-2.1c0.7-0.8,1.5-1.6,2.3-2.3c0.2-0.2,0-0.5-0.2-0.4
			c-1.9,0.8-4.1,2.3-4.7,4.4c-0.1,0.2,0.1,0.3,0.3,0.4c-8.6-0.8-18-0.5-26,1.5c-0.1-0.5-0.3-0.8-0.8-0.8c-9.8-0.7-20.3-1-29.9,1.5
			c0-0.1,0-0.2-0.1-0.3c-0.1-0.2-0.4-0.2-0.4,0c-0.2,1.5-0.3,3-0.2,4.5c-1.8-0.3-3.9,0-5.4,0.3c-0.7,0.1-1.5,0.3-2.1,0.7
			c0-1.9-0.1-3.8-0.1-5.6c0-0.6-0.3-1.1-1-1.2c-7.7-0.3-15.3,0-23,0.8c0.3-12.9,2.1-28.5,9.5-39.2c2.9,0.1,5.7,0.4,8.8,0.5
			c0.6,0,0.9-0.9,0.3-1.2c-2.2-1.3-4.7-1.8-7.2-1.9c0.2-0.3,0.5-0.5,0.7-0.8c3,0.4,5.9,0.9,8.9,1.3c0.5,0.1,0.7-0.7,0.3-0.9
			c-2.3-1.1-4.9-1.8-7.5-2.1c0.6-0.6,1.2-1.1,1.9-1.6c2.9,0.5,5.8,1.2,8.8,1.6c0.4,0.1,0.8-0.5,0.3-0.8c-2.3-1.3-4.7-1.9-7.3-2.2
			c0.4-0.2,0.7-0.4,1.1-0.7c5.1,1.1,10,2.8,15.2,4.5c0.5,0.2,1-0.5,0.5-0.8c-4.1-2.6-8.8-4.1-13.6-4.9c0.2-0.3-0.1-0.7-0.4-0.6
			c-0.3,0.1-0.5,0.3-0.8,0.4c-3.5-0.5-7.1-0.7-10.7-0.7c-0.6,0-0.7,1-0.1,1c3,0,5.8,0.3,8.6,0.8c-0.4,0.3-0.9,0.5-1.3,0.8
			c-2.8-0.2-5.7,0-8.5,0.2c-0.5,0-0.4,0.9,0.1,0.8c2.3-0.2,4.5,0,6.6,0.3c-0.7,0.5-1.3,1.1-2,1.7c-1.9-0.1-3.8-0.1-5.7,0.1
			c-0.7,0.1-0.7,1,0,1.1c1.4,0.1,2.7,0.2,4,0.4c-0.3,0.3-0.6,0.7-0.9,1c-2.8,0.2-5.6,1-8.1,2.1c-0.5,0.2-0.3,1.1,0.3,1
			c2.1-0.5,4-0.6,6-0.7c-4.6,6.8-6.8,15.5-7.9,23.9c-0.7,5.1-1.4,10.3-1.6,15.5c-1.1,0.1-2.2,0.3-3.3,0.4c0-0.1,0-0.1,0-0.2
			c0-0.4-0.7-0.4-0.7,0c0.2,4.7-0.9,17.1,5,18.6c1,7.7,2.1,15.3,2.5,23.1c0.4,9.3,0.4,18.6,1.1,27.9c0.5,5.9,0.6,13.4,7.3,15.4
			c6.7,2,16.1,0.3,22.8-1.2c1.3-0.3,2.6-0.6,3.9-1c-0.1,4.7,0.7,10.4,2.3,15.5c-0.3-0.1-0.6,0-0.8,0.2c-2.4,2.4-4.1,5.6-5.1,9.1
			c-9.7,5.2-19.3,11.5-28.3,17.8c-9.1,3.7-17,12.2-21.3,20.5c-0.5,0.9,1,2,1.6,1.1c3-4.5,6.4-8.7,10.4-12.3c3.5-3.2,7.4-5.5,11.3-8
			c9.2-4.8,18.3-10.7,26-17.5c-1.1,4.8-0.8,9.8,0.9,14.1c0.3,0.6,1.2,0.3,1.1-0.3c-0.8-9,0.6-15.3,4.6-23.4c0.6,1.8,1.4,3.6,2.2,5.1
			c0.8,7.8,6.3,17.3,12.2,21.9c0.4,0.4,1.2-0.1,0.9-0.7c-0.9-1.4-1.9-2.8-2.9-4.2c5.4,2.5,12.9,0.7,17.9-2.8c0.4-0.3,0-1-0.4-0.9
			c-5.7,1.6-13.5,5.2-18.9,1.6c-1.2-1.7-2.3-3.3-3.2-5.1c-1.5-2.8-2.6-5.8-3.9-8.7c0-0.1,0-0.2,0-0.2c-0.6-4.2-2.3-8.3-3.5-12.4
			c-1-3.5-1.7-7.1-2.9-10.4c5.8-1.8,11.4-4.5,16.4-7.9c9.4-6.4,17.1-15,23.7-24.3c1.4-1.6,2.5-3.2,3.4-5.1c0.4-0.6,0.8-1.2,1.1-1.8
			c0.5-1.7,1-3.5,1.5-5.2c0.4,0.2,0.9,0.3,1.3,0.3c0.2,0,0.5,0,0.7-0.1c0.3,0,0.6-0.1,0.9-0.1c-2.2,7.9-2.4,16.7-2.6,24.8
			c-0.3,9.3,0.2,18.6,1.6,27.8c0.1,0.5,0.7,0.6,1,0.4c-7.7,9.5-13.6,21.7-15.6,33.7c-0.1,0.7,1,0.9,1.2,0.2
			c4.1-12.6,9.1-23.9,16.1-35.1c0.2-0.3-0.2-0.5-0.4-0.3c-0.4,0.5-0.8,1-1.2,1.5c0.1-0.1,0.1-0.2,0.1-0.4c-0.6-9.5-1.1-19.1-1-28.6
			c0.1-8,1.3-16.1,1.3-24c6.7,0.4,12.1-7.9,14.8-13.2C159.2,92.5,162.3,83.9,161.3,77.3z M52.2,87c-0.7-1.2-0.7-3.2-1-4.6
			c-0.5-2.8-0.9-5.6-1.2-8.3c1.1,0,2.1-0.1,3.2-0.1c-0.2,3.7-0.1,7.5,0.3,11.2c0.1,1.2,0.3,2.3,0.4,3.5C53.2,88.2,52.6,87.7,52.2,87
			z M54.7,78c0-1.3,0-2.7,0-4.1c5.9-0.2,11.7-0.2,17.6,0c4.1,0.1,4.7,0.8,4.7,5.1c0,2.7-0.4,5.4-0.5,8.1c-0.4,1-0.7,1.9-1.1,2.9
			c-2.3,0.3-4.7,0.1-7,0.1c-3.4,0-7.3,0.4-10.6-0.1c-0.7-0.1-1.5-0.3-2.2-0.5C55.1,85.6,54.7,81.8,54.7,78z M156.8,88.4
			c-2.1,7.8-7.7,20.3-16.8,21.6c0,0,0,0,0,0c-0.5,0-1,0-1.4,0.3c0-0.2,0.1-0.3,0.1-0.5c-0.1,0.1-0.1,0.2-0.2,0.3
			c0.9-4.1,1.4-8.4,2.1-12.6c0.1-0.5-0.6-0.6-0.7-0.1c-1.8,6.7-3,13.3-5.7,19.4c-7.8,11.7-16.2,22.8-28.3,30.5
			c-8.2,5.3-17.2,8-26.9,8.8c-6.4,0.5-15.7,2.4-18.5-5.7c-1.3-3.9-1.1-9-1.4-13.1c-0.6-10.3-0.3-20.6-1.1-30.9
			c-0.4-4.9-1.2-9.7-1.9-14.6c4,0.5,8.3,0.2,12.3,0.3c2,0,4.3,0.3,6.3,0c-1.2,3.5-2.4,7-3.6,10.5c-0.6,1.8-2,4.3-0.6,6.1
			c1.9,2.6,8,2.9,10.8,2.7c0.8-0.1,1.1-1.1,0.2-1.4c-1.8-0.6-5.7-0.7-7.2-1.8c-3-2.5-0.9-6.4-0.1-9.2c0.3-1.2,0.9-4,1.7-7.1
			c0.7-0.2,1.4-0.5,2-1c0.6-0.5,0.3-1.6-0.6-1.3c-0.3,0.1-0.5,0.1-0.8,0.2c0.1-0.3,0.1-0.5,0.2-0.8c0.2,0.2,0.6,0.1,0.7-0.2
			c0.7-1.7,1-3.4,1.3-5.1c0.7-1.3,1.4-2.2,2.2-2.5c0.3-0.1,0.2-0.5-0.1-0.5c-0.9,0.1-1.5,0.5-1.9,1c0-0.5,0.1-1.1,0.1-1.6
			c0.8-0.7,3.1-0.4,3.9-0.4c1.2,0,2.5,0.3,3.7,0.3c0.1,1.3,0.2,2.6,0.2,3.9c0.1,2.3-0.2,5.4,0.8,7.6c0.3,0.6,1.1,0.9,1.6,0.4
			c0.1-0.1,0.2-0.1,0.3-0.2c0.4-0.4,0.2-0.8,0-1.2c-0.5-1.1-0.4-3.1-0.6-4.2c-0.2-1.8-0.5-3.5-0.7-5.3c-0.1-0.4-0.1-0.9-0.1-1.3
			c0.7-0.3,0.7-1.2,0.1-1.6c-0.1-0.1-0.2-0.1-0.3-0.1c-0.1-1.5-0.3-2.9-0.6-4.4c7.8-0.1,15.5-0.9,23.3-0.6c1,0,3.4-0.3,4.3,0.2
			c0.2,0.1,0.4,0.2,0.6,0.4c0,0.3,0.3,0.6,0.6,0.6c0.8,1,0.4,2.3,0.3,3.9c-0.2,3.9-1.7,7-2.5,10.8c-7.9,0.8-16.6,2.6-24.3,0.1
			c-0.3-0.1-0.5,0.3-0.3,0.5c2.9,2.9,8.1,2.6,11.8,2.6c5.1,0,10.3-0.7,15-2.8c0.3-0.1,0.2-0.6-0.2-0.6c-0.4,0-0.7,0.1-1.1,0.1
			c3.2-4.1,3.6-10,3.1-15.1c9.3-2.2,18.6-0.9,28-1.4c-5.1,2.8-7,9.6-6.4,15.4c0,0.2,0.3,0.2,0.3,0.1c1.9-5.9,3.5-12.9,10.8-13.5
			C159.9,73.8,158.5,82.1,156.8,88.4z"/>
		<path fill="#D7E2F2" d="M76.3,63.5c-6.5-1.3-17.7-2.7-20.9,4.9c-0.1,0.2,0.1,0.5,0.4,0.3c1.4-1.1,2.9-1.9,4.4-2.5
			c5.3-1,10.5-1,15.8,0.1C77.8,66.7,78.1,63.8,76.3,63.5z"/>
		<path fill="#D7E2F2" d="M117.8,67c-7.4-4.1-18.5-6.3-26.3-2.3c-0.9,0.5-0.3,2.1,0.7,1.9c2.2-0.3,4.3-0.4,6.5-0.5
			c0.5,0,0.6-0.5,0.4-0.8c1.3-0.1,2.7-0.2,4.1-0.1c4.9,0.2,9.6,2,14.5,2.4C118,67.6,118.1,67.2,117.8,67z"/>
		<path fill="#D7E2F2" d="M105.5,113.1c-10.2,10.6-22.6,8.6-35.9,6.5c-0.1,0-0.2,0.2-0.1,0.2c11.6,5.9,28.7,5.3,36.6-6.1
			C106.6,113.2,106,112.6,105.5,113.1z"/>
		<path fill="#D7E2F2" d="M89.6,131.3c-4.2,0.8-8.7,0.8-12.4-1.6c-0.4-0.3-0.8,0.3-0.5,0.6c3.6,3.3,8.9,4.7,13.2,2
			C90.5,132,90.2,131.2,89.6,131.3z"/>
		<path fill="#D7E2F2" d="M96.6,29.1c-5.2-7.6-16.7-9.1-25.1-10C71,19,70.7,19.9,71.3,20c5.3,0.7,10.7,1.9,15.6,4.1
			c3.3,1.5,6.1,3.8,9.2,5.6C96.5,29.8,96.8,29.4,96.6,29.1z"/>
		<path fill="#D7E2F2" d="M101.5,29.1c-4.3-5.2-11-8.6-17.2-10.9C83.7,18,83.5,18.8,84,19c6.5,2.6,11.3,6.6,16.9,10.6
			C101.2,29.9,101.7,29.5,101.5,29.1z"/>
		<path fill="#D7E2F2" d="M107.5,30.3c-5-7.1-14.8-11.4-22.8-14.2c-0.6-0.2-0.9,0.8-0.3,1c4.2,1.5,8.2,3.3,11.9,5.7
			c3.8,2.4,7,5.6,10.7,8C107.4,31,107.7,30.6,107.5,30.3z"/>
		<path fill="#D7E2F2" d="M112.9,28.3c-5.1-7.8-15.6-11.4-24.4-12.6c-0.7-0.1-1,0.9-0.3,1c9.8,1.5,16.3,6.6,24.2,12
			C112.7,28.9,113.1,28.5,112.9,28.3z"/>
		<path fill="#D7E2F2" d="M117.7,28.3c-0.7-2.9-5.8-5.5-8.1-7c-4-2.6-8.3-4.7-12.7-6.4c0.8,0.2,1.5,0.5,2.3,0.7
			c0.5,0.2,1-0.6,0.5-0.9c-2.9-1.7-6.3-2.2-9.6-2.3c-0.4,0-0.5,0.7,0,0.7c2.1,0.3,4.2,0.9,6.2,1.5c-0.4,0.1-0.6,0.7-0.1,0.9
			c3.5,1.5,6.8,3.3,10,5.3c3.5,2.3,6.8,6.1,10.9,7.2c-0.3-0.1-0.6,0.2-0.5,0.5c0,0.1,0,0.1,0,0.2c0.1,0.3,0.3,0.5,0.6,0.4l0.2,0
			C117.5,28.9,117.8,28.6,117.7,28.3z"/>
		<path fill="#D7E2F2" d="M133.6,27.4c-1.7-0.1-3.5,0.8-5,1.5c-0.6,0.3-1.2,0.6-1.8,1c-1.6-4.1-5.7-7.4-9.9-10.1
			c-2.5-4.1-7.1-6.5-11.6-7.8c-0.6-0.2-1,0.7-0.4,0.9c2.9,0.9,5.3,2.5,7.4,4.3c-0.5-0.3-0.9-0.5-1.4-0.7c-0.7-0.4-1.1,0.7-0.4,1.1
			c3.6,1.9,6.8,4.2,9.7,7c1.9,1.9,3.5,4.2,5.7,5.9c-0.9,0.6-1.8,1.3-2.6,2.1c-0.4,0.4,0.1,0.9,0.5,0.6c1.5-1.2,3.2-2.4,4.9-3.3
			c1.6-0.8,3.4-1.2,4.9-2.1C133.8,27.6,133.8,27.5,133.6,27.4z"/>
		<path fill="#D7E2F2" d="M109.9,16.4c-0.8-0.7-1.8-1.3-2.7-1.9c-2-1.5-4.4-2.4-6.7-3.2c-0.4-0.1-0.7,0.1-0.7,0.5
			c-0.8,0-1.6,0.4-2.2,1.1c0,0,0,0.1,0.1,0.1l3.6,0c0.6,0.2,1.2,0.5,1.8,0.7c0.1,0.1,0.2,0.1,0.4,0.2c0.7,0.3,1.3,0.7,2,1.1
			c1.4,0.8,2.8,1.5,4.2,2.2C110,17.3,110.3,16.7,109.9,16.4z"/>
		<path fill="#D7E2F2" d="M87.9,14.9c-1.7-0.7-3.5-1.4-5.3-2.1c-0.7-0.3-1.2,0.8-0.5,1.1c1.8,0.7,3.6,1.4,5.4,2
			C88.2,16.1,88.5,15.1,87.9,14.9z"/>
		<path fill="#D7E2F2" d="M84,17.2c-1.9-1.7-4.9-2-7.3-2.2c-0.7-0.1-0.9,1.1-0.1,1.2c2.5,0.3,4.7,1.5,7.2,1.8
			C84.2,18,84.3,17.5,84,17.2z"/>
		<path fill="#D7E2F2" d="M82.4,18.7c-2.8-1-5.5-1.5-8.5-1.8c-0.6-0.1-0.7,0.9-0.1,1c2.8,0.4,5.6,1,8.3,1.5
			C82.6,19.6,82.8,18.9,82.4,18.7z"/>
		<path fill="#D7E2F2" d="M122,21.6c-3.1-4.1-7.5-7.2-11.9-9.8c-0.6-0.3-1.1,0.6-0.6,1c4.3,2.8,7.9,6.2,11.7,9.5
			C121.7,22.7,122.4,22.2,122,21.6z"/>
		<path fill="#D7E2F2" d="M131,26c-0.5-0.8-1-1.5-1.6-2.2c-0.9-2.1-2.1-4.2-3.4-6.1c-1.2-1.8-2.6-3.2-4.8-3.5
			c-0.5-0.1-0.6,0.7-0.1,0.8c2,0.4,2.9,2.6,3.8,4.2c-0.3-0.3-0.7-0.6-1-0.9c-2.5-2.2-4.9-4.4-8.2-5.1c-0.6-0.1-0.7,0.8-0.2,0.9
			c6.1,1.8,10,8.6,14.7,12.6C130.6,27,131.2,26.4,131,26z"/>
		<path fill="#D7E2F2" d="M136.8,27.3c-0.2-0.4-0.3-0.7-0.5-1.1c0-0.1,0.1-0.1,0.1-0.2c0-4.3-2.9-8-6.6-9.9
			c-0.4-0.2-0.7,0.4-0.4,0.7c2.5,1.7,4.1,4.1,5.3,6.7c-1.5-2.2-3.5-4.1-5.5-5.8c-0.4-0.4-1,0.3-0.6,0.7c3,2.8,5,6.1,7.4,9.4
			C136.3,28.2,137,27.8,136.8,27.3z"/>
		<path fill="#D7E2F2" d="M140.7,25.7c-1.4,1-2.7,2-3.8,3.3c0-0.2-0.2-0.4-0.4-0.3c-5.1,1.9-10.2,4.2-14.5,7.4
			c-0.4,0.3,0,0.8,0.4,0.6c4.7-2.8,9.3-5.5,14.3-7.5c-0.3,0.4-0.6,0.7-0.8,1.1c-0.2,0.3,0.3,0.7,0.5,0.4c1.6-1.5,3-3.2,4.7-4.7
			C141.4,25.9,141,25.4,140.7,25.7z"/>
		<path fill="#D7E2F2" d="M142.8,28.4c-1,0.7-2,1.3-2.9,2.1c-0.1-0.3-0.3-0.5-0.6-0.3c-5.9,2.8-12.5,5.9-17.5,10.3
			c-0.5,0.4,0,1.1,0.5,0.8c5.7-3.2,10.9-7,16.7-9.9c-0.7,0.7-1.4,1.5-2,2.3c-0.2,0.3,0.2,0.6,0.5,0.4c1.9-1.7,3.6-3.6,5.7-5.1
			C143.6,28.7,143.2,28.2,142.8,28.4z"/>
		<path fill="#D7E2F2" d="M144.9,30.1c-1.2,1.1-2.5,2.2-3.7,3.3c-0.1,0.1-0.1,0.1-0.2,0.2c-0.1-0.2-0.4-0.3-0.7-0.1
			c-3.3,2-6.7,4-10,6c-3.3,1.9-7,3.6-10,6.1c-0.4,0.3-0.1,1,0.4,0.8c6.6-2.3,12.8-7,18.6-11c-0.4,0.5-0.8,1-1,1.5
			c-0.1,0.3,0.2,0.5,0.4,0.3c1.2-0.8,2.1-2.1,3-3.1c1.1-1.2,2.3-2.4,3.5-3.5C145.5,30.3,145.2,29.8,144.9,30.1z"/>
		<path fill="#D7E2F2" d="M138.5,38.7c-2.8,1.8-5.7,3.5-8.5,5.4c-2.8,1.9-6.1,3.6-8.5,5.9c-0.3,0.3,0.1,0.7,0.4,0.6
			c3.1-1.2,6-3.4,8.8-5.3c2.9-1.9,5.7-3.9,8.5-5.9C139.6,39.1,139,38.4,138.5,38.7z"/>
		<path fill="#D7E2F2" d="M141.4,41.2c-3.3,2-6.6,4.1-9.8,6.3c-1.5,1.1-3.1,2.2-4.6,3.3c-0.9,0.7-2.1,1.3-2.6,2.4
			c-0.1,0.3,0,0.7,0.3,0.8c0.1,0,0.1,0,0.2,0.1c0.3,0.1,0.5,0,0.6-0.3c0,0,0-0.1,0-0.1c0.5-0.3,0.9-0.6,1.3-0.9
			c0.6-0.4,1.2-0.9,1.8-1.3c1.5-1.1,3-2.2,4.4-3.2c2.9-2.1,5.8-4.1,8.7-6C142.5,41.8,142,40.9,141.4,41.2z"/>
		<path fill="#D7E2F2" d="M142.4,45c-2.8,1.7-5.6,3.5-8.3,5.4c-2.4,1.6-5.4,3.3-6.9,5.8c-0.2,0.4,0.2,0.7,0.5,0.6
			c2.4-0.9,4.4-3,6.4-4.5c2.9-2.2,5.8-4.4,8.9-6.4C143.4,45.6,142.9,44.7,142.4,45z"/>
		<path fill="#D7E2F2" d="M147.6,40c-2.1,2.3-4.5,5.1-5.3,8.2c-0.1,0.2,0.1,0.3,0.3,0.3c-4.6,3.8-9.9,7.2-14.1,11.5
			c-0.3,0.4,0.1,0.9,0.5,0.7c5.6-2.9,10.4-7.8,15.1-12c0.5-0.4-0.2-1.2-0.7-0.8c-0.2,0.2-0.4,0.3-0.6,0.5c1.8-2.6,3.2-5.5,5.2-8.1
			C148.1,40.1,147.8,39.9,147.6,40z"/>
		<path fill="#D7E2F2" d="M144.3,56.2c1.5-2.1,2.9-4.4,4.1-6.6c0-0.1-0.1-0.2-0.1-0.1c-0.7,0.8-1.4,1.6-2.1,2.4
			c0.1-0.4-0.3-0.8-0.7-0.6c-0.6,0.3-1.1,0.7-1.7,1c1.8-2.6,3.2-5.5,4.8-8.2c0.2-0.3-0.3-0.5-0.5-0.2c-1.9,3-4.1,6-5.6,9.2
			c-1.5,0.9-3,1.9-4.4,2.9c-2.3,1.7-5,3.4-6.8,5.6c-0.3,0.4,0.2,1,0.6,0.7c2.5-1.5,4.6-3.6,6.9-5.3c2.3-1.7,4.7-3.3,7.1-4.9
			c-1.1,1.4-2.2,2.8-3.1,4.3c-4.1,1.7-8.9,4.4-11.2,8.3c-0.2,0.4,0.2,1,0.7,0.7c2.1-1.3,3.8-3.2,5.8-4.7c1.2-0.9,2.4-1.7,3.7-2.5
			c0,0.3,0.3,0.5,0.6,0.3c0.3-0.4,0.6-0.7,0.9-1.1c0.3-0.2,0.6-0.4,1-0.6C144.5,56.7,144.5,56.4,144.3,56.2z"/>
		<path fill="#D7E2F2" d="M148.3,55.3c0.4-0.4-0.2-1-0.6-0.6c-2.1,1.7-4.5,3.9-5.9,6.4c-1,0.5-1.9,1.1-2.8,1.7
			c-1.7,1.1-3.9,2.2-5.1,3.9c-0.3,0.4,0.1,0.9,0.5,0.7c2-0.7,3.9-2.4,5.6-3.6c0.3-0.2,0.6-0.5,0.9-0.7c0,0.1-0.1,0.3-0.1,0.4
			c-0.1,0.3,0.3,0.4,0.5,0.2c0.6-0.7,1.1-1.4,1.5-2.1c0.8-0.6,1.6-1.2,2.5-1.8c0.4-0.2,0-0.8-0.3-0.6c-0.3,0.2-0.6,0.3-0.9,0.5
			c0.1-0.2,0.2-0.3,0.4-0.5C145.7,57.9,146.9,56.5,148.3,55.3z"/>
		<path fill="#D7E2F2" d="M147.6,59.3c-2,1.8-4.6,4-6.1,6.4c-1.1,0.4-2.3,0.7-3.6,0.9c-0.5,0.1-0.3,0.9,0.2,0.9
			c0.9,0,1.8-0.1,2.7-0.5c-0.1,0.2-0.2,0.4-0.3,0.6c-0.2,0.5,0.4,0.9,0.8,0.5c1.2-1.2,2.1-2.7,3.1-4.1c1.1-1.5,2.3-2.9,3.7-4.2
			C148.5,59.6,148,59,147.6,59.3z"/>
		<path fill="#D7E2F2" d="M146,32.6c-2.4,2.5-4.9,5.1-7,7.9c-0.2,0.3,0,0.8,0.4,0.8c0.5,0,0.9-0.2,1-0.7c0,0,0-0.1,0-0.1
			c2.2-2.3,4.2-4.9,6.1-7.5C146.7,32.7,146.2,32.4,146,32.6z"/>
		<path fill="#D7E2F2" d="M147,36.1c-1.9,2.4-4.5,4.7-5.8,7.5c-0.2,0.3,0.2,0.7,0.5,0.4c2.3-2,3.9-5.1,5.7-7.5
			C147.6,36.2,147.2,35.8,147,36.1z"/>
		<path fill="#D7E2F2" d="M147.5,63.9c-1.3,0.9-2.5,1.8-3.6,2.9c-0.9,0.9-2.1,2-2.3,3.3c-0.1,0.3,0.3,0.5,0.5,0.4
			c1.2-0.6,2.2-2.1,3.1-3.1c0.9-1,1.9-1.9,2.9-2.8C148.5,64.2,148,63.5,147.5,63.9z"/>
		<path fill="#D7E2F2" d="M140.4,72.9c-2.5,0.3-6.1,1.6-7.7,3.7c-0.2,0.2,0,0.5,0.3,0.4c1.2-0.3,2.4-1.1,3.5-1.6
			c1.3-0.6,2.7-1.2,4-1.8C141,73.5,140.9,72.9,140.4,72.9z"/>
		<path fill="#D7E2F2" d="M139.9,74.9c-2.5,0.8-6.2,2.4-7.2,5c-0.1,0.4,0.2,0.6,0.5,0.5c1.1-0.5,1.9-1.5,2.9-2.2
			c1.3-1,2.7-1.8,4.1-2.4C140.7,75.5,140.4,74.7,139.9,74.9z"/>
		<path fill="#D7E2F2" d="M138.4,78.2c-1.3,0.6-2.6,1.5-3.6,2.5c-0.9,0.8-2,1.8-2.3,3c-0.1,0.3,0.2,0.5,0.5,0.4
			c1.1-0.5,2-1.7,2.8-2.5c1-1,2-1.9,2.9-2.8C139.1,78.5,138.7,78,138.4,78.2z"/>
		<path fill="#D7E2F2" d="M137.9,81.5c-1.5,0.8-3,2-3.6,3.7c-0.1,0.4,0.3,0.7,0.6,0.4c1-1.3,2-2.6,3.4-3.6
			C138.6,81.8,138.2,81.3,137.9,81.5z"/>
		<path fill="#D7E2F2" d="M138.1,85.5c-1.2,0.4-2,1.3-2.3,2.5c-0.1,0.3,0.4,0.4,0.6,0.1c0.4-0.8,1.2-1.6,2-1.9
			C138.9,86,138.6,85.3,138.1,85.5z"/>
		<path fill="#D7E2F2" d="M139.4,24.7c-0.7-2.1-1.8-4-2.8-5.9c-0.2-0.5-1-0.1-0.8,0.4c0.9,2,1.6,4.1,2.7,6
			C138.8,25.6,139.6,25.2,139.4,24.7z"/>
	</g>
	<path fill="#D7E2F2" d="M222.7,210.6c-2-8.3-8.3-16.5-16.3-20.3c0.4-0.5,0.3-1.5-0.4-1.7c-9.3-3.2-18.8-5.6-28.2-8.7
		c-8.5-2.8-16.7-7.7-25.3-9.9c0.3-1.5,0.4-3-0.2-4.1c-1.6-3.3-8-6.4-11.1-7.7c0,0-0.1,0,0,0.1c2,2.8,6.5,4.9,7.9,7.8
		c1.8,3.8-1.5,11.7-2.5,15.5c-1.8,6.8-4.2,13.4-6.1,20.1c-0.5-2-1.1-3.9-1.7-5.9c-0.7-2.1-1.4-7.2-4.7-6.6c-2.3,0.5-4.3,4-5.4,5.8
		c-0.4,0.6-0.8,1.3-1.1,1.9c0,0-0.1,0-0.1,0.1c-0.4,0.5-0.8,1-1.2,1.4c0.3-0.4,0.5-0.8,0.8-1.3c0.1-0.1-0.1-0.3-0.2-0.2
		c-7.2,7.2-11.5,17-12.1,27.1c-2.4-7.3-4-14.6-4.7-22.6c0-0.2-0.3-0.2-0.3,0c-0.1,0.7-0.2,1.4-0.2,2.1c-1.7-3.1-4.1-5.7-6.3-8.4
		c-1.6-2-3.7-5.2-6.4-5.6c-4.2-0.6-6.7,4.6-6.9,8c0,0.3,0.4,0.5,0.5,0.2c0.6-1.7,1.4-3.4,2.7-4.8c2.4-2.5,5-0.7,6.8,1.5
		c2.9,3.5,5.5,7.3,9,10.2c0.2,0.1,0.4,0.1,0.5,0c-0.6,9.4,1.6,19.3,6.7,27.1c0.4,0.6,1.3,0,1-0.6c-0.6-1.8-1.3-3.5-1.8-5.2
		c0.2,0,0.4-0.2,0.5-0.5c0-0.1,0-0.2,0-0.3c0,0.4,0,0.8,0,1.2c0,0.9,1.3,1.1,1.4,0.1c1.3-9.6,4-18.8,9.2-27.1
		c-0.3,1-0.4,2.1-0.3,3.2c0,0.2,0.4,0.3,0.4,0c0.5-2.3,1.3-4.2,2.7-6.2c1-1.5,3.1-4.7,4.9-4.4c1.6,0.3,1.5,1.9,1.9,3.3
		c0.4,1.2,0.8,2.4,1.2,3.6c0.7,1.9,1.4,3.8,2.3,5.7c-0.1,0.5-0.3,1-0.4,1.5c-0.2,0.7,0.9,1.1,1.2,0.5c0,0,0,0,0,0
		c0.2,0.5,1.2,0.5,1.1-0.2c-0.1-0.5-0.2-0.9-0.3-1.4c4.8-9.2,7.6-19.9,9.9-29.9c0.3-1.2,0.9-2.9,1.3-4.6c5.6,6.5,15.4,9.9,23.2,12.7
		c7.4,2.7,15,4.7,22.7,6.2c10.3,4.9,18.1,10.8,22.8,21.8C221.6,212,223,211.5,222.7,210.6z"/>
	<path fill="#D7E2F2" d="M64.3,203.5c-4.4,9.6-6.7,19.5-6.6,30.1c0,0.3,0.6,0.3,0.6,0c0.3-10.3,2.4-20.3,6.5-29.8
		C65,203.4,64.5,203.2,64.3,203.5z"/>
	<path fill="#D7E2F2" d="M196.9,192c-4.8,1.8-6.8,5.9-8.4,10.6c-3.1,8.9-4.6,18.3-5.3,27.7c0,0.7,0.9,0.7,1,0.1
		c1-6.4,2.2-12.7,3.7-18.9c1.5-6.5,2.6-15.7,9.2-19C197.3,192.4,197.1,191.9,196.9,192z"/>
</g>
</svg>
