<?xml version="1.0" encoding="utf-8"?>
<!-- Generator: Adobe Illustrator 17.0.0, SVG Export Plug-In . SVG Version: 6.00 Build 0)  -->
<!DOCTYPE svg PUBLIC "-//W3C//DTD SVG 1.1//EN" "http://www.w3.org/Graphics/SVG/1.1/DTD/svg11.dtd">
<svg version="1.1" id="Layer_1" xmlns="http://www.w3.org/2000/svg" xmlns:xlink="http://www.w3.org/1999/xlink" x="0px" y="0px"
	 width="140.982px" height="176.021px" viewBox="178.82 273.17 140.982 176.021"
	 enable-background="new 178.82 273.17 140.982 176.021" xml:space="preserve">
<title>TeuxTech</title>
<path fill="#D7E2F2" stroke="#D7E2F2" stroke-miterlimit="10" d="M236.315,302.221c-0.045-0.066-0.133-0.081-0.196-0.034
	c-0.049,0.036-0.07,0.1-0.053,0.16c1.64,3.715,3.039,7.541,4.187,11.451c0.089,0.292,0.536,0.206,0.453-0.1
	C239.592,309.739,238.121,305.896,236.315,302.221z"/>
<path fill="#D7E2F2" stroke="#D7E2F2" stroke-miterlimit="10" d="M259.448,310.837c-2.499-3.687-5.326-7.121-8.445-10.257
	c-0.051-0.053-0.134,0-0.083,0.073c2.955,3.295,5.693,6.792,8.196,10.469C259.282,311.355,259.601,311.076,259.448,310.837z"/>
<path fill="#D7E2F2" stroke="#D7E2F2" stroke-miterlimit="10" d="M243.796,338.617c-4.124-1.99-8.783-1.367-12.537,1.221
	c-0.078,0.063-0.092,0.18-0.031,0.261c0.053,0.07,0.146,0.092,0.223,0.051c2.378-1.546,5.198-2.184,7.979-1.805
	c-0.134,0.086-0.239,0.214-0.3,0.365c-0.089,0.226-0.172,0.471-0.243,0.73l-0.038,0.086c0,0,0,0.06,0,0.086
	c-0.284,0.588-0.395,1.251-0.319,1.904c-0.189,1.348,0.104,2.722,0.823,3.861c0.362,0.551,1.026,0.795,1.64,0.604
	c0.31,0.054,0.621-0.093,0.785-0.372c0.987-1.876,0.921-4.16-0.172-5.971l-0.064-0.139c-0.12-0.297-0.259-0.585-0.415-0.862
	c0.798,0.199,1.579,0.466,2.336,0.796c0.246,0.024,0.464-0.163,0.487-0.418C243.965,338.864,243.908,338.716,243.796,338.617z"/>
<path fill="#D7E2F2" stroke="#D7E2F2" stroke-miterlimit="10" d="M263.737,355.588c-3.568,4.332-7.953,3.317-12.766,1.692
	c-0.23-0.08-0.428,0.285-0.198,0.411c4.175,2.329,11.298,4.146,14.043-1.327c0.131-0.364-0.047-0.769-0.396-0.905
	C264.187,355.368,263.925,355.418,263.737,355.588z"/>
<path fill="#D7E2F2" stroke="#D7E2F2" stroke-miterlimit="10" d="M262.723,372.479c-1.966,1.738-5.19,1.625-7.596,1.99
	c-0.098,0.008-0.172,0.097-0.165,0.199c0.006,0.079,0.059,0.145,0.133,0.166c2.4,0.511,6.683,0.663,8.471-1.466
	c0.152-0.331,0.018-0.727-0.3-0.885C263.094,372.398,262.895,372.397,262.723,372.479z"/>
<path fill="#D7E2F2" stroke="#D7E2F2" stroke-miterlimit="10" d="M220.913,333.018c-1.168,2.315-2.317,4.644-3.319,7.066
	c-0.172,0.418,0.504,0.77,0.702,0.358c1.111-2.355,2.055-4.816,2.987-7.258c0.044-0.106-0.003-0.23-0.105-0.275
	C221.075,332.863,220.957,332.912,220.913,333.018L220.913,333.018z"/>
<path fill="#D7E2F2" d="M240.886,373.872c0.099,1.533,0.293,3.058,0.581,4.564c0.07,0.358,0.6,0.318,0.555-0.06
	c-0.172-1.367-0.306-2.727-0.428-4.08L240.886,373.872z"/>
<path fill="#D7E2F2" d="M241.977,374.536c0,1.181,0,2.362,0,3.549c0,0.332,0.517,0.332,0.492,0c-0.07-1.108-0.089-2.216-0.102-3.317
	L241.977,374.536z"/>
<path fill="#D7E2F2" d="M244.403,375.823l-0.415-0.206c0.109,1.526,0.249,3.045,0.466,4.564c0.033,0.161,0.185,0.265,0.34,0.231
	c0.137-0.03,0.233-0.158,0.228-0.304c-0.198-1.174-0.351-2.349-0.485-3.523C244.478,376.334,244.433,376.079,244.403,375.823z"/>
<path fill="#D7E2F2" d="M246.726,380.586c-0.246-0.277-0.478-0.567-0.696-0.869c0.166,0.909,0.37,1.811,0.638,2.707
	c0.026,0.13,0.149,0.213,0.274,0.186c0.125-0.027,0.205-0.155,0.179-0.285C246.977,381.74,246.845,381.161,246.726,380.586z"/>
<path fill="#D7E2F2" d="M252.031,383.459c-0.201-0.005-0.401-0.023-0.6-0.053c0.264,0.958,0.575,1.901,0.932,2.826
	c0.051,0.141,0.201,0.212,0.337,0.16c0.126-0.049,0.196-0.19,0.161-0.326C252.571,385.195,252.294,384.326,252.031,383.459z"/>
<path fill="#D7E2F2" d="M253.218,383.306c-0.162,0.043-0.326,0.077-0.492,0.1c0.255,0.942,0.523,1.878,0.836,2.8
	c0.039,0.141,0.18,0.223,0.316,0.182c0.136-0.04,0.214-0.187,0.176-0.328l0,0C253.76,385.144,253.482,384.226,253.218,383.306z"/>
<path fill="#D7E2F2" d="M254.565,382.629l-0.109,0.093l-0.07,0.04c0.249,1.44,0.504,2.873,0.811,4.299
	c0.07,0.338,0.543,0.179,0.492-0.146c-0.223-1.406-0.498-2.813-0.785-4.213C254.787,382.695,254.674,382.671,254.565,382.629z"/>
<path fill="#D7E2F2" d="M255.778,382.397c-0.035,0.026-0.071,0.051-0.109,0.073c0.198,1.579,0.409,3.158,0.638,4.73
	c0.029,0.166,0.183,0.275,0.342,0.245c0.15-0.029,0.254-0.173,0.239-0.331c-0.223-1.692-0.485-3.384-0.76-5.069
	C256.02,382.158,255.905,382.278,255.778,382.397z"/>
<path fill="#D7E2F2" d="M263.84,385.502c-0.798-3.158-1.551-6.323-2.298-9.494c-0.038-0.159-0.281-0.133-0.243,0
	c0.689,3.191,1.372,6.389,2.011,9.593c-0.003,0.158,0.118,0.287,0.27,0.29c0.152,0.003,0.277-0.123,0.279-0.28
	C263.859,385.574,263.853,385.537,263.84,385.502z"/>
<path fill="#D7E2F2" d="M263.214,379.339L263.214,379.339h-0.038c0.085,1.562,0.368,3.106,0.843,4.591
	c0.121,0.358,0.638,0.139,0.581-0.206c-0.21-1.342-0.491-2.671-0.843-3.981C263.568,379.62,263.387,379.485,263.214,379.339z"/>
<path fill="#D7E2F2" d="M265.135,380.307c-0.102,0-0.204-0.06-0.306-0.093c0.144,1.17,0.368,2.327,0.67,3.463
	c0.065,0.147,0.231,0.211,0.372,0.144c0.101-0.048,0.166-0.154,0.164-0.27c-0.217-1.055-0.44-2.09-0.638-3.131L265.135,380.307z"/>
<path fill="#D7E2F2" d="M266.469,380.865l-0.211-0.073c0.145,1.085,0.38,2.155,0.702,3.198c0.052,0.129,0.194,0.189,0.317,0.136
	c0.096-0.041,0.155-0.141,0.149-0.249c-0.172-0.995-0.396-1.99-0.638-2.952C266.68,380.92,266.573,380.9,266.469,380.865z"/>
<path fill="#D7E2F2" d="M268.148,379.843l-0.23,0.153c0.045,1.088,0.115,2.176,0.249,3.244c0.011,0.132,0.122,0.23,0.249,0.219
	c0.127-0.011,0.221-0.127,0.211-0.259l0,0c0-1.181-0.051-2.375-0.134-3.563C268.404,379.737,268.289,379.843,268.148,379.843z"/>
<path fill="#D7E2F2" d="M269.501,378.934c0.077,0.995,0.166,1.99,0.287,2.985c0.051,0.405,0.677,0.285,0.606-0.126
	c-0.185-1.095-0.332-2.183-0.453-3.277C269.801,378.662,269.655,378.801,269.501,378.934z"/>
<path fill="#D7E2F2" d="M273.051,376.639c-0.128-0.827-0.253-1.654-0.377-2.481l-0.185,0.192c-0.041,0.036-0.083,0.069-0.128,0.1
	c-0.057,0.186-0.115,0.378-0.185,0.557l0.051,0.358c-0.063-0.008-0.12,0.039-0.128,0.104c-0.001,0.009-0.001,0.019,0,0.028
	c0.076,1.008,0.236,2.007,0.479,2.985c0.064,0.252,0.447,0.159,0.377-0.08c-0.14-0.458-0.262-0.916-0.357-1.38
	c0.18,0.064,0.376-0.036,0.438-0.223C273.052,376.748,273.057,376.693,273.051,376.639z"/>
<path fill="#D7E2F2" d="M273.529,373.262v0.053l0,0l-0.191,0.199c-0.014,0.908,0.041,1.815,0.166,2.713
	c0.009,0.128,0.116,0.224,0.24,0.214c0.123-0.01,0.215-0.121,0.206-0.249c-0.001-0.02-0.005-0.039-0.012-0.058
	c-0.146-0.666-0.246-1.342-0.3-2.023c0.065,0.151,0.235,0.218,0.379,0.151c0.109-0.051,0.176-0.166,0.169-0.29
	c0-0.444-0.045-0.896-0.077-1.327C273.893,372.824,273.721,373.05,273.529,373.262z"/>
<path fill="#D7E2F2" d="M274.531,372.094c0.069,0.909,0.201,1.811,0.396,2.7c0.025,0.099,0.123,0.158,0.219,0.132
	c0.082-0.023,0.138-0.103,0.132-0.191c-0.166-1.022-0.319-2.03-0.447-3.045C274.704,371.829,274.608,371.968,274.531,372.094z"/>
<path fill="#D7E2F2" d="M275.317,371.013c0.14,0.783,0.268,1.572,0.409,2.368c0,0.092,0.071,0.166,0.16,0.166s0.16-0.074,0.16-0.166
	c-0.097-0.919-0.253-1.83-0.466-2.727C275.483,370.747,275.4,370.88,275.317,371.013z"/>
<path fill="#D7E2F2" stroke="#D7E2F2" stroke-miterlimit="10" d="M253.856,428.977c0.025-0.09-0.025-0.183-0.112-0.209
	c-0.086-0.026-0.176,0.026-0.201,0.116l0,0l-0.134,0.418c-0.146-0.053-0.307,0.027-0.358,0.179c-0.002,0.007-0.004,0.013-0.006,0.02
	c-0.564,1.775-1.04,3.58-1.423,5.407c-0.479,1.519-0.951,3.045-1.398,4.571c-1.197-1.301-2.254-2.734-3.153-4.272
	c-0.053-0.091-0.167-0.119-0.255-0.063c-0.075,0.048-0.107,0.143-0.077,0.229c0.775,2.109,2.064,3.972,3.741,5.407
	c0.049,0.043,0.109,0.071,0.172,0.08l0,0c0.009,0.095,0.091,0.164,0.182,0.154c0.061-0.007,0.114-0.048,0.137-0.107
	c0-0.1,0.045-0.192,0.064-0.292c0.009-0.046,0.009-0.093,0-0.139c0.709-3.483,1.526-6.886,2.445-10.316L253.856,428.977z"/>
<path fill="#D7E2F2" d="M315.384,431.591c-0.313-2.043-0.3-4.299-0.67-6.303c-0.158-0.778-0.384-1.54-0.677-2.276
	c0.01-0.048,0.01-0.098,0-0.146c-1.017-5.956-3.802-11.431-7.966-15.657c-0.554-1.003-1.268-1.901-2.113-2.654
	c-1.532-1.274-3.619-1.738-5.394-2.468c-2.568-1.08-5.065-2.335-7.475-3.755c0.162-0.089,0.224-0.297,0.139-0.466
	c-0.031-0.062-0.08-0.112-0.139-0.144c-3.614-1.854-7.107-3.953-10.456-6.283c-1.277-2.999-3.07-5.473-6.211-6.953h-0.083
	c0.332-2.408,0.638-4.817,0.849-7.231c4.813-8.127,7.456-17.588,8.981-27.015c0.869,1.327,1.824,2.591,2.86,3.782h0.038l0,0
	c-0.038,0.252,0.274,0.299,0.383,0.113l0,0c0,0.073,0,0.139,0,0.212c0,0.179,0.23,0.259,0.274,0.073
	c0.841-3.986,1.305-8.048,1.385-12.128c0.111-0.042,0.192-0.144,0.211-0.265c2.777-13.269,1.015-27.353-8.522-37.245
	c1.462-0.159,2.923-0.279,4.392-0.378c2.894,3.509,6.642,6.147,10.851,7.636c0.159,0.006,0.292-0.122,0.298-0.287
	c0.004-0.094-0.036-0.185-0.107-0.244c-3.925-1.757-7.554-4.156-10.749-7.105l1.794-0.1c2.675,1.99,5.196,4.093,7.762,6.23
	c0.06,0.048,0.135,0.074,0.211,0.073c1.435,1.196,2.81,2.469,4.117,3.815c-3.836-0.831-7.402-2.675-10.354-5.354
	c-0.173-0.162-0.439-0.147-0.595,0.033c-0.035,0.041-0.063,0.088-0.082,0.14c-0.117,0.001-0.233,0.021-0.345,0.06
	c-0.063,0.04-0.084,0.125-0.046,0.191c0.024,0.042,0.069,0.068,0.116,0.068c0.089-0.016,0.179-0.016,0.268,0
	c0.022,0.057,0.055,0.108,0.096,0.153c0.23,0.245,0.485,0.458,0.728,0.663l0,0c1.763,2.419,3.16,5.104,4.143,7.961
	c-1.22-2.621-2.803-5.041-4.698-7.185c-0.185-0.491-0.364-0.989-0.562-1.479c-0.089-0.226-0.44-0.113-0.351,0.119
	c0.089,0.232,0.128,0.365,0.198,0.551c-0.351-0.385-0.702-0.763-1.072-1.141c-0.694-1.575-1.445-3.123-2.253-4.644
	c-0.115-0.219-0.421,0-0.306,0.212c0.638,1.174,1.174,2.362,1.698,3.563c-0.545-0.526-1.104-1.044-1.679-1.552
	c-0.077-0.066-0.185,0.04-0.109,0.113c0.706,0.65,1.385,1.314,2.036,1.99c0.638,1.493,1.213,3.005,1.73,4.525
	c-1.339-2.466-2.927-4.776-4.736-6.893c-0.147-0.172-0.377,0.086-0.236,0.259c2.196,2.644,4.044,5.58,5.496,8.731
	c0.032,0.072,0.102,0.119,0.179,0.119c2.277,7.837,3.143,16.045,2.553,24.209c0,0.438,0.606,0.431,0.638,0
	c0.189-1.814,0.289-3.636,0.3-5.46c0.173,0.099,0.39,0.033,0.486-0.146c0.028-0.053,0.043-0.112,0.044-0.172
	c0.11-7.468-1.133-14.89-3.664-21.88c3.057,3.791,4.98,8.429,5.534,13.342c0.874,8.286-2.336,16.048-5.745,23.286
	c-0.122,0.273-0.007,0.597,0.255,0.723c0.263,0.126,0.574,0.008,0.696-0.265c3.728-6.946,6.383-14.821,5.707-22.882
	c-0.038-0.458-0.109-0.896-0.172-1.327c0.053-0.004,0.103-0.023,0.147-0.053c0.089,0.212,0.179,0.431,0.255,0.663
	c0.281,0.756,0.472,1.579,0.811,2.315c0,0.113,0,0.219-0.045,0.325c-0.03,0.26,0.149,0.496,0.399,0.527s0.478-0.155,0.507-0.415
	c1.04-5.672,0-10.224-3.07-14.416c2.022,0.949,4.177,1.558,6.383,1.805c0.277,0.056,0.545-0.131,0.599-0.419
	c0.033-0.173-0.02-0.352-0.14-0.477c-1.5-1.811-3.492-3.191-5.279-4.644l-7.156-5.918c0.809-0.031,1.619-0.051,2.432-0.06
	c0.255,0.1,0.511,0.199,0.76,0.312c0.25,0.136,0.559,0.035,0.689-0.225c0.039-0.078,0.059-0.165,0.058-0.253
	c-0.217-2.077-1.558-4.073-2.968-5.487c-0.059-0.06-0.128-0.107-0.204-0.139c-0.798-2.11-2.726-3.782-4.87-4.817
	c-1.101-1.042-2.256-2.021-3.46-2.932c0.345,0.232,0.696,0.458,1.066,0.663c0.058,0.035,0.132,0.014,0.166-0.046
	c0.034-0.06,0.013-0.138-0.045-0.172c-3.792-2.594-6.383-6.595-10.213-9.235c-3.938-2.679-8.383-4.45-13.034-5.195
	c-9.575-1.605-20.86-1.26-30.218,2.043c-0.016-0.009-0.035-0.009-0.051,0c-7.794,2.196-13.405,10.509-16.596,17.727
	c-2.669,6.04-3.968,12.635-3.798,19.279c-1.725,4.629-2.301,9.635-1.672,14.556c-0.141,0.959-0.2,1.929-0.179,2.899
	c-0.142,0.061-0.215,0.226-0.166,0.378c1.162,3.981,2.649,9.009,5.668,12.048c0.011,0.015,0.024,0.028,0.038,0.04
	c0.179,0.179,0.345,0.378,0.536,0.544c0.108,0.101,0.273,0.092,0.37-0.02c0.097-0.112,0.088-0.284-0.019-0.385l0,0
	c-0.153-0.146-0.281-0.318-0.428-0.478c0.14-0.345,0.294-0.663,0.447-1.028c0.919,3.901,2.841,8.266,5.86,11.073
	c-0.204,0.375-0.299,0.804-0.274,1.234c0.063,0.962,0.622,1.813,1.462,2.223c0.356,0.318,0.777,0.545,1.232,0.663
	c0.471,0.229,0.98,0.362,1.5,0.391c0.33,0.048,0.664-0.041,0.932-0.245c0.102,0,0.204,0,0.313-0.06
	c0.115,0.405,0.23,0.803,0.345,1.207c-0.057,0.531-0.115,1.061-0.153,1.592c0,0.252,0.383,0.358,0.434,0.093
	c0-0.146,0.051-0.299,0.077-0.451c0.121,0.405,0.249,0.803,0.37,1.201c-0.089,0.617-0.179,1.234-0.249,1.858
	c-0.038,0.345,0.472,0.464,0.511,0.113c0.038-0.352,0.07-0.517,0.102-0.783c0.134,0.438,0.268,0.882,0.409,1.327
	c0.022,0.064,0.062,0.12,0.115,0.159c-0.083,0.604-0.172,1.207-0.249,1.811c0.012,0.139,0.13,0.241,0.263,0.228
	c0.09-0.008,0.168-0.068,0.203-0.155c0.102-0.663,0.185-1.327,0.281-1.99l0,0c0.166,0.345,0.345,0.663,0.53,1.002
	c-0.038,0.305-0.077,0.61-0.109,0.916c-0.032,0.305,0.428,0.332,0.46,0l0.038-0.292c0.211,0.338,0.428,0.663,0.638,1.002
	c0,0.332-0.064,0.663-0.077,0.995c0.013,0.098,0.099,0.167,0.194,0.154c0.063-0.009,0.116-0.052,0.138-0.114
	c0-0.192,0.051-0.391,0.077-0.584c1.336,1.744,2.856,3.326,4.532,4.717c0.217,0.962,0.409,1.917,0.581,2.879
	c0.086,0.914,0.234,1.821,0.44,2.713c0.051,0.332,0.109,0.663,0.153,1.002c-4.111,2.074-7.69,5.132-10.443,8.923
	c-0.178,0.242-0.133,0.587,0.099,0.772c0.106,0.085,0.24,0.124,0.373,0.111c-0.051,0.299-0.089,0.59-0.121,0.889h-0.038
	c-0.273,0.072-0.505,0.259-0.638,0.517c-0.095-0.011-0.191,0.015-0.268,0.073c-9,6.495-20.426,9.189-28.827,16.533
	c-0.734-0.252-1.43,0.338-2.043,0.862c-1.36,1.174-2.565,2.53-3.581,4.034c-0.151,0.212-0.107,0.511,0.098,0.668
	c0.061,0.047,0.133,0.077,0.209,0.088c0.5,0.127,0.973,0.352,1.392,0.663c-4.654,8.869-7.417,18.676-8.1,28.753
	c-0.045,0.663,0.938,0.624,1.002,0c1-9.858,3.504-19.488,7.417-28.528c0.496,0.428,0.896,0.962,1.174,1.566
	c0.281,0.597,1.13,0.073,0.855-0.517c-0.371-0.808-0.947-1.496-1.666-1.99c-0.002-0.084-0.069-0.151-0.15-0.149
	c-0.016,0-0.032,0.004-0.048,0.01c-0.346-0.222-0.717-0.4-1.104-0.531c0.846-1.414,1.863-2.71,3.026-3.855l0,0
	c3.617-0.612,7.326-0.095,10.66,1.486c0.396,0.192,0.715-0.431,0.319-0.624c-1.712-0.862-3.554-1.41-5.445-1.619
	c-0.749-0.073-1.502-0.093-2.253-0.06c-0.23,0-0.811,0-1.398,0.053c0.006-0.036-0.009-0.072-0.038-0.093l-0.064-0.033
	c9.243-6.17,19.788-9.653,29.024-15.922l0,0c0.169,0.015,0.317-0.115,0.332-0.29c0-0.001,0-0.001,0-0.002
	c0-0.166,0.038-0.312,0.07-0.458c-0.158,2.096,0.122,4.204,0.823,6.177c0.081,0.231,0.326,0.35,0.548,0.266
	c0.032-0.012,0.062-0.028,0.09-0.047c4.079,7.331,8.471,14.476,13.213,21.356c0,0,0,0,0,0.04c-0.002,0.111,0.074,0.206,0.179,0.226
	c0.198,0.285,0.383,0.577,0.587,0.862c0.204,0.285,0.702-0.1,0.466-0.444l-0.721-1.061c0.198-3.748,1.736-7.072,3.441-10.336
	c1.155-2.223,2.553-6.031,4.717-7.265c0.15-0.086,0.223-0.267,0.179-0.438c0.705,0.499,1.381,1.042,2.023,1.625
	c-2.189,1.115-3.192,4.757-4.072,6.913c-1.423,3.368-2.454,6.9-3.07,10.522c-0.005,0.035-0.005,0.071,0,0.106l0,0
	c-0.046,0.013-0.073,0.062-0.061,0.109c0.012,0.048,0.059,0.076,0.105,0.063h0.032c0.099,0.152,0.297,0.191,0.443,0.088
	c0.054-0.038,0.095-0.092,0.118-0.155c3.102-0.299,5.292,1.599,7.188,3.855c-0.97,0.836-1.136,2.183-1.449,3.403
	c-0.638,2.508-1.187,5.042-1.666,7.59c-0.033,0.199,0.095,0.388,0.286,0.422c0.09,0.016,0.182-0.004,0.257-0.057
	c0.106-0.014,0.194-0.092,0.223-0.199c1.136-3.357,2.087-6.794,3.128-10.19c0.6,0.756,1.181,1.526,1.755,2.242
	c2.413,3.019,4.845,6.024,7.328,8.983c0.032,0.037,0.071,0.066,0.115,0.086c1.277,2.143,2.655,4.259,4.021,6.349
	c0.052,0.055,0.137,0.055,0.19,0.001c0.036-0.037,0.049-0.091,0.034-0.141c-1.175-2.209-2.387-4.418-3.638-6.601
	c0.015-0.102-0.013-0.206-0.077-0.285l-0.377-0.498c-0.747-1.28-1.5-2.561-2.279-3.815c-0.095-0.163-0.299-0.215-0.456-0.117
	c-0.046,0.029-0.085,0.069-0.112,0.117c-1.894-2.653-3.939-5.188-6.121-7.59v-0.06c0.022-0.073-0.017-0.152-0.087-0.175
	c-0.045-0.015-0.094-0.004-0.13,0.029c-0.523-0.551-1.06-1.088-1.609-1.592c-1.851-1.705-4.066-2.747-6.46-2.096
	c0.574-2.461,1.098-4.923,1.87-7.338c0.868-2.707,2.094-8.432,4.755-9.819l0.779,0.663c0.147,0.132,0.368,0.115,0.495-0.037
	c0.057-0.069,0.088-0.157,0.086-0.248c1.174,2.005,2.239,4.075,3.192,6.203c2.936,6.163,5.892,12.313,8.815,18.483
	c0.063,0.144,0.194,0.242,0.345,0.259c1.487,4.027,2.841,8.101,4.194,12.181c0.128,0.385,0.638,0.119,0.549-0.259
	c-1.277-4.067-2.802-8.061-4.398-12.008c0.186-0.12,0.252-0.368,0.153-0.571c-1.523-3.445-3.077-6.875-4.66-10.29
	c3.792,1.791,8.209,3.138,12.09,0.982c0.689-0.385,0.249-1.552-0.472-1.188c-4.028,2.037-7.794,0.969-11.841-0.285
	c-0.306-0.663-0.638-1.327-0.919-1.99c4.104,1.765,9.032,3.138,12.926,0.265c0.234-0.136,0.319-0.443,0.188-0.687
	c-0.13-0.244-0.426-0.331-0.661-0.196l0,0c-4.321,2.342-8.298,1.546-12.703,0.086c-1.519-3.251-3.07-6.486-4.653-9.706
	c-2.745-5.546-7.143-8.14-12.007-11.239c0.175-0.206,0.157-0.52-0.041-0.702c-0.005-0.005-0.011-0.01-0.016-0.014
	c-1.503-1.357-2.925-2.808-4.258-4.345c-0.453-0.531-0.977-1.081-1.411-1.665c0-0.208-0.011-0.414-0.032-0.617
	c0.161,0.074,0.35-0.002,0.421-0.17c0.022-0.051,0.031-0.107,0.026-0.162c-0.153-1.725-0.364-3.45-0.638-5.168l0.804-0.537
	c0.072-0.038,0.101-0.131,0.064-0.206c-0.037-0.075-0.126-0.105-0.198-0.066l0,0c-0.255,0.1-0.498,0.219-0.747,0.325
	c-0.255-1.659-0.568-3.317-0.919-4.943c2.63,2.103,5.464,4.02,8.062,6.024c0.709,0.544,1.392,1.128,2.081,1.718l0.045,0.172
	c0.019,0.097,0.11,0.16,0.203,0.14c0.026-0.005,0.05-0.017,0.071-0.034c2.158,1.858,4.309,3.748,6.932,4.81
	c4.385,1.771,9.179,1.042,13.513-0.537c0.054,0.085,0.16,0.116,0.249,0.073c1.054-0.522,2.073-1.116,3.051-1.778
	c0.136,0.231,0.427,0.304,0.65,0.162c0.036-0.023,0.068-0.05,0.097-0.082c2.189-2.375,4.134-4.981,5.802-7.775
	c-1.685,8.936-3.147,17.913-5.004,26.803c-0.037,0.196,0.086,0.386,0.274,0.425s0.372-0.089,0.409-0.285l0,0
	c0.485-2.242,0.951-4.494,1.398-6.754c0.921,2.642,1.613,5.364,2.068,8.134c0.02,0.192,0.185,0.331,0.37,0.312
	c-0.615,13.426-2.564,26.75-5.815,39.759c-0.109,0.451,0.562,0.584,0.683,0.139c3.453-13.027,5.258-26.466,5.368-39.978
	c0.114-0.077,0.17-0.22,0.14-0.358c-0.038-0.219-0.083-0.431-0.121-0.663c0-0.106,0-0.219,0-0.325l0,0
	c0.336-0.123,0.679-0.222,1.028-0.299c-0.351,1.844-1.506,5.307-0.964,6.986c0.364,1.115-0.038-0.504,1.826,2.236
	c2.815,4.146,4.143,9.952,5.279,14.901c-2.292,5.785-4.468,11.511-7.334,17.05c-0.084,0.229,0.026,0.486,0.247,0.574
	c0.181,0.072,0.387,0.008,0.5-0.156c2.896-5.332,5.214-10.982,6.913-16.845l0.038,0.159c0.058,0.227,0.283,0.362,0.501,0.302
	c0.219-0.06,0.349-0.294,0.29-0.521c-0.836-5.07-2.441-9.97-4.755-14.516c-0.504-0.982-1.149-1.884-1.647-2.853
	c-1.321-2.554-0.798-4.724-0.594-7.517c1.787-0.345,2.987,0.252,3.581,1.818c0.357,0.641,0.7,1.294,1.028,1.957
	c0.6,1.207,1.143,2.441,1.653,3.689c1.085,2.654,1.992,5.347,2.904,8.054c0.087,0.188,0.304,0.268,0.485,0.177
	c0.161-0.081,0.243-0.271,0.191-0.449c-0.083-0.285-0.172-0.571-0.255-0.862c0.261,0.002,0.474-0.215,0.477-0.486
	c0-0.024-0.001-0.047-0.004-0.071c-0.619-8.088-2.105-16.079-4.43-23.824c-0.255-0.829-0.536-1.619-0.843-2.388
	c2.877,2.45,6.043,4.508,9.422,6.124c1.915,1.201,3.894,2.342,5.911,3.397c2.368,1.241,5.234,2.096,7.136,4.027
	c4.066,4.133,6.275,11.723,8.502,17.083c0.287,0.663,1.245,0.166,0.996-0.518c-1.262-3.454-2.709-6.831-4.334-10.117
	c-0.511-1.042-1.04-2.256-1.64-3.45c2.727,3.302,4.729,7.183,5.866,11.371c1.06,8.18,1.621,16.5,2.592,24.739
	c0.016,0.341,0.295,0.604,0.622,0.587c0.328-0.017,0.581-0.306,0.565-0.647l0,0C316.438,440.272,316.081,435.905,315.384,431.591z
	 M291.485,324.977c-0.828-5.202-2.295-10.273-4.366-15.086c0.37,0.405,0.715,0.823,1.06,1.241
	C289.8,315.596,290.91,320.243,291.485,324.977z M296.592,327.133c-0.263-1.303-0.692-2.564-1.277-3.748
	c-0.736-4.267-2.385-8.307-4.826-11.822c0.345,0.265,0.677,0.544,1.034,0.783c0.236,0.285,0.466,0.571,0.683,0.869
	c0.94,1.314,1.715,2.747,2.304,4.266c0.069,0.158,0.247,0.227,0.399,0.156c0.152-0.071,0.219-0.257,0.15-0.415
	c-0.579-1.447-1.336-2.809-2.253-4.054c0.172,0.1,0.332,0.206,0.504,0.299c3.096,4.2,3.945,8.339,3.262,13.667H296.592z
	 M250.658,424.466c-0.638,1.566-1.232,3.165-1.787,4.777c0.319-1.645,0.562-3.795,1.494-5.155L250.658,424.466z M281.515,344.986
	c0.15,0.074,0.329,0.008,0.4-0.148c0.052-0.114,0.033-0.249-0.049-0.343c-6.332-7.543-14.624-12.4-23.49-16.022
	c-2.949-2.289-5.898-4.564-8.739-7.019c-0.199-0.132-0.463-0.072-0.591,0.135c-0.101,0.165-0.087,0.379,0.035,0.528
	c2.562,2.51,5.308,4.808,8.215,6.873c-4.129-0.557-8.148-1.784-11.911-3.636l-0.472-0.378c-0.095-0.077-0.224-0.089-0.332-0.033
	c-2.455-1.295-4.774-2.851-6.919-4.644c-0.044-0.03-0.104-0.018-0.133,0.028c-0.025,0.039-0.02,0.091,0.011,0.125
	c2.087,1.854,4.357,3.473,6.773,4.83c-0.028,0.127,0.014,0.26,0.109,0.345c1.002,0.902,2.087,1.851,3.224,2.76
	c-4.933-1.319-9.581-3.597-13.698-6.714l0.638-0.411l0.045,0.119l0.281-0.206l-0.038-0.099l0.409-0.252v0.06l0.255-0.159
	l-0.032-0.06c0.638-0.418,1.328-0.809,1.992-1.207c0.038,0.08,0.083,0.159,0.121,0.239l0.243-0.093l-0.185-0.252
	c0.485-0.292,0.977-0.571,1.468-0.856c0.057,0.126,0.128,0.252,0.191,0.385c0.077-0.086,0.147-0.179,0.223-0.265
	c-0.057-0.093-0.115-0.173-0.172-0.265l0.938-0.524l0.045,0.073l0.211-0.159v-0.04c0.621-0.349,1.24-0.69,1.858-1.022l0.115,0.139
	l0.332-0.1l-0.115-0.199c1.96-1.055,3.913-2.03,5.821-2.906l0.153-0.066c-0.051,0.016-0.08,0.073-0.064,0.126
	c0.016,0.053,0.07,0.083,0.121,0.066l0,0c4.468-0.531,9.951,3.928,13.507,6.515c3.241,2.385,6.265,5.074,9.032,8.034
	c5.206,5.61,9.516,12.049,12.766,19.074c0.039,0.083,0.112,0.144,0.198,0.166l0.843,2.07c0.038,0.274,0.074,0.546,0.109,0.816
	c-1.264-1.751-2.464-3.642-3.741-5.434V344.986z M260.131,330.835c0.3,0.179,0.638,0.345,0.913,0.517
	c-4.323-0.574-8.549-1.768-12.556-3.549l-1.36-1.075c3.591,1.624,7.406,2.647,11.305,3.032c0.44,0.285,0.881,0.571,1.328,0.843
	c0,0-0.038,0.06-0.064,0.093L260.131,330.835z M232.211,332.076c-0.453-0.133-0.906-0.252-1.353-0.391
	c-0.636-1.62-1.123-3.3-1.455-5.016c0.562,0.504,1.143,0.982,1.73,1.453c0.669,1.705,1.693,3.235,3,4.478
	c-0.504-0.133-1.009-0.259-1.506-0.405c-0.98-1.449-1.802-3.006-2.451-4.644c0-0.08-0.14,0-0.109,0.06
	C230.631,329.172,231.349,330.669,232.211,332.076z M225.553,329.515c0,0.299,0.485,0.212,0.44-0.086
	c-0.091-0.631-0.091-1.273,0-1.904l0.351-0.285c-0.043,0.801-0.087,1.603-0.134,2.408c0,0.245,0.377,0.226,0.37,0
	c0-0.845-0.017-1.69-0.051-2.534l0.44-0.358c-0.177,1.202-0.19,2.423-0.038,3.629c-0.734-0.292-1.475-0.59-2.209-0.922
	c-0.134-0.153-0.268-0.299-0.402-0.458c0.415-0.378,0.843-0.743,1.277-1.108c-0.084,0.54-0.099,1.088-0.045,1.632L225.553,329.515z
	 M224.43,329.84c-0.009,0.773,0.059,1.544,0.204,2.302l-0.179-0.106c-0.177-0.784-0.299-1.58-0.364-2.382L224.43,329.84z
	 M224.608,330.006c0.217,0.259,0.44,0.498,0.638,0.743c-0.039,0.016-0.064,0.056-0.064,0.1c-0.006,0.682,0.159,1.355,0.479,1.951
	c0.044,0.081,0.143,0.109,0.22,0.063s0.105-0.148,0.061-0.229c-0.311-0.514-0.495-1.099-0.536-1.705
	c1.169,1.27,2.486,2.384,3.919,3.317c-0.281-0.086-0.555-0.159-0.836-0.252c-0.638-0.226-1.277-0.464-1.915-0.736l-0.638-0.279
	c-0.297-0.225-0.606-0.433-0.926-0.624c-0.217-0.763-0.351-1.548-0.402-2.342V330.006z M227.864,331.791
	c-0.114-0.039-0.237,0.026-0.274,0.144c-0.003,0.009-0.005,0.019-0.007,0.028c-0.058-0.003-0.11,0.035-0.128,0.093
	c-0.591-0.468-1.158-0.969-1.698-1.499c0.44,0.226,0.9,0.425,1.353,0.63h0.045c1.06,0.484,2.126,0.942,3.192,1.327l-0.843-0.186
	c-0.53-0.139-1.079-0.345-1.64-0.524V331.791z M227.934,330.749l-0.594-0.212c-0.245-1.311-0.288-2.655-0.128-3.981l0.472-0.385
	C227.567,327.702,227.65,329.242,227.934,330.749z M230.296,325.866c-0.466-0.199-0.932-0.398-1.398-0.61h-0.038
	c0.434-0.332,0.881-0.663,1.321-0.975c-0.064,0.532-0.021,1.072,0.128,1.586H230.296z M229.16,326.477
	c-0.041,0.024-0.063,0.071-0.057,0.119c0.187,1.691,0.589,3.348,1.194,4.929c-0.249-0.08-0.498-0.146-0.747-0.232
	c-0.633-1.672-0.962-3.451-0.97-5.248c-0.001-0.066-0.052-0.119-0.116-0.118c-0.063,0.001-0.113,0.053-0.114,0.118
	c-0.118,1.719,0.099,3.445,0.638,5.075l-0.638-0.199c-0.407-1.603-0.58-3.26-0.511-4.916l0.396-0.325
	c0.338,0.279,0.645,0.524,0.932,0.796H229.16z M232.562,326.477c-0.147-0.252-0.294-0.498-0.428-0.743l0.945,0.604
	c0.169,0.31,0.359,0.607,0.568,0.889c-0.377-0.146-0.76-0.279-1.13-0.431c0.091-0.078,0.115-0.212,0.057-0.318H232.562z
	 M239.424,330.258c-0.906-0.08-1.806-0.106-2.63-0.119c-0.088,0-0.173,0.03-0.243,0.086c-0.216,0.033-0.393,0.198-0.447,0.418
	c-1.735-1.106-3.41-2.311-5.017-3.609c0.106-0.028,0.187-0.115,0.211-0.226C233.96,328.095,236.666,329.243,239.424,330.258z
	 M234.094,326.941L234.094,326.941l0.932,0.537c0.089,0.113,0.16,0.239,0.255,0.345c-0.44-0.166-0.881-0.318-1.321-0.484
	c0.128-0.04,0.201-0.181,0.163-0.314c-0.007-0.023-0.016-0.044-0.028-0.064V326.941z M231.604,328.493
	c0.568,0.438,1.149,0.856,1.743,1.267c0.828,1.283,1.847,2.421,3.019,3.37c-0.434-0.099-0.868-0.186-1.277-0.292
	c-0.002-0.031-0.013-0.061-0.032-0.086c-1.386-1.188-2.558-2.624-3.46-4.239L231.604,328.493z M233.902,330.125
	c1.375,0.914,2.803,1.738,4.277,2.468c-0.063,0.102-0.035,0.237,0.063,0.303c0.02,0.013,0.042,0.023,0.065,0.029
	c0.287,0.053,0.581,0.093,0.874,0.133c0.862,0.398,1.73,0.776,2.617,1.121c-1.5-0.232-2.955-0.511-4.398-0.823
	c-1.334-0.854-2.517-1.94-3.498-3.211V330.125z M232.153,325.481c-0.052-0.031-0.118-0.012-0.148,0.042
	c-0.021,0.039-0.019,0.088,0.008,0.124l-0.638-0.325c0.153,0.463,0.379,0.896,0.67,1.28l-0.945-0.385
	c-0.352-0.691-0.52-1.468-0.485-2.249l0.243-0.179l0.045,0.046l0.051-0.086l0,0l0.045-0.033c0.187-0.284,0.473-0.482,0.798-0.551
	l0.211-0.146c0,0.04,0,0.086,0,0.126c0.058,0.006,0.116,0.017,0.172,0.033c0.029-0.059,0.063-0.114,0.102-0.166
	c0-0.053-0.032-0.106-0.045-0.166c0.249-0.172,0.511-0.325,0.766-0.498l0,0c0.247-0.179,0.505-0.34,0.772-0.484l0,0h0.045l0,0
	c4.303,3.777,9.465,6.346,14.994,7.464c1.512,1.158,3.165,2.104,4.915,2.813c-7.586-0.516-14.961-2.807-21.575-6.701
	L232.153,325.481z M286.985,315.291c0.1,0.213,0.181,0.435,0.243,0.663c1.965,5.509,2.785,11.387,2.406,17.249
	c-0.2-1.769-0.466-3.512-0.798-5.228c0.001,0.979-0.087,1.957-0.262,2.919c0.179,1.265,0.33,2.541,0.453,3.828
	c0.018,0.193,0.183,0.335,0.369,0.316c0.043-0.004,0.084-0.017,0.122-0.037c-0.102,1.23-0.243,2.459-0.421,3.689
	c-0.045-1.327-0.14-2.713-0.268-4.067c-0.089-1.108-0.191-2.209-0.338-3.317c0,0.046,0,0.093-0.038,0.139
	c-0.624-4.387-1.693-8.692-3.192-12.844c-0.153-0.411-0.855-0.199-0.721,0.232c0.134,0.431,0.211,0.75,0.313,1.121
	c-2.503-5.577-6.338-10.396-11.139-13.998c-0.068-0.039-0.153-0.013-0.191,0.057c-0.031,0.057-0.02,0.129,0.025,0.175
	c7.758,5.996,12.703,15.133,13.603,25.137c0.011,0.12,0.081,0.226,0.185,0.279c0.516,3.587,0.795,7.207,0.836,10.834
	c-0.103,0.423-0.266,0.828-0.485,1.201c0.098,2.892-0.028,5.787-0.377,8.658l-0.996-2.435c-0.668-14.329-5.877-28.026-14.815-38.957
	c-0.153-0.163-0.403-0.166-0.56-0.007c-0.148,0.15-0.16,0.393-0.028,0.558c8.502,10.634,13.729,23.681,15.001,37.444l-0.14-0.345
	c-2.202-16.015-12.977-29.914-27.333-36.097c-0.134-0.06-0.211,0.166-0.077,0.226c13.507,5.971,22.98,18.417,26.171,33.012
	c-0.157,0.01-0.315,0.01-0.472,0c-3.736-8.011-8.992-15.154-15.454-20.998c-3.486-3.164-7.286-5.933-11.337-8.26
	c-2.604-1.493-5.375-3.357-8.445-2.912c1.145-0.517,2.298-1.015,3.46-1.493l0.038,0.08l0.255-0.133v-0.06l0.638-0.259
	c0.543-0.258,1.102-0.48,1.672-0.663l0,0c0.638-0.245,1.315-0.478,1.972-0.71l0.172,0.325h0.364l0,0l-0.249-0.438
	c0.562-0.199,1.136-0.378,1.704-0.564l0.057,0.139l0.23-0.1l-0.057-0.113c0.511-0.166,1.021-0.345,1.538-0.511v0.053l0.185-0.06
	v-0.053c0.77-0.239,1.543-0.46,2.317-0.663l0.121,0.206l0.351-0.053l-0.153-0.245c1.813-0.517,3.645-0.962,5.483-1.38l0.057,0.113
	l0.428-0.146l-0.038-0.066l1.277-0.265c2.241-0.624,4.564-1.327,6.753-1.194l0.466-0.073l0.077,0.119
	c0.191,0,0.383,0.06,0.568,0.093l-0.185-0.279c0.574-0.08,1.149-0.153,1.723-0.219c0.255,0.464,0.504,0.935,0.747,1.406
	c0.134,0.086,0.268,0.186,0.402,0.285c-0.311-0.575-0.63-1.148-0.957-1.718l0.421-0.053c-0.039,0.045-0.039,0.114,0,0.159
	c2.693,3.001,4.834,6.488,6.319,10.29V315.291z M285.338,295.209c1.325,0.941,2.49,2.105,3.447,3.443
	c-0.169,0.253-0.148,0.594,0.051,0.823c0.7,0.765,1.305,1.619,1.8,2.541c0.184,0.356,0.35,0.721,0.498,1.095
	c-1.698-0.046-3.389-0.033-5.107,0l0,0c-0.037-0.024-0.084-0.024-0.121,0c-2.17,0.066-4.334,0.206-6.492,0.418l-0.249-0.418
	c-0.045-0.08-0.172,0-0.121,0.066l0.211,0.365c-0.638,0.066-1.277,0.119-1.915,0.199l-0.16-0.219
	c0.119-0.047,0.179-0.184,0.134-0.308c-0.006-0.018-0.015-0.035-0.025-0.05c-2.215-3.846-4.856-7.409-7.87-10.615
	c3.345,2.295,5.509,5.732,7.602,9.222c0.074,0.154,0.254,0.217,0.402,0.141c0.148-0.077,0.209-0.264,0.135-0.418
	c-0.009-0.019-0.02-0.038-0.033-0.055c-2.247-3.483-4.621-6.993-8.107-9.228c3.42,0.02,6.834,0.304,10.213,0.849
	c0.017,0.231,0.188,0.417,0.409,0.444C281.906,293.657,283.716,294.24,285.338,295.209L285.338,295.209z M212.168,344.854
	c-2.649-3.125-4.072-7.676-5.164-11.524c-0.025-0.096-0.091-0.174-0.179-0.212c0.003-0.645,0.054-1.288,0.153-1.924
	c0.093,0.004,0.172-0.07,0.179-0.166c0-0.385,0-0.763,0.038-1.141c0.16-0.776,0.332-1.526,0.485-2.176
	c0.606-2.433,1.547-4.761,2.796-6.913c0.185-0.332-0.274-0.703-0.472-0.365c-1.157,1.934-2.042,4.029-2.63,6.223
	c0.183-2.682,0.574-5.344,1.168-7.961c0,0.299,0.032,0.597,0.064,0.896c0.064,0.617,0.964,0.444,0.913-0.166
	c-0.102-1.247-0.14-2.521-0.14-3.815c0.051-0.166,0.102-0.332,0.153-0.498c0.067-0.188,0.01-0.399-0.14-0.524
	c0.319-13.236,5.987-28.256,17.362-34.757c0.03,0.336,0.316,0.583,0.639,0.552c0.05-0.005,0.099-0.016,0.146-0.034
	c9.249-3.583,20.733-4.06,30.493-2.733c5.312,0.699,10.383,2.72,14.784,5.891c2.681,1.944,4.8,4.531,7.405,6.488
	c-0.332-0.046-0.638,0.438-0.351,0.697c0.823,0.71,1.672,1.4,2.553,2.05c-0.756-0.214-1.534-0.336-2.317-0.365
	c-0.149-0.007-0.288,0.072-0.364,0.206c-20.51-3.549-41.459,2.799-56.919,17.249c0-0.033,0-0.066,0-0.106
	c0-0.031-0.024-0.056-0.054-0.056s-0.054,0.025-0.054,0.056c0,0.08,0,0.159,0,0.239c-3.814,3.594-7.208,7.642-10.111,12.061
	c0-0.325,0-0.663,0-0.975c-0.011-0.035-0.047-0.054-0.081-0.042c-0.019,0.007-0.034,0.022-0.041,0.042c0,0.398,0,0.796,0,1.194
	c-2.166,3.319-4.043,6.831-5.611,10.496c-0.016,0.052,0.011,0.108,0.061,0.126c0.038,0.013,0.08,0,0.105-0.033
	c1.38-2.917,2.941-5.738,4.673-8.445c-0.855,4.332,0.715,8.499,2.636,12.373c0.044,0.081,0.143,0.109,0.22,0.063
	s0.105-0.148,0.061-0.229c-1.915-3.981-3.543-8.021-2.751-12.459c0.185-0.292,0.383-0.571,0.574-0.856
	c0.085,4.434,1.103,8.795,2.981,12.778c0.035,0.1,0.141,0.152,0.237,0.116c0.096-0.036,0.146-0.146,0.111-0.246
	c-0.004-0.012-0.01-0.024-0.016-0.035c-1.944-3.992-3.032-8.373-3.192-12.844c2.641-3.944,5.649-7.608,8.981-10.94
	c-0.141,4.45,1.05,8.835,3.409,12.552c0.121,0.179,0.44,0,0.338-0.186c-1.121-2.147-2.025-4.408-2.7-6.747
	c-0.221-0.887-0.396-1.787-0.523-2.694c-0.045-0.305-0.109-3.317-0.109-3.317c0.018,0.018,0.046,0.018,0.064,0
	c0.018-0.018,0.018-0.048,0-0.066v-0.033l0.581-0.557c-0.185,4.093,1.347,8.731,2.509,12.453c0.089,0.292,0.549,0.192,0.453-0.1
	c-1.219-3.828-2.815-8.373-2.77-12.539c3.454-3.295,7.223-6.216,11.247-8.717c2.067,3.967,3.859,8.082,5.362,12.313
	c0.051,0.141,0.201,0.212,0.337,0.16c0.126-0.049,0.196-0.19,0.161-0.326c-1.425-4.305-3.325-8.423-5.662-12.273
	c4.93-3.041,10.211-5.421,15.715-7.085c3.068,3.673,5.934,7.522,8.585,11.53c0.087,0.115,0.247,0.136,0.358,0.045
	c0.092-0.075,0.123-0.206,0.076-0.317c-2.415-4.186-5.401-7.985-8.866-11.278c6.058-1.809,12.329-2.732,18.633-2.74l0,0
	c2.847,3.193,5.369,6.684,7.526,10.416c-0.077,0.044-0.105,0.145-0.062,0.225c0.005,0.009,0.011,0.018,0.018,0.027
	c0.23,0.305,0.44,0.624,0.638,0.935c-5.731,0.729-11.389,1.981-16.909,3.742c-0.036-0.023-0.083-0.011-0.105,0.027
	c-0.001,0.002-0.002,0.004-0.003,0.006c-5.883,1.877-11.584,4.32-17.03,7.298C231.311,321.083,216.049,331.034,212.168,344.854z
	 M222.304,330.922c0.243-0.239,0.498-0.471,0.747-0.697c-0.021,0.353,0.013,0.707,0.102,1.048c0.051,0.199,0.364,0.126,0.3-0.073
	c-0.119-0.392-0.171-0.803-0.153-1.214l0.479-0.445c-0.006,0.779,0.073,1.555,0.236,2.315c-0.586-0.277-1.195-0.499-1.819-0.663
	c0.07-0.026,0.116-0.095,0.115-0.173v-0.093L222.304,330.922z M213.157,343.858L213.157,343.858
	c0.274-0.617,0.574-1.227,0.887-1.824c0.288-0.415,0.637-0.78,1.034-1.081c0.83-0.312,1.481,1.121,1.819,1.685
	c0.751,1.277,1.414,2.607,1.985,3.981c-0.406-0.09-0.828,0.049-1.111,0.365c-0.638,0.77-0.121,1.838,0.409,2.488
	s1.232,0.975,1.653,1.572l0.338,0.312l-0.996,0.862c-0.345-0.329-0.631-0.72-0.843-1.154c-0.918-1.527-1.514-3.239-1.749-5.022
	c-0.089-0.624-0.996-0.431-0.926,0.192c0.223,1.957,2.03,8.824,5.107,7.338c1.092-0.524,1.098-1.685,0.357-2.528
	c-0.606-0.663-1.411-1.154-2.062-1.798c-0.387-0.314-0.685-0.731-0.862-1.207c-0.145-0.405,0.053-0.856,0.443-1.007
	c0.14-0.054,0.293-0.064,0.438-0.028c0.135,0.132,0.336,0.158,0.498,0.066l0.262,0.06c0.096,0,0.166-0.133,0.064-0.179l-0.134-0.06
	c0.088-0.13,0.105-0.298,0.045-0.445c-0.057-0.146-0.121-0.285-0.179-0.431c0.137-0.017,0.248-0.124,0.274-0.265
	c0.109-0.511,0.211-1.015,0.313-1.526c0.083,0.418,0.179,0.836,0.262,1.254c-0.134,1.008-0.243,1.99-0.294,3.032
	c0.007,0.223,0.186,0.399,0.401,0.392c0.184-0.006,0.339-0.144,0.371-0.333c0-0.199,0.045-0.391,0.064-0.59
	c0.6,2.707,1.277,5.4,1.992,8.074c-0.064-0.169-0.147-0.33-0.249-0.478c-0.009-0.172-0.044-0.342-0.102-0.504
	c-0.269-0.686-0.908-1.139-1.621-1.148c-0.469-0.116-0.955,0.103-1.194,0.537l-0.191,0.08c-3.045-2.82-4.666-6.581-6.498-10.714
	L213.157,343.858z M221.251,356.577c0-0.411,0-0.829-0.038-1.241c0.643,0.057,1.145,0.603,1.168,1.274v0.133
	c-0.367-0.104-0.744-0.171-1.123-0.199L221.251,356.577z M221.034,356.577c-0.377-0.005-0.755,0.015-1.13,0.06l0,0
	c0.024-0.67,0.525-1.217,1.168-1.274c-0.013,0.345-0.013,0.756-0.026,1.168L221.034,356.577z M219.936,357.014
	c0.362,0,0.721,0.018,1.079,0.053c0,0.345,0,0.663,0,1.042c-0.562-0.093-0.996-0.561-1.066-1.148L219.936,357.014z M221.296,358.109
	c0-0.338,0-0.663,0-1.022l1.053,0.066c-0.152,0.483-0.556,0.833-1.04,0.902L221.296,358.109z M223.696,358.739
	c-0.12-0.054-0.259,0.003-0.311,0.128c-0.029,0.07-0.025,0.15,0.011,0.217c0.128,0.186-0.351,0.232-0.772,0.239
	c0.536-0.325,0.817-0.965,0.702-1.599c0.043-0.044,0.077-0.096,0.102-0.153c0.115,0.418,0.236,0.836,0.357,1.247
	c-0.021-0.047-0.046-0.091-0.077-0.133L223.696,358.739z M234.317,381.833c-0.736,1.001-0.973,2.305-0.638,3.516
	c0.868,2.395,3.23,4.677,5.324,6.475c-0.024,0.059-0.005,0.128,0.045,0.166l1.174,0.862l0.236,0.199
	c0.035,0.027,0.074,0.049,0.115,0.066c1.8,1.327,3.619,2.607,5.356,3.981c1.872,1.482,3.496,3.276,4.807,5.307
	c-1.02-0.845-2.11-1.595-3.255-2.242c-0.105-0.06-0.237-0.021-0.295,0.088c-0.007,0.014-0.013,0.029-0.018,0.044
	c-0.084-0.037-0.178-0.037-0.262,0c-2.681,1.327-4.309,6.236-5.573,8.89c-1.366,2.866-2.477,5.666-2.668,8.817
	c-4.564-6.687-8.936-13.481-13.066-20.474c0.043-0.099,0.043-0.213,0-0.312c-1-2.449-1.336-5.136-0.97-7.769
	c2.789-3.338,6.011-6.257,9.575-8.671C234.234,381.17,234.279,381.488,234.317,381.833z M268.531,384.752
	c-0.015,0.023-0.028,0.047-0.038,0.073c-0.851,0.482-1.719,0.96-2.604,1.433c-0.03-0.192-0.204-0.321-0.389-0.29
	c-0.022,0.004-0.044,0.01-0.065,0.018c-1.245,0.398-2.502,0.743-3.76,1.008c0.001-0.013,0.001-0.027,0-0.04
	c-0.638-3.529-1.34-7.019-1.743-10.615c-0.009-0.11-0.102-0.192-0.207-0.182c-0.106,0.009-0.184,0.106-0.176,0.216l0,0
	c0.261,3.574,0.784,7.123,1.564,10.615c0.008,0.026,0.018,0.05,0.032,0.073c-0.357,0.066-0.709,0.133-1.066,0.186
	c-0.447-2.561-0.868-5.115-1.168-7.689c-0.115,0.074-0.243,0.124-0.377,0.146h-0.064c0.179,2.553,0.524,5.091,1.034,7.596
	c-0.453,0.053-0.913,0.113-1.366,0.133c0.001-0.013,0.001-0.027,0-0.04c-0.326-2.236-0.638-4.472-0.855-6.707
	c-0.128,0.173-0.255,0.332-0.389,0.491c0.172,2.103,0.409,4.206,0.766,6.276c-2.66,0.121-5.299-0.538-7.615-1.904
	c-0.383-0.226-0.753-0.471-1.117-0.723c0.029-0.072,0.029-0.153,0-0.226c-0.264-0.885-0.5-1.769-0.709-2.654
	c-0.204-0.153-0.402-0.318-0.594-0.484c0.191,0.982,0.409,1.99,0.638,2.939c-1.34-0.982-2.604-2.083-3.881-3.165
	c-0.391-1.344-0.671-2.72-0.836-4.113c0-0.037-0.029-0.066-0.064-0.066s-0.064,0.03-0.064,0.066l0,0
	c0.051,0.663,0.121,1.287,0.217,1.924c-0.211-0.809-0.325-1.643-0.338-2.481c0-0.159-0.243-0.179-0.243,0
	c-0.026,1.466,0.26,2.921,0.836,4.259c-0.83-0.703-1.666-1.393-2.553-2.023l-1.589-1.148c-0.16-1.559-0.255-3.105-0.319-4.644
	l-0.472-0.332c0.016,1.552,0.114,3.103,0.294,4.644l-0.823-0.597l0,0c-0.038-1.473-0.051-2.946-0.064-4.418l-0.44-0.312
	c0,1.466-0.032,2.926,0,4.392l-0.76-0.551c-0.153-1.572-0.262-3.138-0.338-4.697l-0.594-0.471c0.02,1.574,0.118,3.147,0.294,4.71
	c-0.345-0.252-0.696-0.498-1.034-0.756c-0.051-1.552-0.07-3.105-0.064-4.644l-0.472-0.425c0,1.566,0,3.131,0.057,4.697
	c-0.383-0.292-0.766-0.584-1.136-0.882c0.045-1.539,0.134-3.072,0.236-4.611l-0.389-0.391c-0.134,1.533-0.255,3.065-0.338,4.598
	c-0.287-0.239-0.581-0.464-0.862-0.71c0.022-0.027,0.037-0.059,0.045-0.093c0.051-1.579,0.153-3.145,0.274-4.704
	c-0.16-0.173-0.313-0.358-0.466-0.537c-0.179,1.625-0.313,3.257-0.357,4.896c-0.426-0.372-0.828-0.754-1.206-1.148
	c0.143,0.018,0.274-0.088,0.292-0.237c0.001-0.009,0.002-0.019,0.002-0.029c0-1.559,0.121-3.112,0.268-4.644
	c-0.128-0.159-0.249-0.325-0.37-0.491c-0.211,1.718-0.364,3.437-0.421,5.175l0,0c-0.274-0.285-0.555-0.564-0.823-0.862
	c0.17-1.769,0.338-3.538,0.504-5.307c-0.115-0.159-0.217-0.332-0.332-0.498c-0.204,1.769-0.417,3.523-0.638,5.261
	c-0.306-0.365-0.638-0.723-0.906-1.108c0.217-1.805,0.415-3.616,0.677-5.42c-0.083-0.139-0.16-0.279-0.236-0.418
	c-0.319,1.758-0.638,3.529-0.804,5.307c-0.211-0.299-0.434-0.584-0.638-0.896c0.23-1.891,0.472-3.782,0.728-5.666l-0.249-0.491
	c-0.332,1.824-0.638,3.662-0.868,5.507c-0.179-0.318-0.357-0.663-0.517-0.982c0.272-1.942,0.511-3.888,0.715-5.838
	c-0.077-0.113-0.166-0.226-0.243-0.345c-0.311,1.769-0.594,3.563-0.849,5.38c-0.196-0.442-0.374-0.916-0.536-1.42
	c0.23-1.659,0.492-3.317,0.785-4.949c-0.096-0.166-0.204-0.325-0.3-0.498c-0.306,1.426-0.594,2.859-0.83,4.299
	c-0.109-0.398-0.211-0.803-0.294-1.221c0.004-0.013,0.004-0.027,0-0.04c0.211-1.446,0.351-2.912,0.485-4.379
	c-0.109-0.239-0.204-0.484-0.306-0.723c-0.217,1.247-0.434,2.495-0.638,3.748l-0.217-0.809c0.115-1.751,0.236-3.503,0.389-5.254
	c-0.083-0.113-0.16-0.239-0.243-0.352c-0.179,1.486-0.345,2.972-0.46,4.465c-0.147-0.551-0.306-1.108-0.453-1.659l0.46-3.463
	l-0.191-0.325l-0.472,3.045c-0.083-0.305-0.172-0.617-0.249-0.922c0-0.146-0.038-0.292-0.064-0.444l0.262-2.607l-0.083-0.146
	c-0.028-0.06-0.051-0.122-0.07-0.186l-0.262,1.838c-0.032-0.259-0.077-0.524-0.109-0.783c0.001-0.011,0.001-0.022,0-0.033
	c0.034-1.146,0.068-2.289,0.102-3.43c0-0.126-0.179-0.119-0.185,0l0.038,1.506c-0.083-1.188-0.083-2.381,0-3.569
	c0-0.206-0.287-0.212-0.306,0c-0.089,0.809-0.147,1.619-0.179,2.435c-0.086-2.168,0.036-4.339,0.364-6.482
	c0.032-0.199-0.255-0.299-0.294-0.093c-0.397,1.881-0.63,3.795-0.696,5.719c-0.102-0.398-0.204-0.789-0.306-1.188
	c0.257-2.539,0.647-5.062,1.168-7.556c0.022-0.141-0.07-0.274-0.206-0.297c-0.117-0.02-0.231,0.049-0.273,0.164
	c-0.485,1.851-0.9,3.735-1.213,5.633c-0.083-0.325-0.166-0.663-0.249-0.982c0.53-2.607,1.06-5.195,1.845-7.762
	c0.102-0.332-0.389-0.438-0.498-0.119c-0.67,1.944-1.309,3.981-1.813,5.971l-0.313-1.161c0.543-1.969,1.266-3.879,2.158-5.706
	c0.035-0.1-0.015-0.21-0.111-0.246c-0.083-0.031-0.175,0.003-0.221,0.08c-1.407,2.509-2.448,5.221-3.089,8.047
	c-0.048,0.183,0.057,0.372,0.233,0.421c0.176,0.049,0.358-0.059,0.405-0.242c0.16-0.624,0.319-1.234,0.492-1.844
	c0.083,0.464,0.179,0.922,0.268,1.387c-0.23,1.008-0.428,1.99-0.568,3.032c-0.659-1.483-1.487-2.88-2.464-4.16
	c-0.263-0.518-0.799-0.821-1.36-0.77c-0.145,0.033-0.282,0.096-0.402,0.186c0.713-1.205,1.484-2.372,2.311-3.496
	c-0.172,0.345-0.338,0.663-0.472,1.022c-0.044,0.155,0.041,0.317,0.189,0.363c0.123,0.038,0.255-0.016,0.321-0.131
	c0.466-0.803,0.874-1.645,1.353-2.448c0.479-0.803,1.072-1.513,1.532-2.315c0.024-0.033,0.024-0.079,0-0.113
	c0.543-0.61,1.092-1.214,1.666-1.805c0.594,0.942,2.758,1.778,3.421,2.123c0.664,0.345,1.494,0.71,2.26,1.015l-1.692-0.425
	c-0.136-0.023-0.264,0.073-0.286,0.214c-0.019,0.122,0.047,0.241,0.158,0.284l1.653,0.544c-0.796-0.212-1.587-0.433-2.375-0.663
	l-0.421-0.179c-0.07-0.037-0.153-0.037-0.223,0l-0.485-0.133c-0.078-0.026-0.16,0.019-0.185,0.1
	c-0.025,0.081,0.018,0.167,0.096,0.192l0.204,0.086c-0.086,0.081-0.093,0.219-0.015,0.309c0.005,0.006,0.01,0.011,0.015,0.016
	c0.684,0.657,1.478,1.178,2.343,1.539c-0.985-0.103-1.951-0.356-2.866-0.75c-0.294-0.139-0.536,0.318-0.243,0.464
	c1.2,0.68,2.525,1.091,3.887,1.207c0.211,0.01,0.39-0.161,0.399-0.38c0.002-0.058-0.007-0.116-0.029-0.17
	c0.194-0.007,0.345-0.176,0.338-0.378c-0.001-0.036-0.008-0.072-0.019-0.107h0.128c0.261,0.013,0.482-0.197,0.494-0.467
	c0.01-0.211-0.112-0.405-0.302-0.481h-0.045l0,0l0.638,0.212c0.179,0.042,0.357-0.074,0.397-0.26
	c0.017-0.078,0.007-0.159-0.027-0.231c1.08,0.354,2.186,0.616,3.307,0.783c0.176,0.029,0.342-0.095,0.37-0.279
	c0.028-0.183-0.092-0.355-0.268-0.385l-0.434-0.113c-0.281-0.139-0.543-0.312-0.817-0.458c0.197,0.013,0.394-0.001,0.587-0.04
	c0.061-0.017,0.116-0.051,0.16-0.1c0.326,0.083,0.665,0.097,0.996,0.04c0.169-0.026,0.303-0.163,0.332-0.338l0.421,0.053
	c0.185,0.027,0.356-0.107,0.382-0.299c0.004-0.031,0.004-0.062,0.001-0.092c2.506,0.684,5.073,1.1,7.66,1.241
	c0.215,0.01,0.397-0.163,0.406-0.386c0.007-0.157-0.075-0.304-0.209-0.377c0.281,0.106,0.562,0.226,0.849,0.332
	c0.087,0.032,0.183-0.004,0.23-0.086c1.361,0.751,2.865,1.179,4.404,1.254c0.091-0.004,0.18-0.026,0.262-0.066
	c0.344,0.081,0.686-0.143,0.764-0.5c0.05-0.228-0.02-0.466-0.183-0.627l-0.038-0.033c-0.008-0.068-0.034-0.133-0.077-0.186
	c-0.753-0.853-1.64-1.567-2.623-2.11c1.449,0.405,2.911,0.77,4.385,1.081c0.128,0.028,0.261-0.014,0.351-0.113
	c-0.913-0.358-1.819-0.73-2.719-1.121c2.107,0.403,4.242,0.625,6.383,0.663c0.383,0,0.472-0.604,0.077-0.663h-0.077
	c0.014-0.022,0.014-0.051,0-0.073c-0.937-0.878-1.94-1.677-3-2.388l0.574,0.086c0.562,0.239,1.123,0.471,1.692,0.663
	c0.097,0.206,0.141,0.435,0.128,0.663c2.597,0.658,5.251,1.047,7.922,1.161l0.46,0.046c0.061,0.015,0.124,0.015,0.185,0
	c0.402,0,0.811,0.033,1.213,0c0.215,0.003,0.392-0.176,0.395-0.399c0.002-0.164-0.091-0.312-0.235-0.377
	c-0.67-0.239-1.334-0.498-1.998-0.756l-2.157-1.552l1.206,0.663l-0.421-0.172c0,0,0,0.06,0,0.093
	c0.721,0.332,1.43,0.663,2.138,1.048c1.447,0.818,2.868,1.652,4.264,2.501c-0.932-0.358-1.883-0.663-2.815-1.055
	c-0.096-0.036-0.202,0.016-0.237,0.116c-0.03,0.086,0.003,0.181,0.077,0.229l0.07,0.046h-0.128
	c-0.141-0.032-0.281,0.061-0.312,0.207c-0.01,0.046-0.008,0.093,0.005,0.138c0.055,0.237,0.186,0.447,0.37,0.597
	c0.034,0.018,0.074,0.018,0.109,0c0.166,0.166,0.338,0.325,0.511,0.484c0.443,0.505,0.925,0.972,1.443,1.393
	c0.277,0.154,0.621,0.075,0.811-0.186c0.145,0.088,0.299,0.16,0.46,0.212c0.287,0.089,0.594-0.04,0.74-0.312
	c0.179,0.093,0.357,0.199,0.543,0.285c0.332,0.122,0.697-0.059,0.815-0.404c0.013-0.037,0.022-0.075,0.028-0.113
	c0.983,0.703,1.953,1.433,2.898,2.196c-0.501-0.13-1.015-0.196-1.532-0.199c-0.666,0.007-1.328,0.098-1.972,0.272
	c-0.638,0.166-1.232,0.564-1.877,0.663c-0.144,0.01-0.254,0.139-0.244,0.289c0.007,0.121,0.092,0.223,0.206,0.249
	c0.862,0.312,1.915-0.186,2.821-0.226c0.551-0.021,1.103-0.008,1.653,0.04c-0.174,0.549-0.311,1.11-0.409,1.678
	c-0.689,1.99-1.57,5.619,0.785,5.812c1.449,0.119,1.915-1.327,1.985-2.919c0.167-0.901,0.132-1.829-0.102-2.713
	c-0.044-0.37-0.117-0.736-0.217-1.095v-0.08c-0.023-0.137-0.073-0.268-0.147-0.385v-0.04l0.319,0.06
	c0.124,0.032,0.255-0.006,0.345-0.1c2.662,2.325,5.14,4.867,7.411,7.603c0.255,0.418,0.504,0.849,0.753,1.267
	c-0.053,0.03-0.084,0.09-0.077,0.153c0.121,0.789,0.223,1.572,0.313,2.355c0.204,0.058,0.388,0.176,0.53,0.338
	c-0.115-0.736-0.236-1.473-0.377-2.203l0.74,1.247c-0.078-0.034-0.168,0.004-0.201,0.085c-0.011,0.028-0.015,0.058-0.01,0.088
	l0.485,2.057c0.021,0.09,0.108,0.145,0.195,0.123c0.086-0.022,0.139-0.113,0.118-0.202l-0.485-1.99l0.46,0.77
	c0.07,0.119,0.223,0,0.166-0.113c-0.562-1.108-1.143-2.196-1.736-3.277c0.069-0.016,0.135-0.048,0.191-0.093
	c0.715,1.148,1.43,2.302,2.183,3.437c-0.46,1.373-0.868,2.76-1.277,4.153c-0.051-0.789-0.134-1.579-0.23-2.368
	c-0.051,0.88-0.17,1.754-0.357,2.614l0.077,1.048c0.003,0.076,0.038,0.146,0.096,0.192c-0.096,0.358-0.204,0.717-0.3,1.075
	c-0.055-0.394-0.109-0.789-0.16-1.188c-0.128,0.464-0.281,0.929-0.44,1.387c0.057,0.425,0.115,0.856,0.191,1.274l0,0l-0.294,1.088
	c-0.096-0.484-0.172-0.969-0.249-1.446c-0.14,0.345-0.287,0.663-0.434,1.022c0.045,0.292,0.089,0.584,0.14,0.876
	c0.026,0.163,0.175,0.272,0.331,0.245c0.009-0.002,0.018-0.004,0.026-0.006c-0.147,0.531-0.3,1.068-0.453,1.599
	c0.005-0.017,0.005-0.036,0-0.053c-0.164-0.775-0.227-1.569-0.185-2.362c0-0.126-0.179-0.159-0.191,0
	c-0.062,0.816-0.017,1.638,0.134,2.441c0.012,0.069,0.074,0.114,0.14,0.102c0.031-0.006,0.058-0.023,0.077-0.049
	c-0.3,1.028-0.606,2.057-0.938,3.072l-0.306-2.853c-0.064,0.226-0.134,0.445-0.204,0.663l0.223,2.733
	c0.003,0.049,0.03,0.094,0.07,0.119c-0.208,0.606-0.421,1.21-0.638,1.811c-2.464,6.528-6.115,12.147-10.379,17.501V384.752z
	 M282.121,401.007c1.111,4.962,1.915,9.952,2.617,15.007c-1.321-4.047-3-8.173-5.394-11.477c-1.334-1.838-3.83-2.713-4.532,0.1l0,0
	c0.002-0.048-0.034-0.088-0.08-0.089c-0.014-0.001-0.029,0.003-0.041,0.01c-0.441-2.558-1.282-5.023-2.489-7.298
	c0.811-4.14,1.519-8.306,2.1-12.486c2.067,1.277,3.707,3.183,4.698,5.46c-0.055-0.024-0.119,0.004-0.142,0.061
	c-0.015,0.037-0.009,0.079,0.014,0.111l0.351,0.299c1.468,3.277,2.183,7.105,2.898,10.29V401.007z"/>
<path fill="#D7E2F2" stroke="#D7E2F2" stroke-miterlimit="10" d="M226.568,432.029c-4.538-9.307-11.914-16.791-20.975-21.283
	c-0.055-0.026-0.119,0-0.144,0.056s0,0.124,0.054,0.149c4.183,2.254,8.02,5.14,11.388,8.565c1.524,1.551,2.94,3.211,4.238,4.969
	c0.243,0.332,0.472,0.703,0.696,1.081c-0.638-0.723-1.277-1.426-1.915-2.11c-2.489-2.577-5.229-4.879-8.177-6.866
	c-0.274-0.186-0.511,0.279-0.243,0.464c4.338,2.94,8.188,6.592,11.4,10.814c-0.004,0.017-0.004,0.036,0,0.053
	c1.277,5.247,1.933,10.636,1.953,16.048c0,0.183,0.143,0.332,0.319,0.332c0.176,0,0.319-0.149,0.319-0.332
	c-0.038-5.229-0.746-10.43-2.106-15.465c0.899,1.233,1.735,2.515,2.502,3.841C226.121,432.792,226.798,432.5,226.568,432.029z"/>
<path fill="#D7E2F2" stroke="#D7E2F2" stroke-miterlimit="10" d="M304.124,406.599c-0.064-0.192-0.357-0.126-0.3,0.073
	c3.291,11.468,4.035,23.564,2.177,35.374c-0.089,0.617,0.823,0.703,0.919,0.093C308.768,430.232,307.809,418.036,304.124,406.599z"
	/>
<path fill="#D7E2F2" stroke="#D7E2F2" stroke-miterlimit="10" d="M267.255,367.55c-6.436,1.726-13.179,1.799-19.648,0.212
	c-0.008-0.087-0.044-0.169-0.102-0.232c-0.163-0.181-0.409-0.253-0.638-0.186c-0.137-0.062-0.297-0.024-0.396,0.093l-0.409,0.484
	c-0.154,0.166-0.15,0.431,0.01,0.591c0.151,0.151,0.388,0.157,0.545,0.013c0.077-0.075,0.163-0.139,0.255-0.192
	c0.224,0.065,0.463-0.016,0.606-0.206c0.019-0.027,0.036-0.056,0.051-0.086c6.489,1.873,13.339,1.935,19.858,0.179
	c0.173-0.062,0.265-0.258,0.206-0.439C267.545,367.633,267.405,367.537,267.255,367.55z"/>
<path fill="#D7E2F2" d="M250.409,384.859c-0.453-0.949-0.715-1.931-1.079-2.906c-0.013-0.046-0.059-0.072-0.103-0.059
	c-0.028,0.008-0.049,0.031-0.057,0.059c0.126,1.054,0.397,2.084,0.804,3.058C250.077,385.336,250.543,385.151,250.409,384.859z"/>
<path fill="#D7E2F2" d="M251.743,385.814c-0.645-0.893-1.101-1.917-1.34-3.005c0-0.059-0.046-0.106-0.102-0.106
	s-0.102,0.048-0.102,0.106l0,0c0.127,1.171,0.548,2.288,1.219,3.238c0.086,0.076,0.215,0.066,0.288-0.023
	C251.754,385.966,251.768,385.886,251.743,385.814z"/>
<path fill="#D7E2F2" d="M271.621,377.189c0-0.172-0.23-0.172-0.255,0c-0.149,0.87-0.123,1.762,0.077,2.621
	c0.045,0.111,0.169,0.164,0.276,0.117c0.089-0.039,0.141-0.137,0.126-0.236C271.661,378.871,271.586,378.03,271.621,377.189z"/>
<path fill="#D7E2F2" d="M276.108,369.799c0.077,0.663,0.172,1.367,0.287,2.05c0.045,0.259,0.434,0.166,0.383-0.093
	c-0.16-0.816-0.281-1.639-0.383-2.461C276.3,369.46,276.21,369.633,276.108,369.799z"/>
<path fill="#D7E2F2" d="M276.963,368.286c0.07,0.71,0.147,1.42,0.249,2.13c0.026,0.095,0.121,0.151,0.212,0.124
	c0.074-0.021,0.125-0.091,0.126-0.171c-0.14-0.849-0.249-1.698-0.345-2.554L276.963,368.286z"/>
<path fill="#D7E2F2" d="M277.723,366.667l0.249,1.917c0.005,0.112,0.097,0.198,0.204,0.192c0.108-0.005,0.19-0.101,0.185-0.212l0,0
	l-0.377-2.349L277.723,366.667z"/>
<path fill="#D7E2F2" d="M278.163,364.717c-0.029-0.079-0.113-0.119-0.189-0.089c-0.068,0.027-0.107,0.101-0.092,0.175
	c0.166,0.564,0.332,1.128,0.517,1.685c0.083,0.245,0.466,0.153,0.383-0.093C278.591,365.831,278.361,365.248,278.163,364.717z"/>
<path fill="#D7E2F2" d="M278.572,363.722c-0.018-0.048-0.07-0.071-0.116-0.052c-0.036,0.015-0.059,0.052-0.056,0.092l0.498,2.567
	c0.016,0.071,0.084,0.116,0.153,0.1s0.112-0.088,0.096-0.159L278.572,363.722z"/>
<path fill="#D7E2F2" stroke="#D7E2F2" stroke-miterlimit="10" d="M279.638,360.895c-0.031-0.049-0.095-0.062-0.142-0.029
	c-0.034,0.024-0.052,0.067-0.043,0.109c0.268,0.721,0.447,1.474,0.53,2.242c0,0.159,0.255,0.113,0.236-0.046
	C280.12,362.39,279.925,361.625,279.638,360.895z"/>
<path fill="#D7E2F2" d="M244.939,363.443l-2.023,2.329c-0.096,0.113,0.051,0.292,0.147,0.179l2.075-2.309
	c0.042-0.068,0.023-0.158-0.042-0.202C245.047,363.409,244.986,363.41,244.939,363.443z"/>
<path fill="#D7E2F2" d="M249.458,362.355c-1.64,0.721-3.118,1.787-4.341,3.131c0.555-0.663,1.111-1.373,1.653-2.077
	c0.035-0.059,0.018-0.137-0.039-0.174c-0.046-0.03-0.106-0.024-0.146,0.014c-0.983,1.181-1.915,2.408-2.872,3.616
	c-0.089,0.113,0.089,0.239,0.179,0.133l1.072-1.327c-0.001,0.051,0.039,0.093,0.088,0.094c0.024,0,0.048-0.01,0.065-0.028
	c1.306-1.307,2.817-2.372,4.468-3.151C249.726,362.514,249.637,362.289,249.458,362.355z"/>
<path fill="#D7E2F2" d="M250.071,363.788c-1.25,0.659-2.419,1.475-3.479,2.428c-0.128,0.119,0.057,0.312,0.191,0.199
	c1.041-0.909,2.186-1.682,3.409-2.302C250.377,364.014,250.275,363.688,250.071,363.788z"/>
<path fill="#D7E2F2" d="M252.701,363.184c-1.329,0.693-2.51,1.656-3.472,2.833c-0.089,0.113,0.083,0.239,0.179,0.133
	c0.984-1.112,2.154-2.029,3.453-2.707C253.02,363.35,252.867,363.098,252.701,363.184z"/>
<path fill="#D7E2F2" d="M254.373,363.184c-1.184,0.575-2.29,1.311-3.287,2.189c-0.042,0.054-0.035,0.133,0.017,0.177
	c0.041,0.035,0.098,0.038,0.143,0.008c1.009-0.814,2.096-1.519,3.243-2.103C254.641,363.383,254.52,363.118,254.373,363.184z"/>
<path fill="#D7E2F2" d="M255.554,362.819l-1.813,1.917c-0.096,0.099,0.038,0.279,0.134,0.172l1.851-1.897
	c0.045-0.057,0.036-0.14-0.018-0.187C255.664,362.788,255.601,362.785,255.554,362.819z"/>
<path fill="#D7E2F2" d="M257.201,363.065l-1.226,1.479c-0.026,0.044-0.013,0.101,0.029,0.128c0.033,0.021,0.075,0.018,0.105-0.008
	l1.226-1.479c0.026-0.044,0.013-0.101-0.029-0.128C257.273,363.035,257.231,363.039,257.201,363.065z"/>
<path fill="#D7E2F2" d="M259.18,363.861c-0.314-0.191-0.564-0.478-0.715-0.823l0.709-0.902c0.064-0.08-0.051-0.186-0.115-0.106
	l-0.638,0.823c-0.083-0.249-0.107-0.515-0.07-0.776c0-0.048-0.037-0.086-0.083-0.086c-0.034,0-0.064,0.021-0.077,0.053
	c-0.069,0.341-0.045,0.695,0.07,1.022l-0.377,0.471c-0.023,0.041-0.01,0.094,0.029,0.118c0.029,0.018,0.065,0.016,0.092-0.005
	l0.319-0.405c0.163,0.352,0.435,0.637,0.772,0.809C259.18,364.1,259.276,363.921,259.18,363.861z"/>
<path fill="#D7E2F2" d="M260.629,364.126l-1.277-2.11c-0.064-0.113-0.217,0-0.153,0.119l1.181,2.13
	c0.037,0.071,0.123,0.098,0.191,0.06C260.64,364.287,260.666,364.198,260.629,364.126z"/>
<path fill="#D7E2F2" d="M262.448,364.956c-0.958-0.934-1.721-2.063-2.241-3.317c-0.025-0.044-0.079-0.06-0.122-0.034
	c-0.032,0.019-0.049,0.056-0.044,0.094c0.46,1.333,1.235,2.523,2.253,3.463c0.055,0.044,0.133,0.034,0.176-0.023
	C262.513,365.081,262.503,365,262.448,364.956z"/>
<path fill="#D7E2F2" d="M263.635,364.093c-0.903-0.657-1.654-1.516-2.196-2.514c-0.051-0.093-0.204,0-0.16,0.086
	c0.513,1.065,1.277,1.978,2.221,2.654c0.062,0.036,0.139,0.013,0.174-0.051C263.707,364.208,263.69,364.132,263.635,364.093z"/>
<path fill="#D7E2F2" d="M265.499,364.332c-0.791-0.953-1.682-1.812-2.655-2.561c-0.083-0.066-0.191,0.06-0.109,0.126
	c0.923,0.796,1.791,1.659,2.598,2.581c0.039,0.048,0.107,0.054,0.153,0.013S265.538,364.38,265.499,364.332z"/>
<path fill="#D7E2F2" d="M267.089,364.79l-2.406-2.574c-0.096-0.1-0.262,0.04-0.166,0.139l2.394,2.601
	c0.052,0.044,0.128,0.036,0.171-0.018C267.114,364.896,267.117,364.836,267.089,364.79z"/>
<path fill="#D7E2F2" d="M268.148,364.584c-0.433-0.933-1.077-1.743-1.877-2.362c-0.039-0.024-0.09-0.011-0.114,0.03
	c-0.017,0.03-0.015,0.068,0.005,0.096c0.737,0.64,1.347,1.425,1.794,2.309C268.046,364.763,268.225,364.69,268.148,364.584z"/>
<path fill="#D7E2F2" d="M267.746,362.594c-0.049-0.042-0.121-0.035-0.162,0.016c-0.031,0.039-0.035,0.094-0.011,0.137
	c0.424,0.56,0.754,1.19,0.977,1.864c0.057,0.166,0.319,0.1,0.262-0.066C268.565,363.837,268.204,363.177,267.746,362.594z"/>
</svg>
