<?xml version="1.0" encoding="utf-8"?>
<!-- Generator: Adobe Illustrator 18.0.0, SVG Export Plug-In . SVG Version: 6.00 Build 0)  -->
<!DOCTYPE svg PUBLIC "-//W3C//DTD SVG 1.1//EN" "http://www.w3.org/Graphics/SVG/1.1/DTD/svg11.dtd">
<svg version="1.1" id="Socialmedia_Icons_and_cartoons"
	 xmlns="http://www.w3.org/2000/svg" xmlns:xlink="http://www.w3.org/1999/xlink" x="0px" y="0px" viewBox="0 0 612 792"
	 enable-background="new 0 0 612 792" xml:space="preserve">
<g>
	<g>
		<path fill="#ECF0F1" d="M474.9,205c7.4,0,13.6,6.2,13.6,13.6v337.7c0,7.4-6.2,13.6-13.6,13.6H137.1c-7.4,0-13.6-6.2-13.6-13.6
			V218.6c0-7.4,6.2-13.6,13.6-13.6H474.9 M474.9,182.4H137.1c-19.8,0-36.3,16.4-36.3,36.3v337.7c0,19.8,16.4,36.3,36.3,36.3h337.7
			c19.8,0,36.3-16.4,36.3-36.3V218.6C511.1,198.2,494.7,182.4,474.9,182.4L474.9,182.4z"/>
	</g>
	<line fill="none" stroke="#ECF0F1" stroke-width="25" stroke-miterlimit="10" x1="490.7" y1="202.2" x2="121.3" y2="572.2"/>
	<line fill="none" stroke="#ECF0F1" stroke-width="25" stroke-miterlimit="10" x1="490.7" y1="572.2" x2="121.3" y2="202.2"/>
</g>
</svg>
