<?xml version="1.0" encoding="utf-8"?>
<!-- Generator: Adobe Illustrator 18.0.0, SVG Export Plug-In . SVG Version: 6.00 Build 0)  -->
<!DOCTYPE svg PUBLIC "-//W3C//DTD SVG 1.1//EN" "http://www.w3.org/Graphics/SVG/1.1/DTD/svg11.dtd">
<svg version="1.1" id="Socialmedia_Icons_and_cartoons"
	 xmlns="http://www.w3.org/2000/svg" xmlns:xlink="http://www.w3.org/1999/xlink" x="0px" y="0px" viewBox="0 0 108 114.4"
	 enable-background="new 0 0 108 114.4" xml:space="preserve">
<g>
	<g>
		<path fill="#D7E2F2" d="M91.6,32.1c1.5,0,2.7,1.2,2.7,2.7v46.3c0,1.5-1.2,2.7-2.7,2.7H18.4c-1.5,0-2.7-1.2-2.7-2.7V34.8
			c0-1.5,1.2-2.7,2.7-2.7H91.6 M91.6,30H18.4c-2.7,0-4.8,2.2-4.8,4.8v46.3c0,2.7,2.2,4.8,4.8,4.8h73.2c2.7,0,4.8-2.2,4.8-4.8V34.8
			C96.4,32.2,94.3,30,91.6,30L91.6,30z"/>
	</g>
	
		<path fill="none" stroke="#D7E2F2" stroke-width="2.1605" stroke-linecap="round" stroke-linejoin="round" stroke-miterlimit="10" d="
		M18.6,35l33.1,25.8c2.4,1.8,5.7,1.7,8.1-0.2L91.2,35"/>
</g>
</svg>
