<?xml version="1.0" encoding="utf-8"?>
<!-- Generator: Adobe Illustrator 18.0.0, SVG Export Plug-In . SVG Version: 6.00 Build 0)  -->
<!DOCTYPE svg PUBLIC "-//W3C//DTD SVG 1.1//EN" "http://www.w3.org/Graphics/SVG/1.1/DTD/svg11.dtd">
<svg version="1.1" id="Socialmedia_Icons_and_cartoons"
	 xmlns="http://www.w3.org/2000/svg" xmlns:xlink="http://www.w3.org/1999/xlink" x="0px" y="0px" viewBox="0 0 108 114.4"
	 enable-background="new 0 0 108 114.4" xml:space="preserve">
<g>
	<path fill="#D7E2F2" d="M75.7,13.6v11l-3.5,0l-2.1,0c-0.2,0-0.4,0-0.7,0c-0.4,0-0.8,0-1.2,0c-7.1,0-9,4.4-9.3,8.1l0,0.1v0.1v12.2
		v2.2h2.2h13.8l-1.4,12H61.1h-2.2v2.2v39.4H46.5V61.4v-2.2h-2.2h-12v-12h12h2.2v-2.2V32.9v-0.1l0-0.1c0-0.1-0.6-14.6,12-18.5
		c0.1,0,0.1,0,0.2-0.1c0.5-0.2,2-0.7,4.4-0.7H75.7 M76.5,11.4H63.1c-3.1,0-4.9,0.7-5.3,0.9c-14.4,4.4-13.5,20.6-13.5,20.6v12.2H31.5
		c-0.8,0-1.4,0.6-1.4,1.4V60c0,0.8,0.6,1.4,1.4,1.4h12.7v40.1c0,0.8,0.6,1.4,1.4,1.4h13.9c0.8,0,1.4-0.6,1.4-1.4V61.4h13
		c0.8,0,1.4-0.6,1.5-1.3l1.6-14.2c0-0.4-0.3-0.8-0.7-0.8H61.1V32.9c0.5-5.6,4.5-6.2,7.2-6.2c0.7,0,1.4,0,1.9,0c0,0,0,0,0,0
		c0.3,0,1.1,0,2.1,0c1.4,0,3.1,0,4.3,0c0.8,0,1.4-0.6,1.4-1.4V12.8C77.8,12,77.2,11.4,76.5,11.4L76.5,11.4z"/>
</g>
</svg>
