<?xml version="1.0" encoding="UTF-8" standalone="no"?>
<!-- Generator: Adobe Illustrator 18.0.0, SVG Export Plug-In . SVG Version: 6.00 Build 0)  -->

<svg
   xmlns:dc="http://purl.org/dc/elements/1.1/"
   xmlns:cc="http://creativecommons.org/ns#"
   xmlns:rdf="http://www.w3.org/1999/02/22-rdf-syntax-ns#"
   xmlns:svg="http://www.w3.org/2000/svg"
   xmlns="http://www.w3.org/2000/svg"
   xmlns:sodipodi="http://sodipodi.sourceforge.net/DTD/sodipodi-0.dtd"
   xmlns:inkscape="http://www.inkscape.org/namespaces/inkscape"
   version="1.1"
   id="Socialmedia_Icons_and_cartoons"
   x="0px"
   y="0px"
   viewBox="0 0 352.7 344"
   enable-background="new 0 0 252.7 244"
   xml:space="preserve"
   inkscape:version="0.48.4 r9939"
   width="100%"
   height="100%"
   sodipodi:docname="future.svg"><metadata
     id="metadata99"><rdf:RDF><cc:Work
         rdf:about=""><dc:format>image/svg+xml</dc:format><dc:type
           rdf:resource="http://purl.org/dc/dcmitype/StillImage" /></cc:Work></rdf:RDF></metadata><defs
     id="defs97" /><sodipodi:namedview
     pagecolor="#ffffff"
     bordercolor="#666666"
     borderopacity="1"
     objecttolerance="10"
     gridtolerance="10"
     guidetolerance="10"
     inkscape:pageopacity="0"
     inkscape:pageshadow="2"
     inkscape:window-width="1920"
     inkscape:window-height="1056"
     id="namedview95"
     showgrid="false"
     inkscape:zoom="0.96721311"
     inkscape:cx="126.35"
     inkscape:cy="122"
     inkscape:window-x="0"
     inkscape:window-y="24"
     inkscape:window-maximized="1"
     inkscape:current-layer="Socialmedia_Icons_and_cartoons" /><g
     id="g3"
     transform="matrix(1.3536777,0,0,1.3536777,4.800543,3.8343846)"><path
       d="m 237.8,85.5 c -1.9,-0.7 -5.6,-3.3 -7,-1.4 -0.2,0.6 -0.4,1.2 -0.5,1.9 -0.6,1.5 -1.4,3 -2.4,4.3 -3.4,4.8 -6.9,9.4 -10.3,14.1 C 205,121.9 192.4,139.5 180,157 l -19.3,27 c -3,4.1 -5.8,8.4 -8.9,12.4 -3.9,5.2 -8.5,7.9 -15.1,8.1 -9.9,0.4 -20.2,-1.8 -29.9,-3.5 -9.7,-1.7 -19.4,-4 -28.9,-6.7 -18.6,-5.2 -36.5,-12.4 -53.6,-21.5 -3.7,-2 -7.3,-4 -10.8,-6.2 -2,-1.2 -4.1,-2.4 -6,-3.8 -4,-3 -4.1,-6.6 -2.3,-10.8 3.5,-7.9 7.4,-15.7 11.7,-23.2 9.2,-16.2 19.5,-31.8 30.7,-46.6 5.9,-7.9 12.1,-15.6 18.5,-23 2.8,-3.2 5.5,-6.4 8.4,-9.5 4.3,-4.7 8.7,-6.3 15.1,-6.1 44.8,1.5 88.6,15.6 131,28.9 1.7,0.5 2.4,-2.1 0.7,-2.6 C 181.3,57.3 141,45.5 99,41.8 90.4,41.1 81.3,39.5 74.5,46 67.7,52.5 61.9,60.3 55.9,67.7 c -12.5,15.4 -24,31.7 -34.4,48.6 -5,8.1 -9.7,16.4 -13.9,25 -2.8,5.6 -9.1,14.6 -4.6,20.7 2,2.7 5.3,4.4 8.1,6.1 4.4,2.6 8.8,5.2 13.4,7.5 8.5,4.4 17.2,8.4 26.1,11.9 19,7.4 38.7,12.8 58.8,16.1 9.5,1.6 20,3.9 29.6,2.9 9.3,-1 13.4,-7.3 18.5,-14.4 15.1,-21.4 30.3,-42.7 45.4,-64.1 7.4,-10.5 14.8,-20.9 22.1,-31.4 2.4,-3.5 4.7,-6.8 6.3,-10.6 0.5,-1.3 -0.2,-1.4 1.2,-1.6 1.4,-0.2 4,1.4 5.3,1.8 0.1,0 0.3,-0.1 0.3,-0.2 -0.1,-0.4 -0.2,-0.5 -0.3,-0.5 l 0,0 0,0 z"
       id="path5"
       inkscape:connector-curvature="0"
       style="fill:#d5e0f0" /><path
       d="m 222.3,72.8 c -17.4,18.7 -33,39.3 -48.2,59.7 -15.2,20.4 -30.5,41.5 -43.8,63.3 -0.2,0.4 0,0.9 0.4,1.1 0.3,0.2 0.8,0.1 1,-0.3 14.1,-20.9 27.8,-41.8 42.8,-62.1 15.5,-21 32.3,-40.9 48.3,-61.4 0.1,-0.2 -0.3,-0.6 -0.5,-0.3 l 0,0 0,0 z"
       id="path7"
       inkscape:connector-curvature="0"
       style="fill:#d5e0f0" /><path
       d="m 187.4,62.1 c 12.6,2.5 24.9,6.1 36.8,11 1.3,0.6 4.4,1.2 4.8,2.6 0.3,1.3 -2.3,3.8 -3,4.8 l -6.1,8.5 -12.2,17.1 c -16.6,23.3 -33.3,46.4 -49.5,70 -0.4,0.6 0.5,1.1 0.9,0.6 24.6,-33.3 48.1,-67.4 72.1,-101.2 0.2,-0.3 0.1,-0.8 -0.2,-0.9 -13.9,-6.3 -28.5,-10.5 -43.6,-12.7 0,0 -0.1,0.2 0,0.2 l 0,0 0,0 z"
       id="path9"
       inkscape:connector-curvature="0"
       style="fill:#d5e0f0" /><path
       d="m 236.2,85.4 c 2.6,2.6 7.2,2.8 10.6,3.7 0.6,0.2 3.2,0.7 3.2,1.1 0,0.2 -2.7,0.9 -2.7,0.9 -2.3,0.7 -4.4,1.7 -6.4,2.9 -4.3,2.6 -7.6,6.4 -10.9,10.2 -4.9,5.7 -9.8,11.4 -14.6,17.3 -8.9,10.9 -17.6,22 -26.4,33.1 -9.2,11.7 -18.9,22.9 -28.3,34.5 -0.5,0.6 0.3,1.4 0.8,0.8 15.9,-17 29.8,-36.1 44.2,-54.2 7.1,-9 14.3,-17.9 21.7,-26.7 7,-8.3 13.1,-15.2 24.1,-17.8 0.3,-0.1 0.4,-0.4 0.4,-0.7 0,-0.1 -0.1,-0.2 -0.1,-0.2 -4.2,-3.8 -11.2,-1.5 -15.4,-5 -0.1,0 -0.1,0 -0.2,0 0,0 0,0.1 0,0.1 l 0,0 0,0 z"
       id="path11"
       inkscape:connector-curvature="0"
       style="fill:#d5e0f0" /><path
       d="m 240.8,97.5 c -14.6,14.5 -27.5,30.7 -40,46.9 -13,16.9 -26.4,33.3 -39.6,50.1 -0.4,0.6 0.3,1.4 0.8,0.8 13.9,-14.9 25.7,-31.9 38,-48.1 13,-17.1 26.7,-33.4 40.9,-49.5 0,-0.1 0,-0.1 0,-0.2 0,-0.1 0,-0.1 -0.1,0 l 0,0 0,0 0,0 z"
       id="path13"
       inkscape:connector-curvature="0"
       style="fill:#d5e0f0" /><path
       d="m 217.7,83.3 c -13.5,16.7 -26,34.3 -38.9,51.4 -13.3,17.6 -26.9,35 -39.7,52.9 -0.2,0.2 -0.1,0.6 0.1,0.8 0.2,0.2 0.6,0.1 0.8,-0.1 13.3,-16.9 25.8,-34.5 38.7,-51.7 13.2,-17.7 26.8,-35 39.4,-53.1 0,-0.1 0,-0.2 -0.1,-0.2 -0.1,0 -0.1,0 -0.3,0 l 0,0 0,0 z"
       id="path15"
       inkscape:connector-curvature="0"
       style="fill:#d5e0f0" /><path
       d="m 236.2,93.2 c -2.4,-3.8 -9.7,6.4 -10.8,7.7 -5.2,6 -10.1,12.2 -14.6,18.7 -9.8,13.8 -18.8,28 -29.5,41.2 -0.4,0.5 0.3,1.3 0.7,0.7 8.9,-10.7 16.6,-22.1 24.3,-33.6 3.6,-5.4 7.2,-10.7 11.1,-15.8 1.6,-2.1 16.2,-21.5 18.5,-18.7 0.1,0.1 0.2,0.1 0.3,0 0,0 0,-0.1 0,-0.2 l 0,0 0,0 z"
       id="path17"
       inkscape:connector-curvature="0"
       style="fill:#d5e0f0" /><path
       d="m 141.4,194.2 -0.1,-0.9 0,0 0.1,0.9 0,0 0,0 z"
       id="path19"
       inkscape:connector-curvature="0"
       style="fill:#d5e0f0" /><path
       d="m 140.5,189.9 c -2.2,1.6 -6,5.1 -2.8,7.7 3.2,2.7 9.5,-1.7 12.1,-3.8 0.2,-0.2 0.2,-0.5 0,-0.7 -0.2,-0.1 -0.4,-0.2 -0.6,-0.1 -2.1,1.7 -4.4,3 -6.9,3.9 -0.9,0.3 -2.3,0.8 -3.2,0.5 -1.3,-0.5 -2.2,-1.8 -2,-3.3 0.2,-1.7 2.2,-3.2 3.4,-4.2 0.1,0.1 0.1,0 0,0 l 0,0 0,0 z"
       id="path21"
       inkscape:connector-curvature="0"
       style="fill:#d5e0f0" /><path
       d="m 148,179.2 c -0.7,3.5 -8.4,8.8 -4.4,12.6 2.5,2.4 8.6,1.5 9.6,-2.1 0.1,-0.3 -0.1,-0.6 -0.4,-0.6 -0.3,-0.1 -0.6,0.1 -0.6,0.4 -1,3.7 -9.6,3.7 -8.7,-0.9 0.6,-3.5 4.5,-5.5 5.1,-9.1 -0.1,-0.5 -0.5,-0.6 -0.6,-0.3 l 0,0 0,0 0,0 z"
       id="path23"
       inkscape:connector-curvature="0"
       style="fill:#d5e0f0" /><path
       d="m 162.6,170.8 -6.9,10.3 c -0.9,1.4 -3,3.5 -2.4,5.4 0.9,2.8 5.4,2.6 7.1,0.9 0.2,-0.2 0.1,-0.5 -0.1,-0.6 -0.2,-0.1 -0.4,-0.1 -0.6,0 -0.7,0.6 -1.6,1 -2.6,1 -1.8,0 -2.3,-0.4 -2.5,-2 -0.3,-2.1 1.1,-3.5 2.3,-5.3 l 6,-9.4 c 0.1,-0.1 0,-0.3 -0.1,-0.3 -0.1,-0.2 -0.2,-0.1 -0.2,0 l 0,0 0,0 z"
       id="path25"
       inkscape:connector-curvature="0"
       style="fill:#d5e0f0" /><path
       d="m 73.3,66.8 -1.6,-0.4 -8.4,12 -2.3,-0.7 8.3,-11.9 -1.6,-0.4 2.3,-3.3 5.6,1.3 -2.3,3.4 z"
       id="path27"
       inkscape:connector-curvature="0"
       style="fill:#d5e0f0" /><path
       d="m 76.5,63.7 2.4,0.6 -3.9,5.5 0.9,0.2 3.9,-5.6 2.5,0.6 -9.8,14 -2.4,-0.7 4.1,-5.8 -0.9,-0.2 -5.3,7.5 -2.3,-0.7 10.8,-15.4 z"
       id="path29"
       inkscape:connector-curvature="0"
       style="fill:#d5e0f0" /><path
       d="m 79.4,81 -6,-1.8 9.8,-14 6.2,1.4 -2.4,3.5 -3.6,-0.9 -1.6,2.3 1.4,0.3 -1.8,2.5 -1.3,-0.3 -1.8,2.5 3.5,1 -2.4,3.5 z"
       id="path31"
       inkscape:connector-curvature="0"
       style="fill:#d5e0f0" /><path
       d="m 99.4,73.1 -1.9,-0.5 -9.3,13.2 -2.8,-0.8 9.2,-13 -2,-0.5 2.5,-3.6 6.8,1.5 -2.5,3.7 z"
       id="path33"
       inkscape:connector-curvature="0"
       style="fill:#d5e0f0" /><path
       d="m 99.3,86.7 -6.9,-2 10.6,-15 7.2,1.6 -2.6,3.8 -4.2,-1 -1.8,2.4 1.6,0.4 -1.9,2.6 -1.6,-0.4 -1.9,2.7 4.1,1.1 -2.6,3.8 z"
       id="path35"
       inkscape:connector-curvature="0"
       style="fill:#d5e0f0" /><path
       d="m 107.7,89.2 -5,-1.5 v -3.9 l 8.7,-12.2 3.2,0.7 -8.6,11.8 1.2,0.3 8.5,-11.9 3.3,0.7 -11.3,16 z"
       id="path37"
       inkscape:connector-curvature="0"
       style="fill:#d5e0f0" /><path
       d="m 120.1,73.5 3.4,0.8 -4.7,6.5 1.3,0.3 4.7,-6.5 3.5,0.8 -6.8,9.5 -1.9,-0.5 0.1,3.1 -3.1,4.3 -3.3,-1 3.5,-4.9 -1.2,-0.3 -3.5,4.9 -3.2,-0.9 5.4,-7.6 1.8,0.5 -0.1,-3 4.1,-6 z"
       id="path39"
       inkscape:connector-curvature="0"
       style="fill:#d5e0f0" /><path
       d="m 141.7,83.3 -2.5,-0.6 -10.9,15.1 -3.6,-1.1 10.7,-14.9 -2.6,-0.6 2.9,-4.1 9,2 -3,4.2 z"
       id="path41"
       inkscape:connector-curvature="0"
       style="fill:#d5e0f0" /><path
       d="m 146.1,79.4 4,0.9 -2.8,3.8 -3.9,-1 2.7,-3.7 z m -8.7,18.4 -3.8,-1.1 8.4,-11.7 3.9,1 -8.5,11.8 z"
       id="path43"
       inkscape:connector-curvature="0"
       style="fill:#d5e0f0" /><path
       d="m 148.7,84.3 5.6,1.3 5.9,-3.1 7.1,1.6 -13.3,18.5 -4.2,-1.2 10,-13.7 -1.6,-0.4 -9.9,13.7 -4.1,-1.2 7,-9.7 -1.5,-0.4 -7,9.7 -4,-1.1 10,-14 z"
       id="path45"
       inkscape:connector-curvature="0"
       style="fill:#d5e0f0" /><path
       d="M 166.1,106.1 155.5,103 169,84.6 l 11,2.5 -3.4,4.7 -6.4,-1.6 -2.2,3 2.4,0.6 -2.4,3.3 -2.4,-0.6 -2.4,3.4 6.3,1.7 -3.4,4.5 z"
       id="path47"
       inkscape:connector-curvature="0"
       style="fill:#d5e0f0" /><path
       d="m 190.1,94.9 -7,-1.7 -2.2,3.1 7,1.8 -6.3,8.6 -4.8,2.4 -8.8,-2.6 3.1,-4.3 7.2,2 2.8,-3.9 -7.2,-1.9 3.5,-4.7 8.3,-5.5 8.2,1.8 -3.8,4.9 z"
       id="path49"
       inkscape:connector-curvature="0"
       style="fill:#d5e0f0" /><path
       d="m 167.1,82.3 c -1.3,-4.6 -5.5,-7.9 -9.4,-10.3 -5.8,-3.5 -12.2,-6.2 -18.8,-7.9 -12.4,-3.4 -27.8,-5.1 -39.7,0.7 -1.3,0.6 -0.4,2.9 1,2.4 11.8,-4.5 24.6,-4.9 36.9,-2 10.3,2.4 24.7,7 29.6,17.3 0.1,0.1 0.2,0.1 0.3,0.1 0.1,0 0.2,-0.2 0.1,-0.3 l 0,0 0,0 z"
       id="path51"
       inkscape:connector-curvature="0"
       style="fill:#d5e0f0" /><path
       d="m 180.6,83.8 c -1.7,-0.6 -5.4,-1.5 -3.9,-4.1 0.9,-1.7 3.6,-2.3 5.3,-2.8 0.9,-0.3 0.8,-1.9 -0.2,-1.8 -2.8,0.3 -8,1.2 -9.5,-1.9 l -0.5,1.9 c 0.3,-0.2 0.7,-0.4 1,-0.5 0.7,-0.2 1,-0.9 0.8,-1.6 -0.1,-0.4 -0.4,-0.7 -0.8,-0.8 -1,-0.3 -2,-0.1 -2.7,0.7 -0.5,0.5 -0.5,1.4 0,2 3,3.4 7.9,2.7 12,2 l -0.5,-1.8 c -2.4,0.9 -6.5,2.3 -6.5,5.5 0,2.8 3.4,3.5 5.5,3.8 0.3,0.1 0.3,-0.5 0,-0.6 l 0,0 0,0 z"
       id="path53"
       inkscape:connector-curvature="0"
       style="fill:#d5e0f0" /><path
       d="m 175.4,64.2 c -1.5,0.5 -2.7,1.1 -4.4,0.8 -2.1,-0.3 -4.1,-2.3 -2.4,-4.4 0.4,-0.4 0.3,-1.1 -0.1,-1.5 -0.4,-0.4 -1,-0.4 -1.4,0 l -2,-0.5 c 0,-0.5 -0.4,-1 -1,-1 -0.4,0 -0.8,0.3 -0.9,0.7 -0.7,3.4 3.3,3.9 5.4,2.3 L 167,59.3 c -3.9,5.5 5.6,10.1 8.8,5.3 0.1,-0.2 0,-0.4 -0.1,-0.4 -0.1,0 -0.2,0 -0.3,0 l 0,0 0,0 z"
       id="path55"
       inkscape:connector-curvature="0"
       style="fill:#d5e0f0" /><path
       d="m 102.4,59.2 c -3.2,-0.7 -6.1,-0.9 -8.9,-2.7 -0.5,-0.3 -1.1,-0.1 -1.3,0.4 -0.1,0.2 -0.1,0.5 -0.1,0.7 0.3,1.1 0.2,3.8 -1.9,2.9 -0.5,-0.2 -1.1,0 -1.4,0.5 -0.2,0.4 -0.1,0.9 0.3,1.2 1.2,0.8 2.8,0.7 3.9,-0.2 1.6,-1.2 1.5,-3.2 0.9,-4.9 l -1.2,1.2 c 3,1.2 6.5,2.1 9.7,1.2 0.1,0 0.1,-0.1 0,-0.3 0.1,0.1 0.1,0 0,0 l 0,0 0,0 z"
       id="path57"
       inkscape:connector-curvature="0"
       style="fill:#d5e0f0" /><path
       d="m 176.4,116.6 c -8.7,-4.1 -18.6,-6.4 -27.8,-9.2 -10.2,-3 -20.4,-5.9 -30.7,-8.7 C 107.8,96 97.7,93.2 87.5,90.5 76.8,87.6 66.1,84.1 55.2,81.9 c -0.5,0 -0.9,0.4 -0.8,0.9 0,0.3 0.2,0.5 0.4,0.7 10,3.3 20.4,5.5 30.6,8.2 10.4,2.7 20.8,5.5 31.3,8.2 10,2.6 20,5.3 29.9,8.1 9.9,2.8 19.7,6.8 29.8,8.6 0,0.1 0,0.1 0,0 l 0,0 0,0 z"
       id="path59"
       inkscape:connector-curvature="0"
       style="fill:#d5e0f0" /><path
       d="m 181,122.7 c -20.8,-7.5 -42.4,-13.1 -63.6,-19.3 -21.2,-6.2 -42.6,-12.9 -64,-18.5 -0.5,0 -0.9,0.4 -0.9,0.9 0,0.3 0.2,0.6 0.4,0.8 21.3,6.4 42.8,12 64.1,18.2 21.3,6.1 42.4,13.2 63.9,18.6 0.2,0 0.3,-0.1 0.3,-0.3 0,-0.2 0,-0.3 -0.2,-0.4 l 0,0 0,0 z"
       id="path61"
       inkscape:connector-curvature="0"
       style="fill:#d5e0f0" /><polygon
       points="151.5,155.2 137.3,173.4 39.8,144.1 52.3,128.9 "
       id="polygon63"
       style="fill:#d5e0f0" /><path
       d="m 65.2,98.1 c -1.5,2.4 -44.1,65.6 -44.1,65.6 L 8.1,158.3 51.8,93 65.2,98.1 z"
       id="path65"
       inkscape:connector-curvature="0"
       style="fill:#d5e0f0" /><path
       d="m 66.5,121.4 c -0.6,0.8 -1.7,1.2 -2.6,0.9 l -3,-1 c -1,-0.3 -1.1,-0.9 -0.3,-1.8 l 16.3,-19.7 2.6,0.7 -15.5,18.6 c -0.2,0.2 -0.2,0.4 0.1,0.5 h 0.1 c 0.3,0.1 0.5,0 0.7,-0.2 l 15.3,-18.6 2.6,0.7 -16.3,19.9 z"
       id="path67"
       inkscape:connector-curvature="0"
       style="fill:#d5e0f0" /><path
       d="m 71.3,124.7 -4.4,-1.4 15.8,-19.4 2.3,0.6 -14.1,17.5 2.1,0.7 -1.7,2 z"
       id="path69"
       inkscape:connector-curvature="0"
       style="fill:#d5e0f0" /><path
       d="m 92,108.9 -1.6,-0.4 -14.3,17.8 -2.3,-0.7 14.2,-17.8 -1.6,-0.4 1.6,-2 5.6,1.5 -1.6,2 z"
       id="path71"
       inkscape:connector-curvature="0"
       style="fill:#d5e0f0" /><path
       d="m 81.4,127.9 -2.4,-0.8 16,-19.9 2.4,0.6 -16,20.1 z"
       id="path73"
       inkscape:connector-curvature="0"
       style="fill:#d5e0f0" /><path
       d="m 92.8,131.6 -2.4,-0.8 5.8,-8.6 -7.4,8.1 -2.5,-0.8 5.8,-8.5 -7.3,8 -2.4,-0.8 17.9,-19.6 2.6,0.7 -5.2,7.6 6.6,-7.3 2.7,0.7 -14.2,21.3 z"
       id="path75"
       inkscape:connector-curvature="0"
       style="fill:#d5e0f0" /><path
       d="m 100.7,134 -2.6,-0.8 1.5,-2.3 -1.6,-0.5 -2,2.1 -2.5,-0.8 18.4,-20.1 2.7,0.7 -13.9,21.7 z m 0.4,-5.3 3.6,-5.6 -4.8,5.2 1.2,0.4 z"
       id="path77"
       inkscape:connector-curvature="0"
       style="fill:#d5e0f0" /><path
       d="m 113.1,138 -3,-1 9.8,-12.9 -1.1,-0.3 -9.8,12.9 -2.9,-0.9 18,-23.6 2.9,0.8 -6.4,8.5 1.1,0.3 6.4,-8.5 3.1,0.8 -18.1,23.9 z"
       id="path79"
       inkscape:connector-curvature="0"
       style="fill:#d5e0f0" /><path
       d="m 122.8,139.3 c -0.6,0.9 -1.7,1.3 -2.8,0.9 l -3.4,-1.1 c -1.1,-0.4 -1.3,-1 -0.6,-1.9 l 14.3,-19 c 0.6,-0.9 1.7,-1.2 2.7,-0.9 l 3.4,0.9 c 1.1,0.3 1.4,0.9 0.7,1.8 l -14.3,19.3 z m -1.9,-2.2 12.4,-16.6 c 0.2,-0.2 0.1,-0.4 -0.2,-0.5 H 133 c -0.3,-0.1 -0.6,0 -0.7,0.2 l -12.4,16.6 c -0.2,0.3 -0.1,0.5 0.2,0.6 0.2,0.1 0.6,0 0.8,-0.3 z"
       id="path81"
       inkscape:connector-curvature="0"
       style="fill:#d5e0f0" /><path
       d="m 130.7,143.6 -3,-0.9 8.5,-11.6 c 0.2,-0.3 0.2,-0.5 -0.2,-0.7 l -0.6,-0.2 -8.9,12 -2.8,-0.9 16.4,-22.1 5.6,1.5 c 0.9,0.2 1.1,0.7 0.6,1.4 l -5.3,7.2 c -0.4,0.5 -0.9,0.8 -1.5,0.7 0.4,0.2 0.5,0.7 0.2,1.1 0,0 -0.1,0.1 -0.1,0.1 l -8.9,12.4 z m 8,-15.8 3.5,-4.8 c 0.2,-0.3 0.1,-0.5 -0.3,-0.6 l -0.6,-0.1 -4.2,5.7 0.6,0.2 c 0.4,0.1 0.8,-0.1 1,-0.4 l 0,0 z"
       id="path83"
       inkscape:connector-curvature="0"
       style="fill:#d5e0f0" /><path
       d="m 140.4,146.6 -3,-0.9 1.5,-2.5 -1.8,-0.6 -2,2.3 -3.1,-0.9 19,-21.8 3.1,0.8 -13.7,23.6 z m 0,-5.9 3.6,-6.1 -5,5.7 1.4,0.4 z"
       id="path85"
       inkscape:connector-curvature="0"
       style="fill:#d5e0f0" /><path
       d="m 164.1,122.6 -15.2,20.2 -2.7,-0.8 13.8,-20.4 4.1,1 z m -18.7,25.6 -3.3,-1.1 1.9,-2.7 3.3,1 -1.9,2.8 z"
       id="path87"
       inkscape:connector-curvature="0"
       style="fill:#d5e0f0" /><path
       d="m 126.3,176.2 c -28,-10.6 -57.2,-18.4 -86.1,-26.1 -0.6,-0.1 -1.1,0.2 -1.3,0.8 -0.1,0.5 0.2,1.1 0.7,1.2 29.2,7 57.7,16.1 86.5,24.7 0.2,0.1 0.4,-0.1 0.4,-0.2 0.1,-0.1 0,-0.3 -0.2,-0.4 l 0,0 0,0 z"
       id="path89"
       inkscape:connector-curvature="0"
       style="fill:#d5e0f0" /><path
       d="M 121.6,182.3 C 108.4,175.2 93,171.6 78.7,167.4 62.9,162.7 47,158.2 31.2,153.6 c -2,-0.6 -2.8,2.5 -0.9,3.2 0.8,0.3 1.6,0.6 2.4,0.9 1.5,0.6 2.3,-1.7 1,-2.5 -0.7,-0.4 -1.5,-0.9 -2.2,-1.4 l -1.3,3 c 30.7,7.4 61.7,14.7 91.1,26 0.1,0 0.3,0 0.3,-0.2 0.2,-0.1 0.1,-0.2 0,-0.3 l 0,0 0,0 z"
       id="path91"
       inkscape:connector-curvature="0"
       style="fill:#d5e0f0" /><path
       d="M 109.6,185.5 C 97.8,180.5 85.1,177 72.7,173.7 59.8,170.2 46.5,168 33.6,164.2 c -2.1,-0.6 -3.3,2.4 -1.5,3.5 2.1,1.3 4.4,1.3 6.8,1.6 3.7,0.5 7.4,1.1 11.1,1.8 6.8,1.2 13.6,2.6 20.4,4.3 13.1,3.1 25.8,7.4 38.7,11 0.6,0 0.9,-0.7 0.5,-0.9 l 0,0 0,0 0,0 z"
       id="path93"
       inkscape:connector-curvature="0"
       style="fill:#d5e0f0" /></g></svg>