<?xml version="1.0" encoding="UTF-8" standalone="no"?>
<!-- Generator: Adobe Illustrator 18.0.0, SVG Export Plug-In . SVG Version: 6.00 Build 0)  -->

<svg
   xmlns:dc="http://purl.org/dc/elements/1.1/"
   xmlns:cc="http://creativecommons.org/ns#"
   xmlns:rdf="http://www.w3.org/1999/02/22-rdf-syntax-ns#"
   xmlns:svg="http://www.w3.org/2000/svg"
   xmlns="http://www.w3.org/2000/svg"
   xmlns:sodipodi="http://sodipodi.sourceforge.net/DTD/sodipodi-0.dtd"
   xmlns:inkscape="http://www.inkscape.org/namespaces/inkscape"
   version="1.1"
   id="Socialmedia_Icons_and_cartoons"
   x="0px"
   y="0px"
   viewBox="0 0 720 480"
   enable-background="new 0 0 720 480"
   xml:space="preserve"
   inkscape:version="0.48.4 r9939"
   width="100%"
   height="100%"
   sodipodi:docname="games.svg"><metadata
     id="metadata6500"><rdf:RDF><cc:Work
         rdf:about=""><dc:format>image/svg+xml</dc:format><dc:type
           rdf:resource="http://purl.org/dc/dcmitype/StillImage" /></cc:Work></rdf:RDF></metadata><defs
     id="defs6498" /><sodipodi:namedview
     pagecolor="#ffffff"
     bordercolor="#666666"
     borderopacity="1"
     objecttolerance="10"
     gridtolerance="10"
     guidetolerance="10"
     inkscape:pageopacity="0"
     inkscape:pageshadow="2"
     inkscape:window-width="1366"
     inkscape:window-height="744"
     id="namedview6496"
     showgrid="false"
     inkscape:zoom="0.40555556"
     inkscape:cx="360"
     inkscape:cy="240"
     inkscape:window-x="0"
     inkscape:window-y="24"
     inkscape:window-maximized="1"
     inkscape:current-layer="Socialmedia_Icons_and_cartoons" /><g
     id="g6438"
     transform="matrix(0.95729291,-0.15444541,0.15444541,0.95729291,8.591883,-13.464254)"><circle
       stroke-miterlimit="10"
       cx="353.79999"
       cy="308.10001"
       r="54.400002"
       id="circle6440"
       sodipodi:cx="353.79999"
       sodipodi:cy="308.10001"
       sodipodi:rx="54.400002"
       sodipodi:ry="54.400002"
       style="fill:none;stroke:#d7e2f2;stroke-width:2;stroke-miterlimit:10"
       d="m 408.19999,308.10001 c 0,30.04429 -24.35571,54.4 -54.4,54.4 -30.04429,0 -54.4,-24.35571 -54.4,-54.4 0,-30.0443 24.35571,-54.40001 54.4,-54.40001 30.04429,0 54.4,24.35571 54.4,54.40001 z" /><circle
       stroke-miterlimit="10"
       cx="536.90002"
       cy="252.10001"
       r="55.299999"
       id="circle6442"
       sodipodi:cx="536.90002"
       sodipodi:cy="252.10001"
       sodipodi:rx="55.299999"
       sodipodi:ry="55.299999"
       style="fill:none;stroke:#d7e2f2;stroke-width:2;stroke-miterlimit:10"
       d="m 592.20002,252.10001 c 0,30.54134 -24.75865,55.3 -55.3,55.3 -30.54134,0 -55.29999,-24.75866 -55.29999,-55.3 0,-30.54135 24.75865,-55.3 55.29999,-55.3 30.54135,0 55.3,24.75865 55.3,55.3 z" /><g
       id="g6444"><path
         d="m 537.6,189.1 c 22.9,0 44.4,12.2 56.2,32 11.9,12.5 67,110.8 56.9,120.8 -3.1,3.1 -6.4,6.3 -14.1,6.3 -11.4,0 -32.3,-7.1 -76.4,-32.2 l -177.4,53.8 c -1.6,0.7 -3.3,1.3 -5,1.8 -0.6,0.2 -1.1,0.3 -1.7,0.5 -0.1,0.1 -0.2,0.3 -0.3,0.4 -37.2,63.3 -50.3,77.3 -59.4,77.3 -2.9,0 -5.4,-1.4 -8.1,-3.1 -19.7,-12.2 -14.8,-133.9 -14.8,-133.9 l 0,0 c -1.7,-29.4 16.7,-57.2 46.1,-66.1 L 518.5,192 c 6.3,-2 12.8,-2.9 19.1,-2.9 m 0,-6 0,6 0,-6 c -7,0 -14.1,1.1 -20.9,3.1 L 337.8,241 c -15.6,4.8 -28.7,14.4 -37.9,27.8 -8.9,12.9 -13.3,28.6 -12.5,44.1 -0.1,3 -1.1,32.3 0,62.6 0.7,18.8 2.2,34.4 4.3,46.3 2.9,16.7 7.2,26.3 13.4,30.1 2.6,1.6 6.4,4 11.2,4 11.7,0 24.3,-11.8 63.6,-78.6 1.5,-0.5 3.1,-1 4.8,-1.7 l 174.7,-52.9 c 38.8,21.9 62.6,31.7 77.2,31.7 10.2,0 15.1,-4.9 18.3,-8.1 4.4,-4.4 4,-12.4 -1.6,-27.7 -3.7,-10.2 -9.8,-23.6 -17.6,-38.8 -13.5,-26.4 -30.3,-54.4 -37.2,-62.2 -12.7,-21.3 -36,-34.5 -60.9,-34.5 l 0,0 z"
         id="path6446"
         inkscape:connector-curvature="0"
         style="fill:#d7e2f2" /></g><g
       id="g6448"><path
         d="m 350.2,277.5 5.7,18.7 18.7,-5.7 4,13.1 -18.7,5.7 5.7,18.7 -13.1,4 -5.7,-18.7 -18.7,5.7 -4,-13.1 18.7,-5.7 -5.7,-18.7 13.1,-4 m 0,-4 c -0.4,0 -0.8,0.1 -1.2,0.2 l -13.1,4 c -2.1,0.6 -3.3,2.9 -2.7,5 l 4.5,14.9 -14.9,4.5 c -1,0.3 -1.9,1 -2.4,1.9 -0.5,0.9 -0.6,2 -0.3,3 l 4,13.1 c 0.5,1.7 2.1,2.8 3.8,2.8 0.4,0 0.8,-0.1 1.2,-0.2 l 14.9,-4.5 4.5,14.9 c 0.3,1 1,1.9 1.9,2.4 0.6,0.3 1.2,0.5 1.9,0.5 0.4,0 0.8,-0.1 1.2,-0.2 l 13.1,-4 c 1,-0.3 1.9,-1 2.4,-1.9 0.5,-0.9 0.6,-2 0.3,-3 l -4.5,-14.9 14.9,-4.5 c 1,-0.3 1.9,-1 2.4,-1.9 0.5,-0.9 0.6,-2 0.3,-3 l -4,-13.1 c -0.5,-1.7 -2.1,-2.8 -3.8,-2.8 -0.4,0 -0.8,0.1 -1.2,0.2 l -14.9,4.5 -4.5,-14.9 c -0.5,-1.9 -2.1,-3 -3.8,-3 l 0,0 z"
         id="path6450"
         inkscape:connector-curvature="0"
         style="fill:#d7e2f2" /></g><circle
       stroke-miterlimit="10"
       cx="514.09998"
       cy="241.5"
       r="9.8999996"
       id="circle6452"
       sodipodi:cx="514.09998"
       sodipodi:cy="241.5"
       sodipodi:rx="9.8999996"
       sodipodi:ry="9.8999996"
       style="fill:none;stroke:#d7e2f2;stroke-width:4;stroke-linecap:round;stroke-linejoin:round;stroke-miterlimit:10"
       d="m 523.99998,241.5 c 0,5.46762 -4.43239,9.9 -9.9,9.9 -5.46762,0 -9.9,-4.43238 -9.9,-9.9 0,-5.46762 4.43238,-9.9 9.9,-9.9 5.46761,0 9.9,4.43238 9.9,9.9 z" /><circle
       stroke-miterlimit="10"
       cx="557.29999"
       cy="258.5"
       r="9.8999996"
       id="circle6454"
       sodipodi:cx="557.29999"
       sodipodi:cy="258.5"
       sodipodi:rx="9.8999996"
       sodipodi:ry="9.8999996"
       style="fill:none;stroke:#d7e2f2;stroke-width:4;stroke-linecap:round;stroke-linejoin:round;stroke-miterlimit:10"
       d="m 567.19999,258.5 c 0,5.46762 -4.43238,9.9 -9.9,9.9 -5.46762,0 -9.9,-4.43238 -9.9,-9.9 0,-5.46762 4.43238,-9.9 9.9,-9.9 5.46762,0 9.9,4.43238 9.9,9.9 z" /><circle
       stroke-miterlimit="10"
       cx="546.79999"
       cy="219.7"
       r="9.8999996"
       id="circle6456"
       sodipodi:cx="546.79999"
       sodipodi:cy="219.7"
       sodipodi:rx="9.8999996"
       sodipodi:ry="9.8999996"
       style="fill:none;stroke:#d7e2f2;stroke-width:4;stroke-linecap:round;stroke-linejoin:round;stroke-miterlimit:10"
       d="m 556.69999,219.7 c 0,5.46762 -4.43238,9.9 -9.9,9.9 -5.46762,0 -9.9,-4.43238 -9.9,-9.9 0,-5.46762 4.43238,-9.9 9.9,-9.9 5.46762,0 9.9,4.43238 9.9,9.9 z" /><circle
       stroke-miterlimit="10"
       cx="522.20001"
       cy="279.29999"
       r="9.8999996"
       id="circle6458"
       sodipodi:cx="522.20001"
       sodipodi:cy="279.29999"
       sodipodi:rx="9.8999996"
       sodipodi:ry="9.8999996"
       style="fill:none;stroke:#d7e2f2;stroke-width:4;stroke-linecap:round;stroke-linejoin:round;stroke-miterlimit:10"
       d="m 532.10001,279.29999 c 0,5.46762 -4.43238,9.9 -9.9,9.9 -5.46762,0 -9.9,-4.43238 -9.9,-9.9 0,-5.46762 4.43238,-9.9 9.9,-9.9 5.46762,0 9.9,4.43238 9.9,9.9 z" /><circle
       stroke-miterlimit="10"
       cx="439.29999"
       cy="262.89999"
       r="12"
       id="circle6460"
       sodipodi:cx="439.29999"
       sodipodi:cy="262.89999"
       sodipodi:rx="12"
       sodipodi:ry="12"
       style="fill:none;stroke:#d7e2f2;stroke-width:4;stroke-linecap:round;stroke-linejoin:round;stroke-miterlimit:10"
       d="m 451.29999,262.89999 c 0,6.62742 -5.37259,12 -12,12 -6.62742,0 -12,-5.37258 -12,-12 0,-6.62741 5.37258,-12 12,-12 6.62741,0 12,5.37259 12,12 z" /><ellipse
       transform="matrix(0.3256,-0.9455,0.9455,0.3256,-4.8081,620.1412)"
       stroke-miterlimit="10"
       cx="432.29999"
       cy="313.39999"
       rx="9.8999996"
       ry="5.5"
       id="ellipse6462"
       sodipodi:cx="432.29999"
       sodipodi:cy="313.39999"
       sodipodi:rx="9.8999996"
       sodipodi:ry="5.5"
       style="fill:none;stroke:#d7e2f2;stroke-width:4;stroke-linecap:round;stroke-linejoin:round;stroke-miterlimit:10"
       d="m 442.19999,313.39999 c 0,3.03757 -4.43238,5.5 -9.9,5.5 -5.46762,0 -9.9,-2.46243 -9.9,-5.5 0,-3.03756 4.43238,-5.5 9.9,-5.5 5.46762,0 9.9,2.46244 9.9,5.5 z" /><ellipse
       transform="matrix(0.3867,-0.9222,0.9222,0.3867,5.8771,616.9371)"
       stroke-miterlimit="10"
       cx="466.79999"
       cy="304"
       rx="9.8999996"
       ry="5.5"
       id="ellipse6464"
       sodipodi:cx="466.79999"
       sodipodi:cy="304"
       sodipodi:rx="9.8999996"
       sodipodi:ry="5.5"
       style="fill:none;stroke:#d7e2f2;stroke-width:4;stroke-linecap:round;stroke-linejoin:round;stroke-miterlimit:10"
       d="m 476.69999,304 c 0,3.03757 -4.43238,5.5 -9.9,5.5 -5.46762,0 -9.9,-2.46243 -9.9,-5.5 0,-3.03757 4.43238,-5.5 9.9,-5.5 5.46762,0 9.9,2.46243 9.9,5.5 z" /></g><g
     id="g6466"
     transform="matrix(0.94432419,-0.22026106,0.22026106,0.94432419,-81.423329,41.393918)"><path
       stroke-miterlimit="10"
       d="M 173.2,340.1 70.9,208.7 c -0.7,-0.9 -0.5,-2.1 0.3,-2.8 L 291.7,34.2 c 0.9,-0.7 2.1,-0.5 2.8,0.3 L 396.8,166 c 0.7,0.9 0.5,2.1 -0.3,2.8 L 176,340.5 c -0.8,0.6 -2.1,0.5 -2.8,-0.4 z"
       id="path6468"
       inkscape:connector-curvature="0"
       style="fill:none;stroke:#d7e2f2;stroke-width:6;stroke-linecap:round;stroke-linejoin:round;stroke-miterlimit:10" /><path
       stroke-miterlimit="10"
       d="m 191,318.7 -95,-122 c -0.6,-0.8 -0.5,-1.9 0.3,-2.5 L 290.4,43.1 c 0.8,-0.6 1.9,-0.5 2.5,0.3 l 95,122 c 0.6,0.8 0.5,1.9 -0.3,2.5 L 193.5,319 c -0.7,0.7 -1.9,0.5 -2.5,-0.3 z"
       id="path6470"
       inkscape:connector-curvature="0"
       style="fill:none;stroke:#d7e2f2;stroke-width:3;stroke-linecap:round;stroke-linejoin:round;stroke-miterlimit:10" /><circle
       stroke-miterlimit="10"
       cx="133.10001"
       cy="265.89999"
       r="9"
       id="circle6472"
       sodipodi:cx="133.10001"
       sodipodi:cy="265.89999"
       sodipodi:rx="9"
       sodipodi:ry="9"
       style="fill:none;stroke:#d7e2f2;stroke-width:3;stroke-linecap:round;stroke-linejoin:round;stroke-miterlimit:10"
       d="m 142.10001,265.89999 c 0,4.97057 -4.02944,9 -9,9 -4.97057,0 -9,-4.02943 -9,-9 0,-4.97056 4.02943,-9 9,-9 4.97056,0 9,4.02944 9,9 z" /><line
       stroke-miterlimit="10"
       x1="322.70001"
       y1="95.800003"
       x2="344.5"
       y2="123.6"
       id="line6474"
       style="fill:none;stroke:#d7e2f2;stroke-linecap:round;stroke-linejoin:round;stroke-miterlimit:10" /><polygon
       points="193.5,218.8 191.5,216.4 187.7,219.3 185.8,216.9 179.2,222 177.5,219.8 175.6,221.2 173.8,219 185.9,209.6 184.3,207.7 171.2,217.9 169.3,215.4 149.9,230.5 151.8,233 153.7,231.5 155.1,233.2 154.3,233.9 156.2,236.4 158,235 159.7,237.2 155.4,240.5 157.4,243 161.2,240 163.1,242.5 169.8,237.3 171.7,239.8 165.1,244.9 166.7,247.1 162.9,250.1 164.8,252.5 169.1,249.2 171.1,251.7 169.2,253.1 171.2,255.6 172,254.9 173.5,256.9 171.6,258.4 173.5,260.9 192.9,245.7 191,243.2 204.1,233 202.6,231.1 190.6,240.4 188.7,238 190.5,236.5 188.6,234.1 195.2,228.9 193.5,226.8 197.3,223.8 195.4,221.3 202,216.2 200.1,213.7 "
       id="polygon6476"
       style="fill:#d7e2f2" /><polygon
       points="259,101.5 266.9,95.3 269.9,99.1 261.9,105.3 264.9,109.1 276.9,99.7 278.6,102 282.3,99.1 280.6,96.9 284,94.2 281,90.4 277.6,93.1 274.1,88.6 277.5,86 274.6,82.2 271.2,84.9 269.8,83 266.1,85.9 268,88.4 256,97.7 "
       id="polygon6478"
       style="fill:#d7e2f2" /><polygon
       points="275.6,122.8 283.5,116.6 286.5,120.4 278.5,126.6 281.5,130.4 293.5,121 295.2,123.3 298.9,120.4 297.2,118.2 300.6,115.5 297.6,111.8 294.2,114.4 290.7,110 294.1,107.3 291.2,103.5 287.8,106.2 286.4,104.3 282.7,107.2 284.6,109.7 272.6,119 "
       id="polygon6480"
       style="fill:#d7e2f2" /><polygon
       points="290.8,142.3 298.7,136.1 301.7,139.9 293.7,146.1 296.7,149.9 308.7,140.5 310.4,142.8 314.1,139.9 312.3,137.7 315.7,135 312.8,131.3 309.4,133.9 305.9,129.5 309.3,126.8 306.4,123 303,125.7 301.6,123.8 297.9,126.7 299.8,129.2 287.8,138.5 "
       id="polygon6482"
       style="fill:#d7e2f2" /><polygon
       points="305.4,161.2 313.4,154.9 316.3,158.7 308.4,164.9 311.3,168.7 323.3,159.4 325.1,161.6 328.7,158.7 327,156.5 330.4,153.9 327.5,150.1 324.1,152.7 320.6,148.3 324,145.6 321,141.8 317.6,144.5 316.2,142.7 312.6,145.5 314.5,148 302.5,157.4 "
       id="polygon6484"
       style="fill:#d7e2f2" /><polygon
       points="319.9,179.7 327.8,173.5 330.8,177.3 322.8,183.5 325.8,187.3 337.8,177.9 339.5,180.2 343.2,177.3 341.5,175.1 344.9,172.4 341.9,168.6 338.5,171.3 335,166.8 338.4,164.2 335.5,160.4 332.1,163.1 330.7,161.2 327,164.1 328.9,166.6 316.9,175.9 "
       id="polygon6486"
       style="fill:#d7e2f2" /><polygon
       points="252.6,141.8 260.5,135.6 263.5,139.4 255.5,145.6 258.5,149.4 270.5,140 272.2,142.3 275.9,139.4 274.2,137.2 277.6,134.5 274.6,130.8 271.2,133.4 267.7,129 271.1,126.3 268.2,122.5 264.8,125.2 263.4,123.3 259.7,126.2 261.6,128.7 249.6,138 "
       id="polygon6488"
       style="fill:#d7e2f2" /><polygon
       points="268.1,159.9 276.1,153.7 279.1,157.5 271.1,163.7 274,167.5 286.1,158.2 287.8,160.4 291.5,157.5 289.7,155.3 293.1,152.7 290.2,148.9 286.8,151.5 283.3,147.1 286.7,144.4 283.8,140.6 280.4,143.3 278.9,141.4 275.3,144.3 277.2,146.8 265.2,156.2 "
       id="polygon6490"
       style="fill:#d7e2f2" /><polygon
       points="282.8,178.8 290.8,172.6 293.7,176.3 285.8,182.6 288.7,186.3 300.7,177 302.5,179.2 306.1,176.4 304.4,174.1 307.8,171.5 304.8,167.7 301.4,170.3 298,165.9 301.4,163.2 298.4,159.5 295,162.1 293.6,160.3 289.9,163.1 291.9,165.6 279.8,175 "
       id="polygon6492"
       style="fill:#d7e2f2" /><line
       stroke-miterlimit="10"
       x1="227.39999"
       y1="194.5"
       x2="207.7"
       y2="209.89999"
       id="line6494"
       style="fill:none;stroke:#d7e2f2;stroke-miterlimit:10" /></g></svg>