<?xml version="1.0" encoding="utf-8"?>
<!-- Generator: Adobe Illustrator 17.0.0, SVG Export Plug-In . SVG Version: 6.00 Build 0)  -->
<!DOCTYPE svg PUBLIC "-//W3C//DTD SVG 1.1//EN" "http://www.w3.org/Graphics/SVG/1.1/DTD/svg11.dtd">
<svg version="1.1" id="Socialmedia_Icons_and_cartoons"
	 xmlns="http://www.w3.org/2000/svg" xmlns:xlink="http://www.w3.org/1999/xlink" x="0px" y="0px" width="250px" height="250px"
	 viewBox="166.244 296.711 250 250" enable-background="new 166.244 296.711 250 250" xml:space="preserve">
<polyline fill="none" stroke="#D7E2F2" stroke-width="1.2262" stroke-linecap="round" stroke-linejoin="round" stroke-miterlimit="10" points="
	192.81,387.015 189.457,337.476 214.372,335.806 "/>
<polyline fill="none" stroke="#D7E2F2" stroke-width="1.2262" stroke-linecap="round" stroke-linejoin="round" stroke-miterlimit="10" points="
	208.36,381.542 221.078,305.68 405.31,336.497 393.98,403.201 "/>
<path fill="none" stroke="#D7E2F2" stroke-width="1.2262" stroke-linecap="round" stroke-linejoin="round" stroke-miterlimit="10" d="
	M234.085,393.408l-3.064-10.023c-0.578-1.786-2.544-2.938-4.336-2.362l-50.986,15.092c-1.792,0.576-2.948,2.535-2.37,4.32
	l3.064,10.023c0.578,1.786-0.578,3.744-2.37,4.32l0,0c-1.792,0.576-2.948,2.535-2.37,4.32l43.24,120.793l198.221-58.582
	L379.354,357.58c-0.578-1.786-2.544-2.938-4.336-2.362l-136.656,40.437C236.628,396.173,234.663,395.194,234.085,393.408z"/>
<path fill="#D7E2F2" d="M239.114,320.887c-3.526,1.786-4.914,5.184-4.914,8.928c0,2.938,0.867,5.991,2.254,8.525
	c2.37,4.32,10.232,8.525-0.867,13.249c-0.694,0.288-1.098,1.382-0.289,1.786c3.526,2.362-2.659,5.184-3.642,6.567
	c-0.405,0.979-0.694,1.958-0.694,3.053c-0.289,3.341,1.792,5.703,4.047,7.834c0.578,0.576,1.561-0.288,1.098-0.864
	c-2.775-4.435-4.22-6.164,0.289-10.484c1.676-1.555,1.965-0.979,2.544-2.65c0.578-1.67,0.116-2.938-0.867-4.032
	c2.544-1.267,5.203-3.053,5.434-6.164c0.116-1.786-0.578-2.938-1.561-4.32c-3.757-5.299-11.619-15.61-2.544-21.083
	C239.981,321.29,239.576,320.599,239.114,320.887z"/>
<path fill="#D7E2F2" d="M282.527,335.518c-7.573-4.723-26.302-8.352-25.493,5.991c0.867,12.961,9.538,28.859,24.221,28.456
	c0.116,0,0.116-0.115,0-0.115c-5.318,0-10.521-2.65-13.874-6.682c-3.757-4.608-7.977-12.845-7.977-19.124
	c0-3.226,5.607-10.196,8.671-10.599c2.544-0.288,5.318,0.576,7.688,1.555c3.931,1.555,7.399,3.917,10.521,6.682
	c6.59,5.875,12.197,14.343,7.168,23.041c-5.896,10.311-19.308,9.332-27.169,1.786c-0.578-0.576-1.561,0.115-0.983,0.864
	c7.688,9.62,22.834,10.311,29.829-0.576C303.106,354.469,292.875,341.912,282.527,335.518z"/>
<path fill="#D7E2F2" d="M282.122,344.043c-1.561-0.864-2.948-1.267-4.336-1.267c-4.336-3.226-10.348-2.938-12.602,4.032
	c-3.237,10.311,8.671,22.753,19.192,18.836C294.146,362.015,289.002,347.902,282.122,344.043z M278.076,364.549
	c-7.862-1.555-15.839-11.981-10.752-19.815c2.544-3.917,6.59-3.744,9.827-1.786c-7.399,0.576-11.908,11.002-4.22,16.474
	c0.578,0.403,1.098-0.403,0.578-0.864c-6.995-5.875-0.983-15.092,5.896-13.537c0.405,0.576,0.867,1.094,1.272,1.786
	c1.098,1.958,1.676,4.32,2.081,6.567c0.116,0.403,0.116,0.979,0.289,1.382c0.983,4.032-1.561,6.567-7.688,7.834
	c0-0.115-0.116,0-0.116,0.115c1.676,2.246,4.74,2.074,6.706,0.288c3.642-3.514,1.387-10.887-0.116-14.804
	c-0.405-1.094-0.983-2.074-1.676-2.938c1.272,0.403,2.544,1.267,3.757,2.362c2.254,2.362,4.047,6.279,4.22,9.504
	C288.539,362.879,283.105,365.529,278.076,364.549z"/>
<path fill="#D7E2F2" d="M259,360.921c-1.272-0.576-2.659,0.864-1.792,2.074c3.526,5.415-3.064,10.714-5.896,14.516
	c-2.254,2.938-3.353,6.394-1.965,10.023c0.289,0.576,1.098,0.288,0.867-0.288c-2.775-7.949,9.365-11.175,11.908-17.166
	C263.624,366.335,262.641,362.591,259,360.921z"/>
<path fill="#D7E2F2" d="M249.635,363.685c-1.387,4.435-2.659,9.332-5.203,13.364c-0.405,0.576,0.405,1.094,0.867,0.576
	c2.948-4.32,5.434-8.237,5.723-13.537C251.022,363.282,249.924,362.879,249.635,363.685z"/>
<path fill="#D7E2F2" d="M311.257,333.444c-1.387,3.744-2.254,7.834-2.775,11.866c-0.116,0-0.289,0.115-0.405,0.288
	c-2.948,4.435-3.931,11.002-5.434,16.186c-0.867,2.765-1.561,5.587-2.254,8.237c-0.405,1.382-1.272,3.226-0.578,4.723
	c0,0.115,0.289,0.288,0.405,0.288c0.694,0,0.694,0,0.983-0.576c0.116-0.288-0.289-0.576-0.405-0.288
	c1.387-2.246,2.081-5.991,2.948-8.352c0.867-2.362,1.676-4.896,2.544-7.258c0.116-0.576,0.405-1.094,0.578-1.67
	c-0.405,3.053-0.578,5.991,0,8.928c0.289,1.094,1.792,0.864,2.081-0.115c1.387-4.435,0.983-9.504,1.387-14.113
	c0.405-5.991,1.676-11.866,1.792-17.857C311.951,333.271,311.373,333.156,311.257,333.444z"/>
<path fill="#D7E2F2" d="M352.821,335.633c-12.891-1.267-26.187-1.958-39.078-1.555c-0.289,0-0.405,0.576-0.116,0.691
	c2.081,0.403,4.336,0.691,6.59,0.979c-1.272,3.341-1.965,6.855-2.659,10.311c-1.965-0.115-3.931-0.115-5.896-0.115
	c-0.116,0-0.289,0.288-0.116,0.288c1.792,0.403,3.757,0.864,5.723,1.267c-0.289,1.382-0.405,2.765-0.694,4.032
	c-0.116,1.094-0.694,3.053-1.098,5.184c-1.561,0.288-3.064,0.691-4.625,1.094c-0.578,0.115-0.289,0.979,0.116,0.979
	c1.387,0,2.775,0.115,4.047,0c-0.405,3.226-0.289,6.279,1.965,7.143c0.867,0.288,1.676-0.115,1.792-1.094
	c0.116-0.403,0-0.691-0.116-1.094c-0.116-1.555,0.289-3.514,0.578-5.184c2.081-0.115,4.336-0.288,6.417-0.576
	c-0.405,2.65-0.867,5.299-0.983,7.949c0,1.094,1.272,1.67,2.081,0.979c1.272-0.979,1.561-1.786,1.561-3.341
	c0-0.288-0.116-0.403-0.289-0.403c0.405-1.786,0.578-3.514,0.867-5.299c0.116,0,0.289,0,0.405,0
	c3.353-0.288,6.879-0.288,10.348-0.691c0,1.555,0,2.938,0.405,4.32c0,0.576,0.405,0.864,0.983,0.979h0.116h0.116
	c0.405,0,0.983-0.288,1.098-0.864c0.578-1.555,0.867-3.341,0.867-5.184c0.867-0.115,1.792-0.403,2.659-0.576
	c0.405,0,0.867-0.288,0.983-0.691l0.116-0.288c0.116,0.691,0.578,1.267,1.272,1.67c0.405,0.288,1.272,0.288,1.561-0.115
	c0.578-0.691,0.694-0.979,0.405-1.786c-0.116-0.403-0.578-0.691-0.983-0.576l0,0c0.578-0.403,0.867-0.979,0.694-1.67
	c0-0.576,0-1.094,0-1.786c0-1.67,0-3.514,0-5.184c0-2.362,0-4.723-0.116-6.97c0.116,0,0.405,0,0.578,0
	c0,0.403,0.289,0.864,0.867,0.864c1.272-0.115,1.561-0.288,2.37-1.267C354.497,337.476,353.919,335.806,352.821,335.633z
	 M320.911,336.094c6.995,0.979,14.163,1.67,21.273,2.246c-0.405,2.765-0.983,5.703-1.272,8.525c-3.353,0-6.879,0.115-10.232,0
	c0,0,0,0-0.116,0c0.405-2.765,0.694-5.703,0.867-8.525c0-0.979-1.387-1.094-1.676-0.115c-0.867,2.765-1.387,5.703-1.965,8.64
	c-2.544-0.115-5.029-0.288-7.688-0.288C320.622,342.891,320.911,339.435,320.911,336.094z M326.345,355.045
	c-2.254,0.288-4.625,0.691-6.879,1.094c0.116-1.958,0.289-3.744,0.405-5.703c0-0.691,0.116-1.555,0.116-2.246
	c2.544,0.403,4.914,0.691,7.399,0.979c-0.116,0.979-0.289,1.958-0.578,2.938C326.75,353.087,326.634,354.066,326.345,355.045z
	 M340.508,350.552c0,0.691-0.116,1.382-0.289,2.074c-2.775,0.403-5.723,1.267-7.284,1.382c-1.098,0.115-2.37,0.288-3.526,0.403
	c0-0.403,0.116-0.864,0.116-1.267c0.116-1.382,0.405-2.65,0.578-4.032c0.116,0,0.116,0,0.289,0c3.237,0.288,6.59,0.691,9.943,0.864
	C340.508,350.322,340.508,350.437,340.508,350.552z M343.283,352.395c0-0.576,0-0.979,0-1.555c0-0.288,0-0.403,0-0.691
	c1.387,0,2.775-0.115,4.22-0.403c-0.116,1.094-0.578,2.535-0.578,3.744C346.231,352.799,344.843,352.511,343.283,352.395z
	 M347.792,347.384c-1.387-0.288-2.948-0.403-4.336-0.576c0-2.765,0-5.703,0-8.525c1.792,0.115,3.526,0.115,5.318,0.288
	C348.312,341.508,348.081,344.446,347.792,347.384z"/>
<path fill="#D7E2F2" d="M303.106,328.548c-1.387-0.576-3.757-0.288-5.318-0.115c-1.387,0.115-2.659,0.403-3.931,0.864
	c0.405-0.288,0.867-0.691,1.098-0.979c0.867-0.864,0.116-2.938-1.272-2.362c-2.37,0.864-4.625,2.65-6.706,4.032
	c-1.272,0.864-0.694,2.765,0.867,2.938c0.983,0,1.965,0.288,2.775,0.576c1.676,2.362,4.336,4.32,6.417,5.991
	c1.272,0.979,3.353-0.288,2.659-1.786c-1.387-3.053-3.642-5.299-6.417-6.567c1.561-0.115,2.948-0.115,4.451-0.115
	c1.272,0,2.659,0,3.931,0.288c0.116,0.288,0.289,0.403,0.405,0.576C304.667,332.58,305.188,329.354,303.106,328.548z"/>
<path fill="#D7E2F2" d="M365.712,337.188c-2.254,2.65-4.74,6.279-4.625,9.908c0,1.094,1.965,1.382,2.081,0.288
	c0.116-0.403,0.289-0.691,0.405-1.094c0.289-0.576,0.694-1.094,1.272-1.555c0.405-0.403-0.116-0.979-0.578-0.691
	c0,0-0.116,0-0.116,0.115c0.116-0.576,0.289-0.979,0.405-1.555c0.578-1.555,1.272-3.226,2.081-4.608
	C366.81,337.303,366.116,336.785,365.712,337.188z"/>
<g>
	<g enable-background="new    ">
		<path fill="#D7E2F2" d="M225.24,481.425l-6.128,1.786l-3.526-11.981l-2.312,0.691l2.717,9.159l-6.128,1.786l-6.359-21.659
			l6.128-1.786l2.544,8.698l2.312-0.691l-2.544-8.698l6.128-1.786L225.24,481.425z"/>
		<path fill="#D7E2F2" d="M220.211,456.311l9.943-2.88l6.763,5.76l4.278,14.516l-6.185,1.786l-2.717-9.159l-2.312,0.691l2.717,9.159
			l-6.128,1.786L220.211,456.311z M231.194,462.589l-3.584-3.744l1.33,4.435L231.194,462.589z"/>
		<path fill="#D7E2F2" d="M252.583,450.954l2.139,7.2l-3.353,1.037l4.336,2.362l2.948,10.138l-6.128,1.786l-2.717-9.274l-2.948-1.67
			l2.601,8.813l-6.128,1.786l-6.359-21.659l9.885-2.88L252.583,450.954z M247.901,457.693l-1.041-3.456l-2.312,0.691l1.041,3.456
			L247.901,457.693z"/>
		<path fill="#D7E2F2" d="M273.22,459.364l-3.295,5.933l-9.943,2.88l-6.359-21.659l9.943-2.88l6.763,5.76L273.22,459.364z
			 M266.919,460.458l-3.295-11.117l-2.312,0.691l3.295,11.117L266.919,460.458z"/>
		<path fill="#D7E2F2" d="M280.909,438.569l6.185-1.786l3.468,11.809l2.312-0.691l-3.468-11.809l6.128-1.786l4.798,16.359
			l2.312-0.691l-4.798-16.359l6.185-1.786l6.359,21.659l-9.943,2.88l-6.012-3.226l-8.44,2.477L280.909,438.569z"/>
		<path fill="#D7E2F2" d="M306.112,431.253l9.943-2.88l6.012,3.283l4.971,16.993l-9.943,2.88l-6.012-3.226L306.112,431.253z
			 M319.35,445.136l-3.295-11.117l-2.312,0.691l3.295,11.117L319.35,445.136z"/>
		<path fill="#D7E2F2" d="M338.485,425.839l2.139,7.2l-3.353,1.037l4.336,2.362l2.948,10.138l-6.128,1.786l-2.717-9.274l-2.948-1.67
			l2.601,8.813l-6.128,1.786l-6.359-21.659l9.885-2.88L338.485,425.839z M333.802,432.636l-1.041-3.456l-2.312,0.691l1.041,3.456
			L333.802,432.636z"/>
		<path fill="#D7E2F2" d="M361.261,441.68l-6.128,1.786l-3.411-11.521l-2.312,0.691l2.544,8.698l-6.128,1.786l-6.359-21.659
			l6.128-1.786l2.601,8.871l1.619-2.938l-1.098-3.744l6.128-1.786l1.33,4.493l-2.37,4.378l3.353-0.979L361.261,441.68z"/>
		<path fill="#D7E2F2" d="M356.231,416.565l6.128-1.786l4.336,14.631l-6.128,1.786L356.231,416.565z M368.718,436.438l-6.128,1.786
			l-1.387-4.723l6.128-1.786L368.718,436.438z"/>
		<path fill="#D7E2F2" d="M364.556,414.145l6.128-1.786l4.336,14.631l-6.185,1.843L364.556,414.145z M377.042,434.018l-6.128,1.786
			l-1.387-4.723l6.128-1.786L377.042,434.018z"/>
	</g>
</g>
</svg>
