<?xml version="1.0" encoding="utf-8"?>
<!-- Generator: Adobe Illustrator 18.0.0, SVG Export Plug-In . SVG Version: 6.00 Build 0)  -->
<!DOCTYPE svg PUBLIC "-//W3C//DTD SVG 1.1//EN" "http://www.w3.org/Graphics/SVG/1.1/DTD/svg11.dtd">
<svg version="1.1" id="Socialmedia_Icons_and_cartoons"
	 xmlns="http://www.w3.org/2000/svg" xmlns:xlink="http://www.w3.org/1999/xlink" x="0px" y="0px" viewBox="0 0 108 114.4"
	 enable-background="new 0 0 108 114.4" xml:space="preserve">
<g>
	<g>
		<g>
			<path fill="#D7E2F2" d="M53.9,25.6c8.4,0,15.2,6.8,15.2,15.2c0,2.3-0.5,4.5-1.4,6.4l0,0l0,0c-0.1,0.3-0.3,0.6-0.5,0.9L54.5,73
				c-0.1,0.2-0.4,0.4-0.6,0.4c-0.2,0-0.5-0.1-0.6-0.4L41,48.9c-0.4-0.7-0.8-1.5-1.2-2.3l0,0l0,0c-0.8-2-1.2-4.1-1.1-6.4
				c0.3-7.8,6.6-14.2,14.5-14.6C53.4,25.6,53.7,25.6,53.9,25.6 M53.9,49.8c5,0,9-4,9-9s-4-9-9-9s-9,4-9,9S49,49.8,53.9,49.8
				 M53.9,24.2c-0.3,0-0.5,0-0.8,0c-8.5,0.4-15.4,7.4-15.8,15.9c-0.1,2.4,0.3,4.7,1.2,6.9c0,0.1,0,0.1,0.1,0.2
				c0.3,0.8,0.7,1.6,1.2,2.4l12.3,24.1c0.3,0.7,1,1.1,1.8,1.1c0.8,0,1.5-0.4,1.8-1.1l12.7-24.8c0.2-0.3,0.3-0.6,0.5-1c0,0,0,0,0,0
				l0,0c1-2.2,1.6-4.6,1.6-7C70.6,31.7,63.1,24.2,53.9,24.2L53.9,24.2z M53.9,48.4c-4.2,0-7.6-3.4-7.6-7.6s3.4-7.6,7.6-7.6
				s7.6,3.4,7.6,7.6S58.2,48.4,53.9,48.4L53.9,48.4z"/>
		</g>
	</g>
	<g>
		<path fill="#D7E2F2" d="M98.9,90.2H9.1c-0.5,0-0.7-0.5-0.5-0.9l19.3-27.5c0.1-0.2,0.3-0.2,0.5-0.2h12.3c0.2,0,0.4,0.1,0.5,0.3l0,0
			c0.2,0.4-0.1,0.9-0.5,0.9H29c-0.2,0-0.4,0.1-0.5,0.2L11.6,87.4c-0.3,0.4,0,0.9,0.5,0.9h84.1c0.4,0,0.7-0.5,0.5-0.9L82.2,62.1
			c-0.1-0.2-0.3-0.3-0.5-0.3H68.9c-0.4,0-0.6-0.3-0.6-0.7l0-0.2c0.1-0.3,0.3-0.5,0.6-0.5h13.5c0.2,0,0.4,0.1,0.5,0.3l16.4,28.7
			C99.7,89.7,99.4,90.2,98.9,90.2z"/>
	</g>
	<g>
		<g>
			<path fill="#D7E2F2" d="M20.8,75.8c0,0,0-0.1,0-0.1c-0.1-0.2,0.1-0.5,0.3-0.6l1.4-0.3L21.6,75l0.5-0.1c0.2,0,0.5,0.1,0.5,0.3
				c0,0,0,0,0,0c0.1,0.2-0.1,0.5-0.3,0.5l-1,0.3C21.1,76.2,20.9,76.1,20.8,75.8z"/>
		</g>
		<g>
			<path fill="#D7E2F2" d="M35.6,87.4c-0.3,0-0.6,0-0.9-0.1c-0.3,0-0.5-0.3-0.5-0.6l0.1-0.8c0-0.3,0.3-0.5,0.6-0.5
				c0.3,0,0.5,0,0.8,0c0.3,0,0.5,0.3,0.5,0.5l0,0.8C36.2,87.2,35.9,87.4,35.6,87.4z M38.2,87.4L38,85.5l0.1,0c0.4,0,0.8-0.1,1.2-0.1
				c0.3,0,0.6,0.1,0.6,0.4l0.2,0.8c0.1,0.3-0.1,0.6-0.4,0.6c-0.4,0.1-0.9,0.1-1.3,0.2L38.2,87.4z M31.6,86.9
				c-0.3-0.1-0.6-0.2-0.9-0.3c-0.3-0.1-0.4-0.4-0.3-0.7l0.3-0.8c0.1-0.3,0.4-0.4,0.7-0.3c0.2,0.1,0.5,0.2,0.7,0.2
				c0.3,0.1,0.4,0.4,0.4,0.6l-0.2,0.8C32.2,86.8,31.9,86.9,31.6,86.9z M42,86.1l-0.2-0.8c-0.1-0.3,0.1-0.6,0.3-0.7
				c0.2-0.1,0.5-0.2,0.7-0.3c0.3-0.1,0.6,0,0.7,0.3l0.3,0.8c0.1,0.3,0,0.6-0.3,0.7c-0.3,0.1-0.6,0.2-0.8,0.3
				C42.4,86.5,42.1,86.4,42,86.1z M27.9,85.3c-0.3-0.2-0.5-0.3-0.8-0.5c-0.3-0.2-0.3-0.5-0.1-0.8l0.5-0.7c0.2-0.2,0.5-0.3,0.7-0.1
				c0.2,0.1,0.4,0.3,0.6,0.4c0.2,0.1,0.3,0.5,0.2,0.7l-0.4,0.7C28.5,85.3,28.2,85.4,27.9,85.3z M45.6,84.7L45.3,84
				c-0.1-0.3,0-0.6,0.3-0.7c0.2-0.1,0.5-0.2,0.7-0.4c0.3-0.1,0.6,0,0.7,0.2l0.4,0.7c0.1,0.3,0,0.6-0.2,0.7c-0.3,0.1-0.5,0.3-0.8,0.4
				C46.1,85.1,45.7,85,45.6,84.7z M49,83l-0.4-0.7c-0.1-0.3-0.1-0.6,0.2-0.7c0.2-0.1,0.5-0.3,0.7-0.4c0.3-0.1,0.6-0.1,0.7,0.2
				l0.4,0.7c0.1,0.3,0.1,0.6-0.2,0.7c-0.3,0.1-0.5,0.3-0.7,0.4C49.5,83.3,49.2,83.2,49,83z M24.7,82.7c-0.2-0.2-0.4-0.5-0.6-0.7
				c-0.2-0.2-0.2-0.6,0.1-0.8l0.7-0.5c0.2-0.2,0.6-0.1,0.7,0.1c0.2,0.2,0.3,0.4,0.5,0.6c0.2,0.2,0.2,0.5,0,0.7l-0.6,0.6
				C25.3,82.9,24.9,82.9,24.7,82.7z M52.4,81.1L52,80.3c-0.1-0.3-0.1-0.6,0.2-0.7c0.2-0.1,0.5-0.3,0.7-0.4c0.3-0.1,0.6-0.1,0.7,0.2
				l0.4,0.7c0.1,0.3,0.1,0.6-0.2,0.7c-0.2,0.1-0.5,0.3-0.7,0.4C52.9,81.4,52.5,81.3,52.4,81.1z M22.3,79.4c-0.1-0.3-0.3-0.5-0.4-0.8
				c-0.1-0.3,0-0.6,0.3-0.7l0.8-0.3c0.3-0.1,0.6,0,0.7,0.2c0.1,0.2,0.2,0.5,0.4,0.7c0.1,0.3,0.1,0.6-0.2,0.7l-0.7,0.4
				C22.8,79.8,22.5,79.7,22.3,79.4z M55.7,79.2l-0.4-0.7c-0.1-0.3,0-0.6,0.2-0.7c0.3-0.1,0.5-0.3,0.7-0.4c0.3-0.1,0.6,0,0.7,0.2
				l0.4,0.7c0.1,0.3,0,0.6-0.2,0.7c-0.2,0.1-0.5,0.3-0.7,0.4C56.2,79.5,55.8,79.4,55.7,79.2z M59.1,77.4l-0.4-0.7
				c-0.1-0.3,0-0.6,0.3-0.7c0.3-0.1,0.5-0.2,0.8-0.4c0.3-0.1,0.6,0,0.7,0.3l0.3,0.8c0.1,0.3,0,0.6-0.3,0.7c-0.2,0.1-0.5,0.2-0.7,0.3
				C59.5,77.8,59.2,77.7,59.1,77.4z M62.5,75.8l-0.3-0.8c-0.1-0.3,0-0.6,0.3-0.7c0.3-0.1,0.5-0.2,0.8-0.3c0.3-0.1,0.6,0.1,0.7,0.3
				l0.3,0.8c0.1,0.3-0.1,0.6-0.3,0.7c-0.2,0.1-0.5,0.2-0.8,0.3C62.9,76.3,62.6,76.1,62.5,75.8z M86,75.1c-0.3-0.1-0.5-0.1-0.8-0.2
				c-0.3-0.1-0.5-0.3-0.4-0.6l0.2-0.8c0.1-0.3,0.4-0.5,0.6-0.4c0.3,0.1,0.6,0.1,0.8,0.2c0.3,0.1,0.5,0.4,0.4,0.7l-0.2,0.8
				C86.6,74.9,86.3,75.1,86,75.1z M66.1,74.6l-0.2-0.8c-0.1-0.3,0.1-0.6,0.4-0.7c0.3-0.1,0.6-0.2,0.8-0.2c0.3-0.1,0.6,0.1,0.7,0.4
				l0.2,0.8c0.1,0.3-0.1,0.6-0.4,0.6c-0.3,0.1-0.5,0.1-0.8,0.2C66.5,75.1,66.2,74.9,66.1,74.6z M82.4,74.3c-0.3,0-0.5-0.1-0.8-0.1
				c-0.3,0-0.5-0.3-0.5-0.6l0.1-0.8c0-0.3,0.3-0.5,0.6-0.5c0.3,0,0.6,0.1,0.9,0.1c0.3,0,0.5,0.3,0.4,0.6L83,73.9
				C82.9,74.2,82.7,74.4,82.4,74.3z M69.8,73.8L69.7,73c-0.1-0.3,0.1-0.6,0.4-0.6c0.3,0,0.6-0.1,0.9-0.1c0.3,0,0.6,0.2,0.6,0.5
				l0.1,0.8c0,0.3-0.2,0.6-0.5,0.6c-0.3,0-0.5,0.1-0.8,0.1C70.1,74.3,69.8,74.1,69.8,73.8z M78.6,73.9c-0.3,0-0.5,0-0.8,0
				c-0.3,0-0.5-0.3-0.5-0.6l0-0.8c0-0.3,0.3-0.5,0.6-0.5c0.3,0,0.6,0,0.9,0.1c0.3,0,0.5,0.3,0.5,0.6l-0.1,0.8
				C79.2,73.7,78.9,73.9,78.6,73.9z M73.5,73.3l-0.1-0.8c0-0.3,0.2-0.6,0.5-0.6c0.3,0,0.6,0,0.9,0c0.3,0,0.5,0.2,0.6,0.5l0,0.8
				c0,0.3-0.2,0.5-0.5,0.5c-0.3,0-0.5,0-0.8,0C73.8,73.8,73.6,73.6,73.5,73.3z"/>
		</g>
		<g>
			<path fill="#D7E2F2" d="M88.9,75.8C88.9,75.8,88.9,75.8,88.9,75.8c-0.3-0.1-0.4-0.3-0.3-0.6l0.3-0.9c0.1-0.2,0.3-0.4,0.6-0.3
				c0,0,0,0,0,0c0.2,0.1,0.4,0.3,0.3,0.6l-0.3,0.9C89.4,75.8,89.1,75.9,88.9,75.8z"/>
		</g>
	</g>
</g>
</svg>
