<?xml version="1.0" encoding="utf-8"?>
<!-- Generator: Adobe Illustrator 18.0.0, SVG Export Plug-In . SVG Version: 6.00 Build 0)  -->
<!DOCTYPE svg PUBLIC "-//W3C//DTD SVG 1.1//EN" "http://www.w3.org/Graphics/SVG/1.1/DTD/svg11.dtd">
<svg version="1.1" id="Socialmedia_Icons_and_cartoons"
	 xmlns="http://www.w3.org/2000/svg" xmlns:xlink="http://www.w3.org/1999/xlink" x="0px" y="0px" viewBox="0 0 252.7 244"
	 enable-background="new 0 0 252.7 244" xml:space="preserve">
<g>
	<g>
		<path fill="#D7E2F2" d="M96,100.9c-0.6-0.4-1.2-0.7-1.8-1.2c-1.2-1-0.6-2.8,0.8-2.6c0.1,0.2,0.4,0.3,0.6,0.2
			c0.1,0,0.1,0.1,0.2,0.1c0.3,0.2,0.6-0.2,0.4-0.5c-0.1-0.1-0.1-0.1-0.2-0.2c0.6-2.7-0.5-5.7-1.4-8.2c-0.7-1.8-1.6-4.1-3.5-5.1
			c-3.3-1.7-8.3,3.2-6,6.4c0.2,0.2,0.6,0,0.5-0.3c-0.8-1.6,0.7-3.3,1.9-4c1.8-1,3.5,0.1,4.4,1.8c0.3,0.7,0.6,1.4,0.8,2.1
			c-9.3,2-9.3,16.8,0.9,16.6c0.6,0,0.7-0.9,0.2-1.1c-2.6-1-5.2-2.8-6-5.6c-0.2-0.5-0.3-1-0.3-1.5c-0.1-1.3,0.3-2.4,1.4-3.4
			c0.5-2.2,1.9-3.5,4.1-4c0.5,1.8,0.9,3.7,1.5,5.4c-1.7-0.2-3.5,1.5-3,3.5c0.3,1.1,1.1,1.9,2,2.5c1.1,0.9,2.2,1.9,3.5,2.6
			c0.3,0.2,0.7-0.1,0.8-0.5C98,102.6,97.1,101.7,96,100.9z"/>
		<path fill="#D7E2F2" d="M158.4,101.6c-1.6,1.3-3.7,2-5.8,2.2c-3.2,0.2-5.5-1.6-8.4-2.5c-0.1,0-0.3,0.1-0.2,0.2
			c0.1,0.2,0.3,0.5,0.4,0.7c0,0.1,0.1,0,0.1-0.1c0.8,2.5,5.4,4.4,8,4.5c3,0.1,5.6-1.3,6.8-4.1C159.7,101.9,159,101.1,158.4,101.6z"
			/>
		<path fill="#D7E2F2" d="M134.1,77.5c-0.5-1.2-2.3-1.3-2.9,0c-0.7,1.5-1,3.2-1.1,4.8c-0.5,2.9,0.3,6.2,1.5,8.5
			c0.7,1.3,2.5,1,2.9-0.3c0,0,0-0.1,0-0.1c0.6-0.2,1.1-0.9,1-1.8c-0.1-0.4-0.1-0.8-0.2-1.1C136,84.2,135.5,80.6,134.1,77.5z"/>
		<path fill="#D7E2F2" d="M169.4,77.7c-0.5,0.8-1,1.7-1.3,2.7c-1.3,2.1-1.5,5.1-1.5,7.4c0,1.1,1.5,2.3,2.5,1.2
			c2.6-2.9,3.3-7,2.9-10.8C171.8,77,170,76.7,169.4,77.7z"/>
		<path fill="#D7E2F2" d="M186.7,78.5c-0.6,0.7-1.5,1.2-2.4,1.6c-0.6,0.2-1.2,0.4-1.7,0.6c-0.2,0-0.3,0.1-0.4,0.2c0,0-0.1,0-0.1,0.1
			c0,0,0.1,0,0.1,0c-0.3,0.4-0.2,1.2,0.4,1.3c2.3,0.3,4.2-1,5-3.2C187.8,78.5,187.1,78,186.7,78.5z"/>
		<path fill="#D7E2F2" d="M187,82.3c-0.6,0.2-1.1,0.4-1.7,0.6c-0.9,0.3-1.8,0.4-2.8,0.1c-0.6-0.1-0.7,0.7-0.2,0.9
			c1.6,0.4,3.9,0.5,5.1-0.8C187.8,82.8,187.5,82.2,187,82.3z"/>
		<path fill="#D7E2F2" d="M168.9,107.3c-3.5,8.9-18,7.8-25.8,6.8c-8-1-16.2-3.5-22.2-9.1c-0.3-0.3-0.7,0.1-0.4,0.4
			c5.7,7.3,15.5,10.1,24.3,11.2c8.5,1.1,22.6,1.6,24.9-9C169.8,107.2,169.1,106.9,168.9,107.3z"/>
		<path fill="#D7E2F2" d="M152.8,122c-3.7,0.9-7.6,1.4-11.3,0.1c-0.5-0.2-0.8,0.6-0.3,0.8c3.9,1.7,8.1,2.2,11.9,0
			C153.7,122.7,153.4,121.9,152.8,122z"/>
		<path fill="#D7E2F2" d="M139,63.3c-3.9-6.2-21.4,2.1-21.8,8.4c0,0.4,0.5,0.6,0.7,0.2c1.1-3.6,7.2-6.2,10.4-7.3
			c3.1-1.1,6.9-2.2,10-0.6C138.6,64.2,139.3,63.8,139,63.3z"/>
		<path fill="#D7E2F2" d="M163.2,64c-0.7,0.1-0.5,1.2,0.2,1.2c4.5,0,10.2,0.4,12.6,5c0.2,0.4,0.8,0.2,0.7-0.3
			C174.9,64,168.5,63.2,163.2,64z"/>
		<path fill="#D7E2F2" d="M166.3,29.9c-1.2-1.3-2.6-2.4-4-3.3c-8.8-10.8-29.4-9-41-6.4c-0.5,0.1-0.3,0.9,0.2,0.8
			c9.5-1.7,23.3-2.4,33.3,2.1c-4.9-1.4-10.2-1.6-15.4-1c-0.1-0.1-0.2-0.2-0.3-0.2c-14.3-3-29.1,1.5-39.8,11.3
			c-3.1,2.9-6,6.3-8.4,10.1c-0.4,0.4-0.8,0.8-1.2,1.2c-0.3,0.3-0.2,0.6,0,0.8c-1.6,2.9-2.8,6-3.6,9.2c-3.4,6.3-4.5,13.5-1,19.7
			c0.1,0.3,0.5,0.2,0.7,0c0.1,0.3,0.2,0.6,0.3,0.9c0.2,0.4,0.8,0.2,0.7-0.2c-0.3-2.8,0.4-5.7,1.6-8.5c0,0,0,0,0,0
			c4.1-5.6,8.9-10,14.9-13.5c5.4-3.2,13.6-8.2,20.1-7c0.3,0.1,0.4-0.4,0.1-0.5c-6.4-2.4-14.7,2.5-20.2,5.4
			c-3.9,2.1-7.5,4.7-10.5,7.8c0.7-1,1.3-2,1.9-2.9c0.4-0.6-0.3-1.2-0.8-0.8c-4,3.2-8.3,9.9-8.4,15.8c-0.1-1.8,0-3.8,0.2-5.6
			c0,0.1,0,0.3,0,0.4c0,0.2,0.4,0.2,0.4,0c-0.1-1.2,0-2.4,0.1-3.5c0,0,0-0.1,0-0.1c0.1-0.5,0.3-1,0.4-1.5c0.4,0.1,0.9,0,1.2-0.5
			c1.1-1.9,2.3-3.6,3.7-5.3c0.3,0.4,0.9,0.6,1.4,0.2c8.4-6.4,18.1-10.8,28.6-12.3c9.2-1.3,21.8-1.2,28.5,6.5
			c0.5,0.5,1.3-0.1,0.9-0.7c-6.8-9.5-19.3-10.3-30.1-8.8c-7.7,1.1-15,3.7-21.5,7.8c17-12,43.4-12.7,58.2,2.3c0.4,0.4,1-0.2,0.7-0.6
			c-9.8-11.4-23.7-15.6-38.5-13.1c-9.8,1.7-20,5.9-27,13.1c0,0,0,0,0.1-0.1c3.4-4.2,7.8-7.4,12.7-9.8c0.8-0.4,0.3-1.5-0.5-1.2
			c-5.4,1.7-11.1,5.9-15.3,11.2c0.9-1.9,2-3.8,3.1-5.5c8.8-6.8,18.7-11.7,30-12.6c13.3-1.1,32.3,3.7,38.3,17.2
			c0.2,0.5,1,0.3,0.9-0.3c-2.7-10.8-13.8-16.8-24.4-19.1c1.5,0.2,2.9,0.4,4.4,0.7c10.3,1.9,22.9,9.2,21.5,21.4
			c0,0.3,0.4,0.4,0.5,0.1c6.2-29.7-39.8-28.2-56.7-21.2c-1,0.4-0.3,1.9,0.7,1.7c0.6-0.2,1.2-0.3,1.8-0.4c-4.3,1.6-8.4,3.8-12.2,6.5
			c1.5-1.6,3-3,4.6-4.4c9.3-7.6,20.8-10.7,32.6-10.6c-0.5,0.1-1.1,0.2-1.6,0.3c-1.2,0.3-1.1,2.1,0.2,1.9c7.8-0.9,16.1-1.2,23.5,2.2
			c9.1,4.1,16.6,15.5,11.8,25.3c-0.3,0.7,0.7,1.1,1.1,0.4C173.6,45,172.6,36.5,166.3,29.9z"/>
		<path fill="#D7E2F2" d="M187.1,74.1c0.1-0.5-0.5-0.7-0.8-0.4c-0.7,0.8-1.4,1.6-2.2,2.3c-0.9,1-1.9,1.7-2.9,2.6
			c-0.2-0.7-0.5-1.4-0.9-1.9c0-2.4-0.1-4.7-0.2-7.1c4.1-6.4,3.8-15.5-1.4-21.2c1.3-6.9-1-14.2-6.1-19.6c-0.2-0.2-0.5,0.1-0.3,0.3
			c4.2,5.6,5.7,11.7,4.8,17.8c-0.2-0.1-0.4,0.1-0.3,0.3c0.1,0.1,0.1,0.3,0.2,0.4c-0.3,1.9-0.8,3.7-1.6,5.6c-0.4,0-0.9,0.1-1.3,0.2
			c5.8-13.8-2.5-36.5-20.5-33.7c-0.5,0.1-0.4,0.8,0.1,0.7c9.8-0.7,16.1,6.4,18.9,14.9c-0.3,0-0.6,0.3-0.5,0.7c0.7,6.3,0,12.4-1,18.6
			c0,0.2,0.2,0.4,0.3,0.2c1-1.2,1.8-2.4,2.4-3.8c-0.2,0.9-0.4,1.8-0.6,2.7c0,0,0,0,0,0.1c-0.1,0.2,0,0.5,0.3,0.4
			c0.5-0.1,1,0,1.4,0.1c-0.3,0.7-0.6,1.4-1,2.1c-0.3,0.5,0.5,1.1,0.8,0.6c0.4-0.5,0.7-1,1.1-1.5c0,0.1,0,0.2,0.1,0.3
			c0.8,1,1.4,2.1,2,3.2c0.5,5.3,0.7,10.6,0.7,16c-0.2-0.1-0.3-0.2-0.5-0.3c-3.9-2.2-12.7-1.7-15.5,2.5c-1.1,0.9-1.9,2.1-2.2,3.5
			c0,0.2,0.2,0.4,0.3,0.2c0.5-0.5,1-1.1,1.6-1.6c0.2,0.1,0.4,0,0.6-0.2c0.3-0.4,0.6-0.8,1-1.1c0.9-0.6,1.8-1,2.7-1.5
			c0.2-0.1,0.3-0.2,0.3-0.3c3.7-1.6,8.8-1.9,11.4,0.3c0.1,0.1,0.2,0.2,0.3,0.3c-0.2,5.6-0.7,11.1-1.6,16.6c-0.4,0.3-0.9,0.6-1.3,0.8
			c-2.7,0.9-7.6,0.7-10.3,0.1c-7.9-1.5-5.8-11.2-4.1-16.9c0-0.1-0.1-0.1-0.1,0c-0.6,1-1.3,2.4-1.9,4c-0.8-0.8-2.3-1.1-3.3-1.1
			c-2.8,0-5.8,1.2-8.2,2.6c-0.2,0.1-0.1,0.5,0.1,0.5c2.5,0.1,4.9-0.6,7.4-0.5c1.1,0,2.2,0.6,3.3,0.7c-1.2,4.4-1.3,9.5,2.2,11.7
			c3,2,8.7,1.3,12.1,1.1c1.3-0.1,2.5-0.2,3.6-0.5c-2.2,11.4-6.2,22.5-12.3,32.7c-15,25-45.5,6.1-57.5-12.8c-1-2.5-2.5-4.8-3.7-7.2
			c-1-2.1-1.8-4.3-3-6.2c-0.1-0.2-0.6-0.2-0.6,0.1c0,1.4,0.3,2.8,0.6,4.4c-0.1,0.1-0.1,0.1-0.1,0.2c0,0.4-0.4,0.9-0.6,1.3
			c-0.1,0.3-0.3,0.5-0.5,0.8c-0.2,0.3-0.3,0.5-0.5,0.7c-0.1,0.1-0.1,0.2-0.2,0.4c-0.5-2-1.6-3.7-3.3-5.2c-0.3-0.3-0.9,0.3-0.5,0.6
			c1.1,1,1.9,2.4,2.1,3.9c0,0,0,0,0,0c-10.9,0.6-18.3-8.1-17.2-18.8c0.3-3.1,1.4-9.3,4.3-11.2c1.6-1,5.8-0.8,7.6,0.1
			c0.1,0.2,0.3,0.3,0.5,0.3c1.7,1.4,3.4,5.5,4.2,7c0.3,0.6,1.1,0.1,1-0.4c-0.2-1-0.5-1.9-0.8-2.9c0.5,0.1,1,0.3,1.4,0.4
			c-0.1,2.7-0.3,5.5-0.3,8.2c0,0.6,1,0.6,1.1,0c0.5-2.6,0.8-5.2,0.9-7.8c0.3,0.1,0.5,0.1,0.8,0.2c-0.2,4-1,7.9-2.5,11.7
			c-0.2,0.6,0.6,0.9,0.9,0.4c1.9-3.7,2.7-7.8,2.8-11.8c1.7,0.4,3.5,0.8,5.2,1.2c2.6,0.6,5.3,1.6,8,1.8c0.7,4.5,2.5,8.6,6.8,9.6
			c4.4,1.1,9.4,0.8,13.8,0.2c3.4-0.4,9.3-1,11.8-3.9c3.6-4.2,1-15.9-3.2-19.2c-6.9-5.4-21.7-0.6-28.6,2.4c-0.1,0-0.1,0.1-0.2,0.1
			c0-0.3-0.1-0.5-0.1-0.8c-0.1-0.3-0.6-0.3-0.6,0.1c0,0.1,0,0.2,0,0.2c-1-1-1.7-2.4-2-3.7c-0.1-0.7-1-0.6-1.2,0
			c-0.5,2.5,1,4.4,3.1,5.3c0,0.7,0,1.4,0,2.1c-0.7-0.3-1.9-1.6-2.2-1.9c-0.6-0.6-1.1-1.2-1.7-1.8c-0.5-0.5-1.4,0.1-1.2,0.7
			c0.5,1.7,1.8,2.9,3.4,3.7c0.4,0.2,1.1,0.4,1.7,0.4c0,0.4,0,0.8,0,1.2c-2.3,0.7-4.1-1.2-5.7-2.5c-0.4-0.3-1,0.2-0.7,0.6
			c0.9,1.4,2,2.6,3.6,3.1c1.1,0.3,2,0.2,2.9-0.4c0,0.9,0.1,1.9,0.2,2.8c-2.6-1-5.5-1.4-8.2-2c-1.6-0.3-3.2-0.6-4.8-0.8
			c-0.1-2.2-0.4-4.3-0.9-6.4c-0.1-0.5-0.9-0.3-0.8,0.2c0.4,2,0.6,4.1,0.6,6.1c-0.3,0-0.5-0.1-0.8-0.1c0-0.8,0-1.6,0-2.3
			c-0.1-2.6,0.4-7-1.1-9.4c2.9-4.3,5.9-8.4,9.8-12.1c0.5-0.5-0.1-1.4-0.7-0.9c-6.1,4.9-12.4,11.2-15.3,18.7C91,76.5,90,76.1,89,75.8
			c0.1-1.4,0.8-2.5,1.6-3.6c0.2,0,0.4-0.1,0.5-0.2c6.6-8.2,15.1-18.1,25.8-20.8c0.3-0.1,0.2-0.5-0.1-0.5
			c-8.5,0.7-16.6,7.1-22.3,14.2c-0.2-0.1-0.5-0.1-0.6,0.1c-1.8,2.2-3.5,4.6-5,7.1c-0.7,1.2-1.2,2.4-1,3.6c-7-0.6-10,8.4-10.7,14
			c-1.2,9.1,4.3,20.8,13.5,22.1c-0.4,2.2-0.7,4.3,0.7,6.3c1,1.3,2.6,2.1,4.2,1.7c0.3,0.1,0.7,0.1,1-0.2c1.8-1.5,2-4.4,1.9-6.7
			c0-0.6-0.1-1.2-0.2-1.7c0.2,0,0.4,0,0.7-0.1c0.6-0.2,1-0.6,1.4-1c0.2-0.2,0.3-0.4,0.4-0.6c0.6,1.7,1.5,3.4,2.5,4.9
			c1.1,2.8,2.7,5.4,4.6,7.9c-1.7-1.8-4.2-2.7-5.5-4.9c-0.7-1.2-1-2.5-1.2-3.9c-0.1-0.5-0.7-0.7-1-0.5c-0.1-0.5-0.1-1-0.2-1.5
			c0-0.3-0.5-0.3-0.6,0c-0.5,2.1-0.4,4.8,0.5,7.4c-0.4,2.7-1.4,4.3-2.9,5.4c-1.1,0.1-2.1,0.3-3.2,0.6c-0.3,0.1-0.5,0.4-0.5,0.7
			c-6.7-0.2-11.9-5.8-19.2-6.8c-6.8-0.9-12.6,4.4-16,9.8c-6.4,10.3,1.5,23.6,12.8,21.3c0.9,1.3,1.9,2.4,3,3.2
			c2.2,5,7.4,5.4,11.7,3.3c3.7-0.9,7-3.5,8.1-7.3c2-6.8-5.3-9-9.5-12.1c1.5-1.1,2.9-1.9,3.8-2.3c2-1,4.2-1.6,6.3-2.2
			c1.8,0.3,3.6,0.3,5.5,0c4.1-0.8,8.5-3.3,8.4-7.8c0.3-0.4,0.4-0.9,0.2-1.4c0-0.1,0-0.3,0-0.4c0.4,0.6,0.9,1.1,1.4,1.7
			c3,10.2,5.9,20.2,7.9,30.7c-0.6-1-1.1-2.1-1.7-3.1c-0.3-0.4-1-0.2-0.9,0.4c1.8,5.2,3.8,10.3,5.8,15.3c-0.5-0.5-1-0.9-1.6-1.4
			c-0.2-0.2-0.5,0.1-0.3,0.3c0.8,0.9,1.7,1.9,2.6,2.8c1.6,3.9,3.2,7.8,4.9,11.6c-0.6,4,3.1,9.5,4.3,12.5c3.5,8.7,6.8,17.5,11.5,25.7
			c0.4,0.7,1.7,0.4,1.4-0.5c-2-6.1-4.6-12-7.4-17.8c-1.5-3.1-2.9-6.2-4.4-9.3c-0.6-1.3-1.8-3.1-2.8-5c0.4,0.1,0.9-0.3,0.7-0.8
			c-1.2-4-2.5-8-4-12c2.2,2.3,4.5,4.6,6.8,6.9c2.6,2.6,6.7,8.9,10.6,9.6c5.3,1,7.2-8.8,7.7-12.5c0.1-0.7-1-1-1.1-0.3
			c-0.5,2.5-1.7,8.6-4.1,9.7c-3.8,1.8-7.9-4-10.2-6.2c-3.5-3.3-7-6.6-10.5-9.9c-1.8-4.8-3.9-9.6-6.2-14.1c0.2-0.1,0.5-0.3,0.4-0.6
			c-0.2-9.9-2.4-20.2-6.8-29.2c4.1,4.3,8.9,8,13.6,10.9c10.6,6.7,23.4,7.5,33.3-0.9c9.8-8.3,14.9-24,17.9-36c0.5-2.2,1-4.4,1.4-6.6
			c0.7-0.5,1.3-1.1,1.8-2c1.8-3.1,1.5-7.3,1.3-10.7c0-1-0.1-1.9-0.3-2.8C184.2,79.2,186.8,76.8,187.1,74.1z M115.3,78.8
			c0.2,0,0.4-0.1,0.5-0.3c6.1-2.4,12.5-4.2,19.2-4c4.1,0.1,7.3,0.1,9.6,4.7c2.5,4.9,2.7,12.1-3.1,15c-4.2,2.1-11.4,1.9-16,1.7
			c-4.6-0.2-6.9-1.6-8.6-6.1c-1.3-3.3-1.7-7.4-2.1-11.1C114.9,78.7,115.1,78.8,115.3,78.8z M96.9,73.1c0,2.6,0.6,5.7,0.6,7.7
			c0,0.7,0,1.5,0,2.2c-0.6-0.1-1.1-0.1-1.7-0.1c-0.6-1.6-1.4-3.2-2.5-4.4C94.5,76.7,95.7,74.9,96.9,73.1z M96.3,113.7
			c-0.1,0.8-0.6,3.7-1.4,4c-0.2,0.1-0.3,0.2-0.4,0.4c-2.3-0.8-3.2-3.8-3.2-6.3c1.6,0.1,3.4,0,5.2-0.6
			C96.5,112,96.4,112.9,96.3,113.7z M83.8,127.9c0.2,0.1,0.5,0.3,0.7,0.4c-3,1.4-5.8,3.5-7.5,6.4c-0.6,1-0.9,2-1.2,3
			c-0.3-1.1-0.3-2.3,0.2-3.8c0.7-2.3,2.9-4.1,5-5.1C81.9,128.4,82.8,128.1,83.8,127.9z M72.8,149.3c0.5-0.2,1-0.4,1.5-0.6
			c1-0.5,0.5-1.9-0.6-1.6c-0.9,0.3-1.9,0.4-2.8,0.4c0,0,0,0-0.1-0.1c-0.4-0.4-0.9-0.3-1.1,0.1c-6.9-0.3-12.5-6.4-10.1-14
			c1.1-3.3,4.2-6.9,7-8.8c2.7-1.9,5.5-2,8.2-1.3c-0.4,0.1-0.7,0.3-1.1,0.4c-7.9,3.6-9.3,13.7-2.4,19.1c0.7,0.5,1.8-0.2,1.3-1
			c-4-5.8-2.1-15.2,6-15.4c0.5,0,1,0,1.5,0.1c-1.6,0.5-3.1,1.4-4.5,2.7c-2.1,2-3.1,4.2-3.2,6.4c-0.7,1.1-0.3,2.4,0.6,3.6
			c0.4,1.1,1,2.1,1.9,2.9c-0.8,3.5,0.5,7.1,4.8,7.7c0.6,0.1,1-0.3,1.1-0.8c0.2,0.1,0.4,0.2,0.6,0.2c0.7,0.2,1.5-0.7,0.9-1.2
			c-0.9-0.9-1.6-1.8-2.1-2.8c0.8,0.1,1.3-0.8,1.2-1.5c1.8,1.2,2.9,2.8,1.5,5.1C80.1,153.2,75.9,151.8,72.8,149.3z M86.3,151.5
			c-0.8,0.8-2.2,1.4-3.2,1.8c-0.5,0.2-1,0.3-1.4,0.4c0.6-0.3,1.1-0.6,1.7-1.1c2.7-2,4.2-5.2,2.3-8.3c-0.9-1.5-2.4-2.4-4-3.1
			c-0.3-0.1-1-0.3-1.9-0.6c0.8-0.9,1.7-1.7,2.7-2.5c0.3,0.6,0.6,1.1,1,1.6c1.3,1.7,4.3,3.4,4.9,5.4
			C88.7,146.5,87.1,150.6,86.3,151.5z M87.3,140.8C87.3,140.8,87.3,140.8,87.3,140.8c-1.5-0.9-3-1.8-4-3.2c0,0,0,0,0,0
			c0,0,0,0.1,0.1,0.1C84.6,138.8,86,139.7,87.3,140.8z M88.4,130.6c-1.6,0.6-3.2,1.4-4.8,2.2c0.7-0.5,1.4-1,2.2-1.4
			c0.8-0.4,1.6-0.7,2.4-1c0,0,0.1,0,0.1,0c0.1,0,0.1,0.1,0.2,0.1C88.5,130.6,88.5,130.6,88.4,130.6z M97.3,128.3
			c0,0-0.1-0.1-0.1-0.1c-0.2-0.1-0.5-0.1-0.7-0.2c0.5-0.2,0.9-0.5,1.3-0.8c1,0,2-0.1,2.9-0.3C99.6,127.4,98.5,127.9,97.3,128.3z
			 M100.7,123.6c-0.1,0.1-0.2,0.1-0.4,0.2c0.3-0.8,0.5-1.6,0.5-2.5c0.3,0.6,0.7,1.2,1.2,1.7c-0.1,0.3-0.4,0.5-0.9,0.7
			C101.1,123.5,100.9,123.5,100.7,123.6z M101.7,129.4c1.6-1.2,2.8-2.9,3-4.6c0.7,0.3,1.5,0.5,2.3,0.4c0,0,0,0,0.1,0
			C106.4,127.8,104.1,128.9,101.7,129.4z M179.9,66.7c-0.1-1-0.2-2-0.4-3c0.2,0.3,0.7,0.3,0.9,0C180.3,64.6,180.1,65.7,179.9,66.7z
			 M177,53.5c0.5-1.1,0.9-2.1,1.2-3.2c1.5,3.5,2.3,7.1,2.3,10.8c-0.2-1.5-0.8-2.9-1.8-4.1c0.3,0,0.5-0.2,0.5-0.5
			C179.2,54.9,178.2,54,177,53.5z M179.5,89.4c0.4-2.9,0.7-5.9,0.8-8.9C180.8,83.2,180.4,86.6,179.5,89.4z"/>
		<path fill="#D7E2F2" d="M87,135.5c-0.2-0.1-0.3,0.2-0.1,0.2c4.4,2.7,11.1,7.4,9,14c-1,3.2-4,5.4-6.7,7.1c-0.6,0.4-0.1,1.4,0.5,1.1
			c4.3-1.8,8.6-5.1,8.5-10.3C97.9,141.4,91.8,138.2,87,135.5z"/>
	</g>
	<path fill="#D7E2F2" d="M146.3,155.7c-0.3-2.4-0.6-4.8-1-7.2c0-1.5,0-3.1-0.3-4.6c0,0-0.1-0.1-0.1,0c-0.1,0.2-0.2,0.5-0.3,0.8
		c-0.1-0.4-0.2-0.9-0.3-1.3c-0.1-0.3-0.4-0.2-0.5,0c-0.5,2.9-0.4,6,0,9.1c0.2,2.3,0.6,4.7,1,6.6c0.1,0.2,0.3,0.4,0.5,0.3
		c0.4,1.3,0.7,2.5,1.1,3.6c0.1,0.2,0.2,0.3,0.4,0.3c1.1,6.6,2.1,13,0.4,19.9c-0.2,0.9,1,1.4,1.4,0.5
		C152.7,175,149.3,164.3,146.3,155.7z"/>
	<path fill="#D7E2F2" d="M158,153.1c-3-2.9-7.6-5.2-11.8-3.9c-0.1,0-0.2,0.2,0,0.3c5.4,2,10.5,4.1,12.7,9.8
		c1.7,4.4,1.8,9.4,3.2,13.9c0.4,1.2,2.1,0.7,1.9-0.5C162.8,165.9,163.2,158.3,158,153.1z"/>
	<path fill="#D7E2F2" d="M94.4,165.7c1.7-1,3.4-2,5.1-2.9c0,0.1,0,0.3,0,0.4c0,0.5,0.6,0.8,0.9,0.4c2.4-2.1,3.5-5.6,5.6-8
		c2.4-2.6,5.5-4.2,8-6.6c0.1-0.1,0-0.2-0.1-0.2c-3.6,0.2-7,3-9.4,5.5c-1.9,2-4.5,4.7-5,7.6c-8.6,3.8-16.4,9.1-23,15.9
		c-5.3,5.5-14.7,15.5-11.5,23.8c-0.7,2.7-1.3,5.5-1.7,8.1c-0.1,0-0.2,0-0.3,0c-0.6,0-0.6,0.9,0,1c0,0,0.1,0,0.1,0
		c-0.2,1.9-0.3,3.8-0.2,5.6c0,0.6,0.9,0.8,1.1,0.2c0.6-1.8,1-3.8,1.3-5.7c1.1,0.1,2.1,0.1,3.2,0.2c-0.7,3.7-0.4,8,0.3,11.1
		c0.2,0.8,1.3,0.5,1.3-0.2c0-2.4-0.2-4.9-0.3-7.3c0-1.1,0.1-2.3,0.1-3.5c11,1,21.7,3.7,32.4,6.9c0.6,0.2,1-0.8,0.4-1.1
		c-10.5-4.3-21.6-6.2-32.8-6.9c0-0.9-0.1-1.7-0.3-2.6c0,0,0,0,0,0c-0.4,0.7-0.7,1.6-0.9,2.5c-1.1-0.1-2.2-0.1-3.3-0.2
		c0.3-2,0.6-4.1,0.9-6.1c0.6-3.2,1.3-6.3,1.9-9.5c0.4-1.1,0.9-2.3,1.4-3.4c4.9-2.8,11.6-2.8,17-1.6c5.8,1.3,9.8,4.7,14.5,8
		c3.5,7.2,6.3,14.6,9,22.1c0.3,0.9,1.7,0.6,1.5-0.4c-1.9-7.4-5.2-14.3-9.2-20.7c0.4,0.2,0.8-0.4,0.6-0.7
		c-5.3-9.2-22.9-13.7-32.8-7.9c1.1-2.1,2.3-4.2,3.8-6.1c2.1-2.7,4.4-5.2,6.8-7.6c3.1-3,6.3-5.6,9.8-8c0,0.2,0.2,0.5,0.6,0.5
		c8.5,0.2,16.2,2.6,22.5,8.5c0.7,0.6,1.8,0.2,1.8-0.8C115.8,166.6,102.4,162.1,94.4,165.7z M93.8,166.9c6.2-2.9,16.8-0.2,19.5,6.3
		C107.7,168.9,100.8,166.4,93.8,166.9z"/>
	<path fill="#D7E2F2" d="M182.6,180c-2.9-5-6.4-9.6-10.4-13.9c-2.5-2.7-5.7-7.5-9.5-7.9c0,0-0.1,0-0.1,0.1c0.5,3.9,5.5,7.4,8,10.3
		c3.5,4.1,7,8.2,10.6,12.2C181.7,181.5,183.1,180.9,182.6,180z"/>
	<path fill="#D7E2F2" d="M181,196.4c0.8-3.5,2.4-6.5,3.6-9.8c0-0.1-0.1-0.2-0.2-0.1c-2.7,2.3-4,6.3-4.3,9.7
		c-3.1-6.3-7.6-12.5-9.3-18.9c-0.1-0.4-0.7-0.3-0.6,0.1c3,12.3,12.8,23.2,9.7,36.5c-0.3,1.1,1.2,1.5,1.6,0.5
		c2.9-6.2,1.5-12-1.1-17.6C180.6,196.9,180.9,196.8,181,196.4z"/>
	<path fill="#D7E2F2" d="M166.4,188.7c-4.4-7.8-9-16.1-14.5-23.2c0-0.1-0.1,0-0.1,0.1c3.7,8.3,8.8,15.9,13.1,23.9
		c4.1,7.7,7.1,15.6,10.1,23.9c0.2,0.5,1,0.4,0.9-0.2C174.8,204.4,170.7,196.2,166.4,188.7z"/>
</g>
</svg>
