<?xml version="1.0" encoding="utf-8"?>
<!-- Generator: Adobe Illustrator 18.0.0, SVG Export Plug-In . SVG Version: 6.00 Build 0)  -->
<!DOCTYPE svg PUBLIC "-//W3C//DTD SVG 1.1//EN" "http://www.w3.org/Graphics/SVG/1.1/DTD/svg11.dtd">
<svg version="1.1" id="Socialmedia_Icons_and_cartoons"
	 xmlns="http://www.w3.org/2000/svg" xmlns:xlink="http://www.w3.org/1999/xlink" x="0px" y="0px" viewBox="0 0 108 114.4"
	 enable-background="new 0 0 108 114.4" xml:space="preserve">
<g>
	<path fill="#D7E2F2" d="M57.5,23.8c1.8,0,3.2,1.4,3.2,3.2v21.2c0,1.8,1.4,3.2,3.2,3.2h21.2c1.8,0,3.2,1.4,3.2,3.2v7
		c0,1.8-1.4,3.2-3.2,3.2H63.9c-1.8,0-3.2,1.4-3.2,3.2v21.2c0,1.8-1.4,3.2-3.2,3.2h-7c-1.8,0-3.2-1.4-3.2-3.2V68.1
		c0-1.8-1.4-3.2-3.2-3.2H22.8c-1.8,0-3.2-1.4-3.2-3.2v-7c0-1.8,1.4-3.2,3.2-3.2h21.2c1.8,0,3.2-1.4,3.2-3.2V27
		c0-1.8,1.4-3.2,3.2-3.2H57.5 M57.5,21.6h-7c-3,0-5.4,2.4-5.4,5.4v21.2c0,0.6-0.5,1.1-1.1,1.1H22.8c-3,0-5.4,2.4-5.4,5.4v7
		c0,3,2.4,5.4,5.4,5.4h21.2c0.6,0,1.1,0.5,1.1,1.1v21.2c0,3,2.4,5.4,5.4,5.4h7c3,0,5.4-2.4,5.4-5.4V68.1c0-0.6,0.5-1.1,1.1-1.1h21.2
		c3,0,5.4-2.4,5.4-5.4v-7c0-3-2.4-5.4-5.4-5.4H63.9c-0.6,0-1.1-0.5-1.1-1.1V27C62.9,24,60.4,21.6,57.5,21.6L57.5,21.6z"/>
</g>
</svg>
