<?xml version="1.0" encoding="utf-8"?>
<!-- Generator: Adobe Illustrator 18.0.0, SVG Export Plug-In . SVG Version: 6.00 Build 0)  -->
<!DOCTYPE svg PUBLIC "-//W3C//DTD SVG 1.1//EN" "http://www.w3.org/Graphics/SVG/1.1/DTD/svg11.dtd">
<svg version="1.1" id="Layer_1" xmlns="http://www.w3.org/2000/svg" xmlns:xlink="http://www.w3.org/1999/xlink" x="0px" y="0px"
	 viewBox="0 0 600 250" enable-background="new 0 0 600 250" xml:space="preserve">
<g enable-background="new    ">
	<path fill="#AED248" d="M108.7,99.3l-3.1,11.6H92.9v63l-3.1,11.6H55.7v-74.5H39V80.1l3.1-11.6h66.6V99.3z M103.6,94.2V73.6H47.5
		v20.6h16.7v74.5h23.7V94.2C87.8,94.2,103.6,94.2,103.6,94.2z"/>
	<path fill="#AED248" d="M173.4,163.1l-3.1,11.6h-66.6V80.1l3.1-11.6h66.6v30.8l-3.1,11.6h-16.7v16.4l-3.1,4.8h23.1v31.1H173.4z
		 M168.3,157.8v-20.6h-32.7v-15.2h12.7v-14.4h-12.7V94h32.7V73.6h-56.2v84.1H168.3z"/>
	<path fill="#AED248" d="M238.3,163.1l-3.1,11.6h-45.7l-21.2-20.9V80.1l3.1-11.6h66.9V163.1z M233.2,157.8V73.6h-24v63.8h-8.8V73.6
		h-23.7V140l18.1,17.8H233.2z"/>
	<path fill="#AED248" d="M303.2,106.7l-2,5.9h2v50.5l-3.1,11.6h-66.9v-29.6l2-5.9h-2v-59l3.1-11.6h66.9V106.7z M297.9,104.4V73.6
		h-23.7v33.9h-8.8V73.6h-23.7v48.6H255l-13.3,13.3v22.3h23.7v-25.7h8.8v25.7h23.7v-40.1h-13.3L297.9,104.4z"/>
	<path fill="#AED248" d="M367.9,163.1l-3.1,11.6h-66.9v-70l23.7-36.1h46.3L367.9,163.1L367.9,163.1z M362.8,157.8V73.6h-38.4
		L306.6,101v56.7h23.7v-35.6h9v35.6H362.8z M339.1,107.5h-9l9-17.2V107.5z"/>
	<path fill="#AED248" d="M432.5,85.8v35.9l-2,4l2,2v46.6l-3.1,11.6h-34.2v-11h-32.7V80.1l3.1-11.6h45.5L432.5,85.8z M427.5,88
		l-17.8-14.4h-38.4v84.1H395v-34.4l8.8,9v36.4h23.7v-39.2l-13-13h13V88z M403.7,107.5h-9V94h8.8v13.6H403.7z"/>
	<path fill="#AED248" d="M497.5,99.3l-3.1,11.6h-12.7v63l-3.1,11.6h-34.2v-74.5h-16.7V80.1l3.1-11.6h66.6V99.3z M492.1,94.2V73.6
		h-56.2v20.6h16.9v74.5h23.7V94.2C476.6,94.2,492.1,94.2,492.1,94.2z"/>
	<path fill="#AED248" d="M562.4,99.3l-1.1,3.1h1.1v43.8l-3.4,11.6l-15,16.7h-51.7v-29.4l3.1-6.5h-3.1v-34.4L516.1,68h46.3V99.3z
		 M557,94.2V73.6h-38.4L500.9,101v21.2h35.6v16.7h-35.6v18.9h44.3l12.1-13.6v-36.7H524V94h33V94.2z"/>
</g>
</svg>
