<?xml version="1.0" encoding="utf-8"?>
<!-- Generator: Adobe Illustrator 18.0.0, SVG Export Plug-In . SVG Version: 6.00 Build 0)  -->
<!DOCTYPE svg PUBLIC "-//W3C//DTD SVG 1.1//EN" "http://www.w3.org/Graphics/SVG/1.1/DTD/svg11.dtd">
<svg version="1.1" id="Layer_1" xmlns="http://www.w3.org/2000/svg" xmlns:xlink="http://www.w3.org/1999/xlink" x="0px" y="0px"
	 viewBox="0 0 123.1 79.3" enable-background="new 0 0 123.1 79.3" xml:space="preserve">
<text transform="matrix(1 0 0 1 106.6953 65.6768)" fill="#5EBBD1" font-family="'MyriadPro-Regular'" font-size="7.7761">™</text>
<g>
	<defs>
		<polygon id="SVGID_1_" points="7,12.3 7,20.5 13.7,20.5 13.7,50.4 23.2,50.4 23.2,20.5 29.5,20.5 29.5,12.3 		"/>
	</defs>
	<clipPath id="SVGID_2_">
		<use xlink:href="#SVGID_1_"  overflow="visible"/>
	</clipPath>
	
		<linearGradient id="SVGID_3_" gradientUnits="userSpaceOnUse" x1="0" y1="79.3252" x2="1" y2="79.3252" gradientTransform="matrix(0 -32.3672 -32.3672 0 2585.7822 76.2261)">
		<stop  offset="0" style="stop-color:#3E60AC"/>
		<stop  offset="0.9127" style="stop-color:#2D4A7E"/>
		<stop  offset="1" style="stop-color:#2D4A7E"/>
	</linearGradient>
	<rect x="7" y="12.3" clip-path="url(#SVGID_2_)" fill="url(#SVGID_3_)" width="22.5" height="38.1"/>
</g>
<g>
	<defs>
		<polygon id="SVGID_4_" points="32.9,12.3 55.4,12.3 55.4,20.5 42.4,20.5 42.4,25.9 47.4,25.9 47.4,31.8 42.4,31.8 42.4,37.8 
			55.4,37.8 55.4,46 32.9,46 		"/>
	</defs>
	<clipPath id="SVGID_5_">
		<use xlink:href="#SVGID_4_"  overflow="visible"/>
	</clipPath>
	
		<linearGradient id="SVGID_6_" gradientUnits="userSpaceOnUse" x1="0" y1="79.3252" x2="1" y2="79.3252" gradientTransform="matrix(0 -32.3671 -32.3671 0 2611.6899 76.2258)">
		<stop  offset="0" style="stop-color:#3E60AC"/>
		<stop  offset="0.9127" style="stop-color:#2D4A7E"/>
		<stop  offset="1" style="stop-color:#2D4A7E"/>
	</linearGradient>
	<rect x="32.9" y="12.3" clip-path="url(#SVGID_5_)" fill="url(#SVGID_6_)" width="22.5" height="33.7"/>
</g>
<g>
	<defs>
		<polygon id="SVGID_7_" points="58.8,38.9 58.8,12.3 68.3,12.3 68.3,37.8 71.8,37.8 71.8,12.3 81.4,12.3 81.4,46 66,46 		"/>
	</defs>
	<clipPath id="SVGID_8_">
		<use xlink:href="#SVGID_7_"  overflow="visible"/>
	</clipPath>
	
		<linearGradient id="SVGID_9_" gradientUnits="userSpaceOnUse" x1="0" y1="79.3252" x2="1" y2="79.3252" gradientTransform="matrix(0 -32.3671 -32.3671 0 2637.6323 76.2258)">
		<stop  offset="0" style="stop-color:#3E60AC"/>
		<stop  offset="0.9127" style="stop-color:#2D4A7E"/>
		<stop  offset="1" style="stop-color:#2D4A7E"/>
	</linearGradient>
	<rect x="58.8" y="12.3" clip-path="url(#SVGID_8_)" fill="url(#SVGID_9_)" width="22.6" height="33.7"/>
</g>
<g>
	<defs>
		<polygon id="SVGID_10_" points="84.7,12.3 94.2,12.3 94.2,25.9 97.8,25.9 97.8,12.3 107.3,12.3 107.3,31.8 101.9,31.8 107.3,37 
			107.3,46 97.8,46 97.8,35.8 94.2,35.8 94.2,46 84.7,46 84.7,29.9 90,29.9 84.7,24.8 		"/>
	</defs>
	<clipPath id="SVGID_11_">
		<use xlink:href="#SVGID_10_"  overflow="visible"/>
	</clipPath>
	
		<linearGradient id="SVGID_12_" gradientUnits="userSpaceOnUse" x1="0" y1="79.3252" x2="1" y2="79.3252" gradientTransform="matrix(0 -32.3671 -32.3671 0 2663.5515 76.2258)">
		<stop  offset="0" style="stop-color:#3E60AC"/>
		<stop  offset="0.9127" style="stop-color:#2D4A7E"/>
		<stop  offset="1" style="stop-color:#2D4A7E"/>
	</linearGradient>
	<rect x="84.7" y="12.3" clip-path="url(#SVGID_11_)" fill="url(#SVGID_12_)" width="22.6" height="33.7"/>
</g>
<g>
	<defs>
		<path id="SVGID_13_" d="M31.6,22.6l-1.3,4.7h-5v25.2l-1.3,4.7H10.3V27.3H3.6V14.9l1.3-4.7h26.7V22.6z M29.5,20.5v-8.2H7v8.2h6.7
			v29.9h9.5V20.5H29.5z"/>
	</defs>
	<clipPath id="SVGID_14_">
		<use xlink:href="#SVGID_13_"  overflow="visible"/>
	</clipPath>
	
		<linearGradient id="SVGID_15_" gradientUnits="userSpaceOnUse" x1="0" y1="79.3252" x2="1" y2="79.3252" gradientTransform="matrix(0 -32.1694 -32.1694 0 2569.4189 67.4109)">
		<stop  offset="0" style="stop-color:#5ACAF4"/>
		<stop  offset="7.664400e-003" style="stop-color:#5ACAF4"/>
		<stop  offset="0.9127" style="stop-color:#AED248"/>
		<stop  offset="1" style="stop-color:#AED248"/>
	</linearGradient>
	<rect x="3.6" y="10.3" clip-path="url(#SVGID_14_)" fill="url(#SVGID_15_)" width="28" height="46.8"/>
</g>
<g>
	<defs>
		<path id="SVGID_16_" d="M57.5,48.1l-1.3,4.7H29.5V14.9l1.3-4.7h26.7v12.3l-1.3,4.7h-6.7v6.6l-1.3,1.9h9.3V48.1z M55.4,46v-8.2
			H42.4v-6h5v-5.9h-5v-5.4h13.1v-8.2H32.9V46H55.4z"/>
	</defs>
	<clipPath id="SVGID_17_">
		<use xlink:href="#SVGID_16_"  overflow="visible"/>
	</clipPath>
	
		<linearGradient id="SVGID_18_" gradientUnits="userSpaceOnUse" x1="0" y1="79.3252" x2="1" y2="79.3252" gradientTransform="matrix(0 -32.1697 -32.1697 0 2595.3579 67.4113)">
		<stop  offset="0" style="stop-color:#5ACAF4"/>
		<stop  offset="7.664400e-003" style="stop-color:#5ACAF4"/>
		<stop  offset="0.9127" style="stop-color:#AED248"/>
		<stop  offset="1" style="stop-color:#AED248"/>
	</linearGradient>
	<rect x="29.5" y="10.3" clip-path="url(#SVGID_17_)" fill="url(#SVGID_18_)" width="28" height="42.5"/>
</g>
<g>
	<defs>
		<path id="SVGID_19_" d="M83.5,48.1l-1.3,4.7H63.9l-8.4-8.3V14.9l1.3-4.7h26.7V48.1z M81.4,46V12.3h-9.6v25.5h-3.6V12.3h-9.5v26.6
			L66,46H81.4z"/>
	</defs>
	<clipPath id="SVGID_20_">
		<use xlink:href="#SVGID_19_"  overflow="visible"/>
	</clipPath>
	
		<linearGradient id="SVGID_21_" gradientUnits="userSpaceOnUse" x1="0" y1="79.3252" x2="1" y2="79.3252" gradientTransform="matrix(0 -32.1697 -32.1697 0 2621.3005 67.4113)">
		<stop  offset="0" style="stop-color:#5ACAF4"/>
		<stop  offset="7.664400e-003" style="stop-color:#5ACAF4"/>
		<stop  offset="0.9127" style="stop-color:#AED248"/>
		<stop  offset="1" style="stop-color:#AED248"/>
	</linearGradient>
	<rect x="55.4" y="10.3" clip-path="url(#SVGID_20_)" fill="url(#SVGID_21_)" width="28" height="42.5"/>
</g>
<g>
	<defs>
		<path id="SVGID_22_" d="M109.4,48.1l-1.3,4.7H81.3V32.5l0.8-1.6l-0.8-0.8V14.9l1.3-4.7h26.7v23.6l-0.8,1.4l0.8,0.9V48.1z
			 M107.3,46v-9l-5.4-5.3h5.4V12.3h-9.6v13.6h-3.6V12.3h-9.5v12.4l5.3,5.2h-5.3V46h9.5V35.8h3.6V46H107.3z"/>
	</defs>
	<clipPath id="SVGID_23_">
		<use xlink:href="#SVGID_22_"  overflow="visible"/>
	</clipPath>
	
		<linearGradient id="SVGID_24_" gradientUnits="userSpaceOnUse" x1="0" y1="79.3252" x2="1" y2="79.3252" gradientTransform="matrix(0 -32.1697 -32.1697 0 2647.2192 67.4113)">
		<stop  offset="0" style="stop-color:#5ACAF4"/>
		<stop  offset="7.664400e-003" style="stop-color:#5ACAF4"/>
		<stop  offset="0.9127" style="stop-color:#AED248"/>
		<stop  offset="1" style="stop-color:#AED248"/>
	</linearGradient>
	<rect x="81.3" y="10.3" clip-path="url(#SVGID_23_)" fill="url(#SVGID_24_)" width="28" height="42.5"/>
</g>
<g>
	<defs>
		<path id="SVGID_25_" d="M106.6,48.5c-0.5,0-0.9,0.4-0.9,0.9v9.1c0,0.5,0.4,0.9,0.9,0.9h9.1c0.5,0,0.9-0.4,0.9-0.9v-9.1
			c0-0.5-0.4-0.9-0.9-0.9H106.6z"/>
	</defs>
	<clipPath id="SVGID_26_">
		<use xlink:href="#SVGID_25_"  overflow="visible"/>
	</clipPath>
	
		<linearGradient id="SVGID_27_" gradientUnits="userSpaceOnUse" x1="0" y1="79.3252" x2="1" y2="79.3252" gradientTransform="matrix(0 -32.1696 -32.1696 0 2663.0496 67.411)">
		<stop  offset="0" style="stop-color:#5ACAF4"/>
		<stop  offset="7.664400e-003" style="stop-color:#5ACAF4"/>
		<stop  offset="0.9127" style="stop-color:#AED248"/>
		<stop  offset="1" style="stop-color:#AED248"/>
	</linearGradient>
	<rect x="105.7" y="48.5" clip-path="url(#SVGID_26_)" fill="url(#SVGID_27_)" width="11" height="11"/>
</g>
<g>
	<defs>
		<path id="SVGID_28_" d="M117,42.3c-0.4,0-0.7,0.3-0.7,0.7v5.4c0,0.4,0.3,0.7,0.7,0.7h5.4c0.4,0,0.7-0.3,0.7-0.7V43
			c0-0.4-0.3-0.7-0.7-0.7H117z"/>
	</defs>
	<clipPath id="SVGID_29_">
		<use xlink:href="#SVGID_28_"  overflow="visible"/>
	</clipPath>
	
		<linearGradient id="SVGID_30_" gradientUnits="userSpaceOnUse" x1="0" y1="79.3252" x2="1" y2="79.3252" gradientTransform="matrix(0 -32.1714 -32.1714 0 2671.6963 67.4124)">
		<stop  offset="0" style="stop-color:#5ACAF4"/>
		<stop  offset="7.664400e-003" style="stop-color:#5ACAF4"/>
		<stop  offset="0.9127" style="stop-color:#AED248"/>
		<stop  offset="1" style="stop-color:#AED248"/>
	</linearGradient>
	<rect x="116.3" y="42.3" clip-path="url(#SVGID_29_)" fill="url(#SVGID_30_)" width="6.8" height="6.8"/>
</g>
<g>
	<defs>
		<rect id="SVGID_31_" x="102.5" y="3.9" width="6.8" height="6.8"/>
	</defs>
	<clipPath id="SVGID_32_">
		<use xlink:href="#SVGID_31_"  overflow="visible"/>
	</clipPath>
	
		<linearGradient id="SVGID_33_" gradientUnits="userSpaceOnUse" x1="0" y1="79.3252" x2="1" y2="79.3252" gradientTransform="matrix(0 -32.1688 -32.1688 0 2657.6807 67.4098)">
		<stop  offset="0" style="stop-color:#5ACAF4"/>
		<stop  offset="7.664400e-003" style="stop-color:#5ACAF4"/>
		<stop  offset="0.9127" style="stop-color:#AED248"/>
		<stop  offset="1" style="stop-color:#AED248"/>
	</linearGradient>
	<rect x="102.5" y="3.9" clip-path="url(#SVGID_32_)" fill="url(#SVGID_33_)" width="6.8" height="6.8"/>
</g>
<g>
	<defs>
		<path id="SVGID_34_" d="M0.8,51C0.4,51,0,51.4,0,51.8V57c0,0.4,0.4,0.8,0.8,0.8H6c0.4,0,0.8-0.4,0.8-0.8v-5.2
			C6.8,51.4,6.5,51,6,51H0.8z"/>
	</defs>
	<clipPath id="SVGID_35_">
		<use xlink:href="#SVGID_34_"  overflow="visible"/>
	</clipPath>
	
		<linearGradient id="SVGID_36_" gradientUnits="userSpaceOnUse" x1="0" y1="79.3252" x2="1" y2="79.3252" gradientTransform="matrix(0 -32.1688 -32.1688 0 2555.2014 67.4107)">
		<stop  offset="0" style="stop-color:#5ACAF4"/>
		<stop  offset="7.664400e-003" style="stop-color:#5ACAF4"/>
		<stop  offset="0.9127" style="stop-color:#AED248"/>
		<stop  offset="1" style="stop-color:#AED248"/>
	</linearGradient>
	<rect y="51" clip-path="url(#SVGID_35_)" fill="url(#SVGID_36_)" width="6.8" height="6.8"/>
</g>
<g>
	<defs>
		<path id="SVGID_37_" d="M102.1,59.2c-0.4,0-0.7,0.3-0.7,0.7v2.9c0,0.4,0.3,0.7,0.7,0.7h2.9c0.4,0,0.7-0.3,0.7-0.7v-2.9
			c0-0.4-0.3-0.7-0.7-0.7H102.1z"/>
	</defs>
	<clipPath id="SVGID_38_">
		<use xlink:href="#SVGID_37_"  overflow="visible"/>
	</clipPath>
	
		<linearGradient id="SVGID_39_" gradientUnits="userSpaceOnUse" x1="0" y1="79.3252" x2="1" y2="79.3252" gradientTransform="matrix(0 -32.1668 -32.1668 0 2655.1892 67.4105)">
		<stop  offset="0" style="stop-color:#5ACAF4"/>
		<stop  offset="7.664400e-003" style="stop-color:#5ACAF4"/>
		<stop  offset="0.9127" style="stop-color:#AED248"/>
		<stop  offset="1" style="stop-color:#AED248"/>
	</linearGradient>
	<rect x="101.4" y="59.2" clip-path="url(#SVGID_38_)" fill="url(#SVGID_39_)" width="4.3" height="4.3"/>
</g>
<g>
	<defs>
		<path id="SVGID_40_" d="M98.9,0c-0.3,0-0.5,0.2-0.5,0.5v3.2c0,0.3,0.2,0.5,0.5,0.5h3.2c0.3,0,0.5-0.2,0.5-0.5V0.5
			c0-0.3-0.2-0.5-0.5-0.5H98.9z"/>
	</defs>
	<clipPath id="SVGID_41_">
		<use xlink:href="#SVGID_40_"  overflow="visible"/>
	</clipPath>
	
		<linearGradient id="SVGID_42_" gradientUnits="userSpaceOnUse" x1="0" y1="79.3252" x2="1" y2="79.3252" gradientTransform="matrix(0 -32.1703 -32.1703 0 2652.4573 67.4131)">
		<stop  offset="0" style="stop-color:#5ACAF4"/>
		<stop  offset="7.664400e-003" style="stop-color:#5ACAF4"/>
		<stop  offset="0.9127" style="stop-color:#AED248"/>
		<stop  offset="1" style="stop-color:#AED248"/>
	</linearGradient>
	<rect x="98.4" y="0" clip-path="url(#SVGID_41_)" fill="url(#SVGID_42_)" width="4.3" height="4.3"/>
</g>
<g>
	<defs>
		<rect id="SVGID_43_" x="110.9" y="38.7" width="4.3" height="4.3"/>
	</defs>
	<clipPath id="SVGID_44_">
		<use xlink:href="#SVGID_43_"  overflow="visible"/>
	</clipPath>
	
		<linearGradient id="SVGID_45_" gradientUnits="userSpaceOnUse" x1="0" y1="79.3252" x2="1" y2="79.3252" gradientTransform="matrix(0 -32.1703 -32.1703 0 2664.9077 67.4119)">
		<stop  offset="0" style="stop-color:#5ACAF4"/>
		<stop  offset="7.664400e-003" style="stop-color:#5ACAF4"/>
		<stop  offset="0.9127" style="stop-color:#AED248"/>
		<stop  offset="1" style="stop-color:#AED248"/>
	</linearGradient>
	<rect x="110.9" y="38.7" clip-path="url(#SVGID_44_)" fill="url(#SVGID_45_)" width="4.3" height="4.3"/>
</g>
<g>
	<defs>
		<path id="SVGID_46_" d="M7,57.2c-0.3,0-0.6,0.3-0.6,0.6v3.1c0,0.3,0.3,0.6,0.6,0.6h3.1c0.3,0,0.6-0.3,0.6-0.6v-3.1
			c0-0.3-0.3-0.6-0.6-0.6H7z"/>
	</defs>
	<clipPath id="SVGID_47_">
		<use xlink:href="#SVGID_46_"  overflow="visible"/>
	</clipPath>
	
		<linearGradient id="SVGID_48_" gradientUnits="userSpaceOnUse" x1="0" y1="79.3252" x2="1" y2="79.3252" gradientTransform="matrix(0 -32.1668 -32.1668 0 2560.1509 67.4103)">
		<stop  offset="0" style="stop-color:#5ACAF4"/>
		<stop  offset="7.664400e-003" style="stop-color:#5ACAF4"/>
		<stop  offset="0.9127" style="stop-color:#AED248"/>
		<stop  offset="1" style="stop-color:#AED248"/>
	</linearGradient>
	<rect x="6.4" y="57.2" clip-path="url(#SVGID_47_)" fill="url(#SVGID_48_)" width="4.3" height="4.3"/>
</g>
<g>
	<defs>
		<path id="SVGID_49_" d="M7,45.2c-0.3,0-0.6,0.3-0.6,0.6v3c0,0.3,0.3,0.6,0.6,0.6h3c0.3,0,0.6-0.3,0.6-0.6v-3
			c0-0.3-0.3-0.6-0.6-0.6H7z"/>
	</defs>
	<clipPath id="SVGID_50_">
		<use xlink:href="#SVGID_49_"  overflow="visible"/>
	</clipPath>
	
		<linearGradient id="SVGID_51_" gradientUnits="userSpaceOnUse" x1="0" y1="79.3252" x2="1" y2="79.3252" gradientTransform="matrix(0 -32.1668 -32.1668 0 2560.1509 67.4094)">
		<stop  offset="0" style="stop-color:#5ACAF4"/>
		<stop  offset="7.664400e-003" style="stop-color:#5ACAF4"/>
		<stop  offset="0.9127" style="stop-color:#AED248"/>
		<stop  offset="1" style="stop-color:#AED248"/>
	</linearGradient>
	<rect x="6.4" y="45.2" clip-path="url(#SVGID_50_)" fill="url(#SVGID_51_)" width="4.3" height="4.3"/>
</g>
<g>
	<defs>
		<polygon id="SVGID_52_" points="34.4,49.9 29.7,57.1 29.7,72 35.9,72 35.9,62.7 38.3,62.7 38.3,72 44.5,72 44.5,49.9 		"/>
	</defs>
	<clipPath id="SVGID_53_">
		<use xlink:href="#SVGID_52_"  overflow="visible"/>
	</clipPath>
	
		<linearGradient id="SVGID_54_" gradientUnits="userSpaceOnUse" x1="0" y1="79.3252" x2="1" y2="79.3252" gradientTransform="matrix(0 -32.3676 -32.3676 0 2604.6599 76.2262)">
		<stop  offset="0" style="stop-color:#3E60AC"/>
		<stop  offset="0.9127" style="stop-color:#2D4A7E"/>
		<stop  offset="1" style="stop-color:#2D4A7E"/>
	</linearGradient>
	<rect x="29.7" y="49.9" clip-path="url(#SVGID_53_)" fill="url(#SVGID_54_)" width="14.8" height="22.1"/>
</g>
<g>
	<defs>
		<polygon id="SVGID_55_" points="46.7,49.9 46.7,72 52.9,72 52.9,63 55.2,65.4 55.2,74.9 61.5,74.9 61.5,64.6 58.1,61.1 61.5,61.1 
			61.5,53.7 56.8,49.9 		"/>
	</defs>
	<clipPath id="SVGID_56_">
		<use xlink:href="#SVGID_55_"  overflow="visible"/>
	</clipPath>
	
		<linearGradient id="SVGID_57_" gradientUnits="userSpaceOnUse" x1="0" y1="79.3252" x2="1" y2="79.3252" gradientTransform="matrix(0 -32.3675 -32.3675 0 2621.6511 76.2262)">
		<stop  offset="0" style="stop-color:#3E60AC"/>
		<stop  offset="0.9127" style="stop-color:#2D4A7E"/>
		<stop  offset="1" style="stop-color:#2D4A7E"/>
	</linearGradient>
	<rect x="46.7" y="49.9" clip-path="url(#SVGID_56_)" fill="url(#SVGID_57_)" width="14.8" height="25"/>
</g>
<g>
	<defs>
		<polygon id="SVGID_58_" points="63.7,49.9 63.7,64.9 68.4,72 78.5,72 78.5,58.8 72.3,58.8 72.3,66.7 69.9,66.7 69.9,56.5 
			78.5,56.5 78.5,52.6 69.9,52.6 69.9,49.9 		"/>
	</defs>
	<clipPath id="SVGID_59_">
		<use xlink:href="#SVGID_58_"  overflow="visible"/>
	</clipPath>
	
		<linearGradient id="SVGID_60_" gradientUnits="userSpaceOnUse" x1="0" y1="79.3252" x2="1" y2="79.3252" gradientTransform="matrix(0 -32.3676 -32.3676 0 2638.6719 76.2262)">
		<stop  offset="0" style="stop-color:#3E60AC"/>
		<stop  offset="0.9127" style="stop-color:#2D4A7E"/>
		<stop  offset="1" style="stop-color:#2D4A7E"/>
	</linearGradient>
	<rect x="63.7" y="49.9" clip-path="url(#SVGID_59_)" fill="url(#SVGID_60_)" width="14.8" height="22.1"/>
</g>
<g>
	<defs>
		<polygon id="SVGID_61_" points="85.4,49.9 80.7,57.1 80.7,62.7 90.1,62.7 90.1,67.1 80.7,67.1 80.7,72 92.3,72 95.5,68.5 
			95.5,58.8 86.8,58.8 86.8,55.3 95.5,55.3 95.5,49.9 		"/>
	</defs>
	<clipPath id="SVGID_62_">
		<use xlink:href="#SVGID_61_"  overflow="visible"/>
	</clipPath>
	
		<linearGradient id="SVGID_63_" gradientUnits="userSpaceOnUse" x1="0" y1="79.3252" x2="1" y2="79.3252" gradientTransform="matrix(0 -32.3676 -32.3676 0 2655.7014 76.2262)">
		<stop  offset="0" style="stop-color:#3E60AC"/>
		<stop  offset="0.9127" style="stop-color:#2D4A7E"/>
		<stop  offset="1" style="stop-color:#2D4A7E"/>
	</linearGradient>
	<rect x="80.7" y="49.9" clip-path="url(#SVGID_62_)" fill="url(#SVGID_63_)" width="14.8" height="22.1"/>
</g>
<g>
	<defs>
		<path id="SVGID_64_" d="M35.9,58.8h2.4v-4.5L35.9,58.8z M29.7,57.1l4.7-7.2h10.1V72h-6.2v-9.4h-2.4V72h-6.2V57.1z M33.7,48.6
			l-6.2,9.5v18.4H45l0.9-3.1V48.6H33.7z"/>
	</defs>
	<clipPath id="SVGID_65_">
		<use xlink:href="#SVGID_64_"  overflow="visible"/>
	</clipPath>
	
		<linearGradient id="SVGID_66_" gradientUnits="userSpaceOnUse" x1="0" y1="79.3252" x2="1" y2="79.3252" gradientTransform="matrix(0 -32.1696 -32.1696 0 2588.5107 67.4111)">
		<stop  offset="0" style="stop-color:#5ACAF4"/>
		<stop  offset="7.664400e-003" style="stop-color:#5ACAF4"/>
		<stop  offset="0.9127" style="stop-color:#AED248"/>
		<stop  offset="1" style="stop-color:#AED248"/>
	</linearGradient>
	<rect x="27.5" y="48.6" clip-path="url(#SVGID_65_)" fill="url(#SVGID_66_)" width="18.4" height="27.9"/>
</g>
<g>
	<defs>
		<path id="SVGID_67_" d="M52.9,58.8h2.3v-3.5h-2.3V58.8z M46.7,49.9h10.1l4.7,3.8v7.4l-3.4,0l3.4,3.4v10.3h-6.2v-9.5L52.9,63v9
			h-6.2V49.9z M45.3,48.6l-0.9,3.1v24.8H53v2.9H62l0.8-3.1V64l-0.5-0.5l0.5-1v-9.4l-5.6-4.5H45.3z"/>
	</defs>
	<clipPath id="SVGID_68_">
		<use xlink:href="#SVGID_67_"  overflow="visible"/>
	</clipPath>
	
		<linearGradient id="SVGID_69_" gradientUnits="userSpaceOnUse" x1="0" y1="79.3252" x2="1" y2="79.3252" gradientTransform="matrix(0 -32.1695 -32.1695 0 2605.5071 67.4112)">
		<stop  offset="0" style="stop-color:#5ACAF4"/>
		<stop  offset="7.664400e-003" style="stop-color:#5ACAF4"/>
		<stop  offset="0.9127" style="stop-color:#AED248"/>
		<stop  offset="1" style="stop-color:#AED248"/>
	</linearGradient>
	<rect x="44.5" y="48.6" clip-path="url(#SVGID_68_)" fill="url(#SVGID_69_)" width="18.4" height="30.8"/>
</g>
<g>
	<defs>
		<path id="SVGID_70_" d="M63.7,64.9V49.9h6.2v2.7h8.6v3.8h-8.6v10.2h2.3v-7.8h6.2V72H68.4L63.7,64.9z M62.3,48.6l-0.9,3.1v16.6
			l5.4,8.2H79l0.9-3.1V51.3h-8.6v-2.7H62.3z"/>
	</defs>
	<clipPath id="SVGID_71_">
		<use xlink:href="#SVGID_70_"  overflow="visible"/>
	</clipPath>
	
		<linearGradient id="SVGID_72_" gradientUnits="userSpaceOnUse" x1="0" y1="79.3252" x2="1" y2="79.3252" gradientTransform="matrix(0 -32.1696 -32.1696 0 2622.5227 67.4111)">
		<stop  offset="0" style="stop-color:#5ACAF4"/>
		<stop  offset="7.664400e-003" style="stop-color:#5ACAF4"/>
		<stop  offset="0.9127" style="stop-color:#AED248"/>
		<stop  offset="1" style="stop-color:#AED248"/>
	</linearGradient>
	<rect x="61.5" y="48.6" clip-path="url(#SVGID_71_)" fill="url(#SVGID_72_)" width="18.4" height="27.9"/>
</g>
<g>
	<defs>
		<path id="SVGID_73_" d="M80.7,57.1l4.7-7.2h10.1v5.4h-8.7v3.5h8.7v9.6L92.3,72H80.7v-5h9.4v-4.4h-9.4V57.1z M84.7,48.6L78.5,58v9
			h0.9l-0.9,1.7v7.7h13.6L96,72l0.9-3.1V57.5h-0.3l0.3-0.8v-8.1H84.7z"/>
	</defs>
	<clipPath id="SVGID_74_">
		<use xlink:href="#SVGID_73_"  overflow="visible"/>
	</clipPath>
	
		<linearGradient id="SVGID_75_" gradientUnits="userSpaceOnUse" x1="0" y1="79.3252" x2="1" y2="79.3252" gradientTransform="matrix(0 -32.1696 -32.1696 0 2639.5522 67.4111)">
		<stop  offset="0" style="stop-color:#5ACAF4"/>
		<stop  offset="7.664400e-003" style="stop-color:#5ACAF4"/>
		<stop  offset="0.9127" style="stop-color:#AED248"/>
		<stop  offset="1" style="stop-color:#AED248"/>
	</linearGradient>
	<rect x="78.5" y="48.6" clip-path="url(#SVGID_74_)" fill="url(#SVGID_75_)" width="18.4" height="27.9"/>
</g>
</svg>
