<?xml version="1.0" encoding="utf-8"?>
<!-- Generator: Adobe Illustrator 18.0.0, SVG Export Plug-In . SVG Version: 6.00 Build 0)  -->
<!DOCTYPE svg PUBLIC "-//W3C//DTD SVG 1.1//EN" "http://www.w3.org/Graphics/SVG/1.1/DTD/svg11.dtd">
<svg version="1.1" id="Socialmedia_Icons_and_cartoons"
	 xmlns="http://www.w3.org/2000/svg" xmlns:xlink="http://www.w3.org/1999/xlink" x="0px" y="0px" viewBox="0 0 108 114.4"
	 enable-background="new 0 0 108 114.4" xml:space="preserve">
<g>
	<path fill="#D7E2F2" d="M72.9,19.1c5.5,0,10.5,2.2,14.1,5.7c2.8-0.4,7.3-1.5,12.6-4.5c0,0,0.1,0,0.1,0c0.1,0,0.2,0.1,0.1,0.2
		c-0.5,1.5-2.9,7.2-8.3,10.7c3-0.2,7-0.8,11-2.7c0,0,0,0,0.1,0c0.1,0,0.2,0.1,0.1,0.2c-1.2,1.7-5.4,7.4-9.7,9.8c0,0.1,0,0.1,0,0.2
		c0,0.2,0,0.5,0,0.7c0,0,0,0,0,0c1.4,8.1-4.4,44.7-35.4,54.8C50,96.8,43,97.7,36.7,97.7c-17,0-28.4-6.9-30.8-8.4
		C5.8,89.2,5.9,89,6,89c0,0,0,0,0,0c1.1,0.1,2.2,0.1,3.2,0.1c9.7,0,17.5-2.7,23.7-6.8c-13-1.3-16.9-10.8-17.7-13
		c-0.1-0.2,0.1-0.4,0.3-0.4c0,0,0,0,0,0c0.4,0,0.8,0.1,1.2,0.1c2,0,4.7-0.4,6.1-0.7c0.3,0,0.3-0.4,0-0.5C8.5,62.8,8.3,51.4,8.4,49
		c0-0.2,0.1-0.3,0.3-0.3c0,0,0.1,0,0.1,0c2.5,1.4,4.9,1.7,6.2,1.7c0.3,0,0.6,0,0.8,0c0.2,0,0.3-0.3,0.1-0.5
		c-12.3-10-6.2-22.6-4.9-24.9c0.1-0.1,0.1-0.1,0.2-0.1c0.1,0,0.2,0,0.2,0.1c12.5,15.4,33.2,19.4,41,20.4c0,0,0.1,0,0.1,0
		c0.7,0,1.1-0.6,1-1.3c-0.5-1.7-0.8-3.5-0.8-5.4C52.9,27.9,61.9,19.1,72.9,19.1 M72.9,17.2C60.8,17.2,51,26.9,51,38.8
		c0,1.6,0.2,3.1,0.5,4.6C28.4,40.1,16.9,28.7,13,23.9c-0.4-0.5-1-0.8-1.7-0.8c-0.8,0-1.5,0.4-1.9,1.1c-1.3,2.3-6.7,13.5,1.7,23.6
		c-0.5-0.2-0.9-0.4-1.4-0.7c-0.3-0.2-0.7-0.3-1-0.3c-1.1,0-2.1,0.9-2.1,2c-0.1,2.2,0,12.1,10.4,18.2c0,0-0.1,0-0.1,0
		c-0.4,0-0.7,0-1-0.1l-0.1,0l-0.2,0c-0.7,0-1.3,0.3-1.8,0.9c-0.4,0.6-0.5,1.3-0.3,1.9c0.6,1.9,4,10.2,14.2,13.3
		c-5.5,2.7-11.7,4.1-18.4,4.1c-1,0-2.1,0-3.1-0.1l-0.1,0l-0.1,0c-0.9,0-1.7,0.6-1.9,1.4c-0.3,0.9,0.1,1.8,0.8,2.3
		c2.2,1.5,14.1,8.8,31.8,8.8c7.1,0,14.3-1.2,21.5-3.5c17.2-5.6,26.3-18.9,30.9-29.1c5.1-11.3,6.4-22.6,5.7-27.3
		c4.1-2.7,7.9-7.7,9.3-9.8c0.4-0.6,0.5-1.4,0.1-2.1c-0.4-0.7-1-1.1-1.8-1.1c-0.3,0-0.6,0.1-0.9,0.2c-1.5,0.7-2.9,1.2-4.3,1.6
		c2.5-3.1,3.7-6.1,4.2-7.3c0.2-0.6,0.1-1.3-0.2-1.8c-0.4-0.5-1-0.9-1.7-0.9c-0.3,0-0.7,0.1-1,0.3c-4.5,2.5-8.4,3.6-11,4.1
		C83.6,19.2,78.4,17.2,72.9,17.2L72.9,17.2z"/>
</g>
</svg>
