<?xml version="1.0" encoding="utf-8"?>
<!-- Generator: Adobe Illustrator 18.0.0, SVG Export Plug-In . SVG Version: 6.00 Build 0)  -->
<!DOCTYPE svg PUBLIC "-//W3C//DTD SVG 1.1//EN" "http://www.w3.org/Graphics/SVG/1.1/DTD/svg11.dtd">
<svg version="1.1" id="Socialmedia_Icons_and_cartoons"
	 xmlns="http://www.w3.org/2000/svg" xmlns:xlink="http://www.w3.org/1999/xlink" x="0px" y="0px" viewBox="0 0 108 114.4"
	 enable-background="new 0 0 108 114.4" xml:space="preserve">
<g>
	<g>
		<path fill="#D7E2F2" d="M59.6,24.7c11.9,0,21.8,0.4,29.5,1.1l0.4,0c2.4,0.2,3.8,0.3,6.8,2.6c2.6,2,3.6,5.8,4,8.7l0.1,0.6l0,0
			c0.4,3.7,2.3,23.5,0.2,37.6l0,0.1l0,0.1c-0.1,1.1-0.6,6.9-3.4,9.9c-2.7,2.8-6.1,3.6-7.8,3.8l-1.3,0.1c-5.1,0.2-23.3,1-40.5,1
			c-12.9,0-22.5-0.4-28.6-1.3l-0.1,0l-0.2,0l-0.3,0c-1.3-0.2-5.8-1.3-8-4.1c-1.3-1.6-2.2-4.5-2.7-8.3L7.7,76l0,0c0-0.1,0-0.3,0-0.4
			c0-0.3-0.1-0.6-0.1-0.8l0,0l-0.1-1.5c-0.4-6.1-1.2-21.7,0.1-33.5l0,0l0,0c0.2-3.1,0.9-8.6,4.2-11c2.2-1.7,4.4-2.6,6.3-2.6l0.8-0.1
			l0,0C22.9,25.6,40.9,24.7,59.6,24.7 M44.8,71.9c0.4,0,0.7-0.1,1.1-0.3l25-13c0.8-0.4,1.3-1.2,1.3-2.1c0-0.9-0.5-1.7-1.3-2.1
			l-25-13c-0.3-0.2-0.7-0.3-1.1-0.3c-1.3,0-2.3,1.1-2.3,2.3v26.1C42.4,70.9,43.5,71.9,44.8,71.9 M59.6,22.8
			c-21.3,0-41.5,1.2-41.5,1.2l0,0c-1.7,0-4.2,0.7-7.3,3C7,29.9,6,35.5,5.8,39.5C4.5,51.4,5.3,66.7,5.7,73.3l0,0c0,0,0,1,0.2,2.4
			c0,0.6,0.1,1,0.1,1l0,0C6.3,79.6,7.2,83.6,9,86c2.6,3.3,7.3,4.4,9.1,4.7l0,0c0.2,0,0.3,0.1,0.5,0.1c0.1,0,0.2,0,0.2,0v0
			c7,1,17.8,1.3,28.9,1.3c17.2,0,35.1-0.8,40.6-1.1l0,0c0,0,0,0,0.1,0c0.8,0,6.1-0.2,10.2-4.4c3-3.1,3.8-8.7,4-11c0,0,0,0,0,0
			c2.3-15.9-0.3-38.7-0.3-38.7l-0.1-0.1c-0.5-3.6-1.7-7.7-4.7-10c-3.6-2.7-5.5-2.8-8.2-3C80.6,23.1,69.9,22.8,59.6,22.8L59.6,22.8z
			 M44.8,70.1c-0.3,0-0.5-0.2-0.5-0.5V43.5c0-0.3,0.2-0.5,0.5-0.5c0.1,0,0.2,0,0.2,0.1l25,13c0.4,0.2,0.4,0.7,0,0.9l-25,13
			C44.9,70.1,44.9,70.1,44.8,70.1L44.8,70.1z"/>
	</g>
</g>
</svg>
